<?xml version="1.0" encoding="utf-8"?>
<!-- Generator: Adobe Illustrator 16.0.3, SVG Export Plug-In . SVG Version: 6.00 Build 0)  -->
<!DOCTYPE svg PUBLIC "-//W3C//DTD SVG 1.1//EN" "http://www.w3.org/Graphics/SVG/1.1/DTD/svg11.dtd">
<svg version="1.1" id="Ebene_1" xmlns="http://www.w3.org/2000/svg" xmlns:xlink="http://www.w3.org/1999/xlink" x="0px" y="0px"
	 width="85.04px" height="85.039px" viewBox="0 0 85.04 85.039" enable-background="new 0 0 85.04 85.039" xml:space="preserve">
<rect y="0" fill="#880936" width="85.039" height="85.038"/>
<g>
	<defs>
		<rect id="SVGID_1_" y="0" width="85.039" height="85.038"/>
	</defs>
	<clipPath id="SVGID_2_">
		<use xlink:href="#SVGID_1_"  overflow="visible"/>
	</clipPath>
	<path clip-path="url(#SVGID_2_)" fill="#FFFFFF" d="M10.078,52.553c1.896,1.22,3.567,1.788,5.282,1.788
		c3.521,0,5.598-2.925,5.598-7.802c0-4.958-2.077-7.72-5.915-7.72c-1.625,0-3.25,0.61-4.965,1.829V52.553z M6.782,27.483l3.34-0.489
		v11.175c1.942-1.463,3.794-2.113,5.96-2.113c5.238,0,8.488,3.983,8.488,10.362c0,6.541-3.295,10.727-8.488,10.727
		c-2.077,0-3.702-0.567-6.23-2.192l-0.136,1.745H6.782V27.483z"/>
	<path clip-path="url(#SVGID_2_)" fill="#FFFFFF" d="M33.212,57.185c-4.696,0-7.088-2.071-7.088-6.135V36.585l3.34-0.489V50.44
		c0,0.813,0.046,1.342,0.136,1.789c0.406,1.544,2.077,2.479,4.47,2.479c1.941,0,3.747-0.61,5.778-1.95V36.585h3.342v20.113h-3.296
		l-0.046-1.503C37.366,56.618,35.605,57.185,33.212,57.185"/>
	<path clip-path="url(#SVGID_2_)" fill="#FFFFFF" d="M59.102,40.446c-1.807-1.22-3.34-1.788-4.83-1.788
		c-3.748,0-6.006,3.047-6.006,8.086c0,4.835,2.304,7.801,6.05,7.801c1.626,0,3.207-0.608,4.877-1.95l1.038,2.52
		c-2.349,1.463-4.154,2.032-6.457,2.032c-5.598,0-9.073-3.942-9.073-10.321c0-6.542,3.521-10.728,9.073-10.728
		c2.213,0,4.154,0.61,6.367,1.992L59.102,40.446z"/>
	<path clip-path="url(#SVGID_2_)" fill="#FFFFFF" d="M61.604,27.483l3.297-0.489v15.279c0,0.976,0,1.098-0.045,1.665
		c0.271-0.607,0.586-0.934,1.038-1.299l6.546-6.054h4.02l-8.669,8.126l11.423,11.986h-4.38l-8.805-9.427
		c-0.405-0.446-0.767-1.016-1.219-1.788c0.091,0.895,0.091,1.504,0.091,2.316v8.898h-3.297V27.483z"/>
	<path clip-path="url(#SVGID_2_)" fill="#FFFFFF" d="M28.417,66.903l-2.198-6.7h0.945l1.044,3.301
		c0.278,0.904,0.527,1.729,0.716,2.505h0.02c0.189-0.775,0.457-1.62,0.766-2.495l1.133-3.311h0.925l-2.397,6.7H28.417z"/>
	<path clip-path="url(#SVGID_2_)" fill="#FFFFFF" d="M35.765,64.02c0.01-0.547-0.228-1.422-1.203-1.422
		c-0.895,0-1.273,0.815-1.342,1.422H35.765z M33.209,64.646c0.02,1.184,0.765,1.671,1.641,1.671c0.626,0,1.014-0.11,1.332-0.239
		l0.159,0.617c-0.308,0.139-0.845,0.308-1.611,0.308c-1.472,0-2.366-0.984-2.366-2.426c0-1.462,0.865-2.604,2.267-2.604
		c1.571,0,1.978,1.382,1.978,2.266c0,0.18-0.009,0.319-0.029,0.418L33.209,64.646z"/>
	<path clip-path="url(#SVGID_2_)" fill="#FFFFFF" d="M37.953,63.592c0-0.567-0.01-1.054-0.04-1.502h0.766l0.039,0.945h0.031
		c0.218-0.646,0.755-1.054,1.342-1.054c0.089,0,0.159,0.01,0.238,0.029v0.815c-0.099-0.01-0.188-0.021-0.308-0.021
		c-0.616,0-1.054,0.469-1.173,1.114c-0.02,0.129-0.03,0.269-0.03,0.417v2.566h-0.875L37.953,63.592z"/>
	<path clip-path="url(#SVGID_2_)" fill="#FFFFFF" d="M41.443,63.393c0-0.507-0.02-0.904-0.04-1.303h0.765l0.04,0.776h0.03
		c0.269-0.457,0.716-0.886,1.521-0.886c0.646,0,1.144,0.398,1.353,0.966h0.02c0.149-0.279,0.348-0.478,0.547-0.627
		c0.288-0.22,0.597-0.339,1.055-0.339c0.646,0,1.591,0.418,1.591,2.089v2.834h-0.856v-2.725c0-0.935-0.348-1.481-1.044-1.481
		c-0.507,0-0.885,0.367-1.043,0.785c-0.041,0.13-0.069,0.288-0.069,0.438v2.983h-0.856v-2.885c0-0.774-0.338-1.321-1.004-1.321
		c-0.536,0-0.944,0.438-1.083,0.875c-0.05,0.13-0.07,0.277-0.07,0.428v2.903h-0.855V63.393z"/>
	<path clip-path="url(#SVGID_2_)" fill="#FFFFFF" d="M53.037,64.02c0.01-0.547-0.229-1.422-1.203-1.422
		c-0.896,0-1.273,0.815-1.344,1.422H53.037z M50.48,64.646c0.021,1.184,0.767,1.671,1.642,1.671c0.627,0,1.014-0.11,1.332-0.239
		l0.159,0.617c-0.308,0.139-0.846,0.308-1.61,0.308c-1.473,0-2.367-0.984-2.367-2.426c0-1.462,0.866-2.604,2.267-2.604
		c1.572,0,1.979,1.382,1.979,2.266c0,0.18-0.01,0.319-0.03,0.418L50.48,64.646z"/>
	<path clip-path="url(#SVGID_2_)" fill="#FFFFFF" d="M55.095,66.018c0.268,0.159,0.726,0.338,1.163,0.338
		c0.627,0,0.925-0.308,0.925-0.716c0-0.418-0.249-0.646-0.885-0.884c-0.875-0.319-1.282-0.786-1.282-1.363
		c0-0.774,0.636-1.412,1.66-1.412c0.486,0,0.914,0.13,1.174,0.3l-0.209,0.626c-0.19-0.109-0.538-0.279-0.985-0.279
		c-0.517,0-0.795,0.298-0.795,0.657c0,0.406,0.278,0.586,0.905,0.824c0.824,0.31,1.262,0.726,1.262,1.452
		c0,0.855-0.666,1.451-1.79,1.451c-0.525,0-1.014-0.139-1.352-0.338L55.095,66.018z"/>
	<path clip-path="url(#SVGID_2_)" fill="#FFFFFF" d="M59.281,66.018c0.268,0.159,0.726,0.338,1.163,0.338
		c0.627,0,0.925-0.308,0.925-0.716c0-0.418-0.248-0.646-0.885-0.884c-0.875-0.319-1.282-0.786-1.282-1.363
		c0-0.774,0.636-1.412,1.66-1.412c0.486,0,0.915,0.13,1.173,0.3l-0.208,0.626c-0.19-0.109-0.538-0.279-0.985-0.279
		c-0.517,0-0.795,0.298-0.795,0.657c0,0.406,0.278,0.586,0.905,0.824c0.825,0.31,1.262,0.726,1.262,1.452
		c0,0.855-0.666,1.451-1.79,1.451c-0.525,0-1.014-0.139-1.352-0.338L59.281,66.018z"/>
	<path clip-path="url(#SVGID_2_)" fill="#FFFFFF" d="M67.613,65.591c0,0.497,0.01,0.934,0.04,1.312h-0.775l-0.051-0.784h-0.019
		c-0.219,0.388-0.736,0.894-1.592,0.894c-0.755,0-1.66-0.427-1.66-2.107V62.09h0.875v2.655c0,0.915,0.288,1.542,1.074,1.542
		c0.586,0,0.993-0.408,1.152-0.806c0.051-0.12,0.08-0.278,0.08-0.448V62.09h0.875V65.591z"/>
	<path clip-path="url(#SVGID_2_)" fill="#FFFFFF" d="M69.313,63.393c0-0.507-0.01-0.904-0.04-1.303h0.775l0.05,0.786h0.021
		c0.237-0.447,0.795-0.896,1.59-0.896c0.667,0,1.701,0.398,1.701,2.049v2.874h-0.875v-2.774c0-0.776-0.289-1.432-1.114-1.432
		c-0.567,0-1.016,0.407-1.173,0.895c-0.04,0.11-0.061,0.269-0.061,0.408v2.903h-0.875V63.393z"/>
	<path clip-path="url(#SVGID_2_)" fill="#FFFFFF" d="M78.322,63.98c0-0.14-0.01-0.269-0.05-0.388
		c-0.158-0.518-0.577-0.936-1.222-0.936c-0.836,0-1.433,0.706-1.433,1.83c0,0.935,0.486,1.73,1.421,1.73
		c0.548,0,1.034-0.338,1.214-0.905c0.049-0.139,0.069-0.308,0.069-0.467V63.98z M79.197,66.197c0,1.114-0.229,1.78-0.686,2.207
		c-0.479,0.429-1.153,0.577-1.76,0.577c-0.577,0-1.214-0.139-1.602-0.396l0.219-0.678c0.318,0.209,0.815,0.389,1.412,0.389
		c0.895,0,1.551-0.468,1.551-1.69v-0.527h-0.02c-0.258,0.447-0.785,0.806-1.531,0.806c-1.193,0-2.049-1.015-2.049-2.357
		c0-1.63,1.065-2.545,2.178-2.545c0.835,0,1.282,0.428,1.501,0.825h0.021l0.03-0.716h0.775c-0.03,0.339-0.04,0.726-0.04,1.313
		V66.197z"/>
</g>
</svg>
