<svg xmlns="http://www.w3.org/2000/svg" viewBox="0 0 238.54 83.94"><defs><style>.cls-1{fill:#53606a;}.cls-2{fill:#0071bb;}</style></defs><title>Logo_ZF_RGB</title><g id="Ebene_1" data-name="Ebene 1"><polygon class="cls-1" points="7.34 79.38 20.86 66.16 20.86 62.81 0.86 62.85 0.86 66.64 13.75 66.63 0 79.94 0.01 83.19 20.95 83.14 20.93 79.36 7.34 79.38"/><path class="cls-1" d="M37.08,73c-7.51-.08-10.28,3.68-10.26,8.66s4.58,8.11,10.39,7.85c7.7-.34,10-3.36,10-8.16C47.31,74.93,42.22,73,37.08,73Zm0,13c-3.49,0-5.25-2-5.23-4.75A4.63,4.63,0,0,1,37,76.46C40,76.54,42,78.22,42,81.1,42.07,83.62,40.63,86,37.11,86Z" transform="translate(-5.83 -5.56)"/><polygon class="cls-1" points="42.53 62.54 42.55 83.23 47.14 83.23 47.12 62.54 42.53 62.54"/><path class="cls-1" d="M71.85,72.82c-6.76,0-10.09,3.77-10.09,8.33,0,5.18,4.18,8.28,11.36,8.18,2.76,0,6.85-1.37,8.7-5H76.46c0,.33-.82,1.54-3.08,2-3.44.67-6-1.44-6.21-4h15C82.2,76.83,79.92,72.82,71.85,72.82Zm-4.69,6.71c.25-2.11,1.86-3.71,5-3.71s4.43,1.72,4.6,3.71Z" transform="translate(-5.83 -5.56)"/><path class="cls-1" d="M93.07,77.4a13,13,0,0,1,3.16.42l0-4.62a5.82,5.82,0,0,0-1.4-.12c-2.74,0-4.14.66-6.39,3.2H88.1l0-2.87H83.35l0,15.29,5,0,0-5.87C88.17,80.18,89.33,77.4,93.07,77.4Z" transform="translate(-5.83 -5.56)"/><polygon class="cls-1" points="101 83.28 106.51 83.28 106.53 75 118.62 75 118.62 71.16 106.58 71.16 106.56 66.6 119.38 66.6 119.38 62.81 101 62.81 101 83.28"/><path class="cls-1" d="M171.3,73a7,7,0,0,0-6.19,2.77H165L165,68h-4.91l.07,20.76,4.91,0,0-7.3c0-1.94.82-4.79,5-4.51,2.94.19,3,2.49,3,4.34l0,7.53h4.89l0-10.62C177.83,76.7,177,73.21,171.3,73Z" transform="translate(-5.83 -5.56)"/><rect class="cls-1" x="181.3" y="67.76" width="4.73" height="15.44"/><polygon class="cls-1" points="181.23 62.37 181.31 65.96 186.03 65.96 185.96 62.37 181.23 62.37"/><path class="cls-1" d="M202.92,85.7c-3.08-.17-4.36-2-4.36-4.83s1.49-4.16,4.38-4.55a4.3,4.3,0,0,1,5,2.77l5,0c-1-6.92-9-6.23-10.9-6.23-5.51,0-8.67,3.57-8.67,7.94,0,4.6,3.13,8.64,9.14,8.58,6.88-.07,10-2.17,10.5-6.75l-5,0C206.92,85.94,204.22,85.77,202.92,85.7Z" transform="translate(-5.83 -5.56)"/><path class="cls-1" d="M225.53,73.18c-2.4,0-5.26.51-6.71,2.82h-.07V68.16l-4.9-.21V88.84l4.9,0V81.66c0-3.15,1.61-4.6,4.93-4.6,2.94,0,3,2.49,3,4.34l0,7.51,4.85,0,0-9.77C231.52,75.71,229.71,73.18,225.53,73.18Z" transform="translate(-5.83 -5.56)"/><rect class="cls-1" x="136.23" y="62.54" width="4.89" height="3.24"/><rect class="cls-1" x="144.52" y="62.54" width="4.89" height="3.24"/><polygon class="cls-1" points="174.22 83.15 178.81 83.15 178.84 62.37 174.26 62.37 174.22 83.15"/><polygon class="cls-1" points="49.83 62.51 49.86 83.21 54.44 83.21 54.42 62.51 49.83 62.51"/><path class="cls-1" d="M148.83,72.72c-5.2-.06-8.12,1.72-9.42,4.48V73.26a5.8,5.8,0,0,0-1.4-.12c-2.74,0-4.14.66-6.39,3.2h-.31l0-2.87h-4.72l0,15.29,5,0,0-5.87c-.23-2.66.93-5.44,4.66-5.44a15.9,15.9,0,0,1,2.9.34,10.14,10.14,0,0,0-.59,3.58c0,5,4.58,8.11,10.39,7.85,7.7-.34,10-3.36,10-8.16C159.06,74.68,154,72.78,148.83,72.72Zm0,13c-3.49,0-5.25-2-5.23-4.75a4.63,4.63,0,0,1,5.09-4.75c3,.08,5.06,1.76,5.09,4.64C153.82,83.37,152.38,85.71,148.86,85.71Z" transform="translate(-5.83 -5.56)"/><polygon class="cls-1" points="93.29 70.85 92.49 70.85 92.52 75.64 86.69 75.64 86.69 76.55 92.52 76.55 92.52 81.58 93.27 81.58 93.27 76.55 98.94 76.55 98.94 75.61 93.29 75.61 93.29 70.85"/></g><g id="Ebene_2" data-name="Ebene 2"><polygon class="cls-2" points="108.08 15.78 108.08 0 1.02 0 1.02 16.11 59.26 16.11 0.99 39.55 0.99 55.4 108.08 55.4 108.08 39.4 49.77 39.4 108.08 15.78"/><polygon class="cls-2" points="121.49 55.39 140.47 55.39 140.47 39.41 226.73 39.42 226.73 24.78 140.47 24.71 140.47 16.01 226.73 16.01 226.73 0 121.49 0 121.49 55.39"/><polygon class="cls-2" points="108.5 18.06 106.41 18.06 106.41 27.68 97.12 27.68 97.12 29.78 106.41 29.78 106.41 38.37 108.5 38.37 108.5 29.78 117.78 29.78 117.78 27.68 108.5 27.68 108.5 18.06"/><path class="cls-2" d="M239.9,5.56A4.32,4.32,0,0,0,235.41,10a4.48,4.48,0,0,0,9,0A4.31,4.31,0,0,0,239.9,5.56Zm0,7.91h0A3.2,3.2,0,0,1,236.71,10a3.2,3.2,0,1,1,6.38,0A3.25,3.25,0,0,1,239.9,13.46Z" transform="translate(-5.83 -5.56)"/><path class="cls-2" d="M241.9,9.07c0-1.1-.73-1.45-2-1.45h-1.8v4.8h1v-2h.48l1.11,2H242l-1.22-2.1A1.13,1.13,0,0,0,241.9,9.07Zm-1.83.52h-.91V8.43h.72c.39,0,.92,0,.92.54S240.53,9.59,240.07,9.59Z" transform="translate(-5.83 -5.56)"/></g></svg>