<?xml version="1.0" encoding="UTF-8" standalone="no"?>
<svg
   xmlns:dc="http://purl.org/dc/elements/1.1/"
   xmlns:cc="http://creativecommons.org/ns#"
   xmlns:rdf="http://www.w3.org/1999/02/22-rdf-syntax-ns#"
   xmlns:svg="http://www.w3.org/2000/svg"
   xmlns="http://www.w3.org/2000/svg"
   id="svg8"
   version="1.1"
   viewBox="0 0 250 80"
   height="80mm"
   width="250mm">
  <defs
     id="defs2" />
  <metadata
     id="metadata5">
    <rdf:RDF>
      <cc:Work
         rdf:about="">
        <dc:format>image/svg+xml</dc:format>
        <dc:type
           rdf:resource="http://purl.org/dc/dcmitype/StillImage" />
        <dc:title></dc:title>
      </cc:Work>
    </rdf:RDF>
  </metadata>
  <g
     transform="translate(0,-217)"
     id="layer1">
    <path
       id="path3724"
       d="m 207.00106,296.92967 c -0.75902,-0.12272 -1.47266,-0.3715 -2.07015,-0.72165 -0.57669,-0.33795 -1.52654,-1.34576 -1.44982,-1.53825 0.0626,-0.15692 1.85849,-1.54456 1.99905,-1.54456 0.0465,0 0.2945,0.16995 0.55102,0.37769 0.71176,0.57638 1.17926,0.77064 1.97603,0.82108 0.84968,0.0538 1.48809,-0.1957 1.54624,-0.60427 0.0512,-0.36016 -0.29822,-0.53354 -1.87455,-0.92992 -0.76569,-0.19253 -1.66145,-0.48195 -1.99059,-0.6431 -1.25379,-0.61392 -1.9232,-1.80923 -1.78009,-3.17854 0.13622,-1.30321 0.89636,-2.32566 2.17324,-2.9232 0.64317,-0.30097 0.89162,-0.3518 1.92792,-0.3945 1.32826,-0.0548 2.07802,0.0674 2.9518,0.48075 0.67124,0.31756 1.52255,1.05542 1.52255,1.31967 0,0.0982 -0.43232,0.53463 -0.9607,0.97011 l -0.96068,0.79175 -0.33947,-0.28563 c -0.59737,-0.50264 -1.00083,-0.65267 -1.7779,-0.66112 -0.78538,-0.008 -1.10822,0.13906 -1.10822,0.50663 0,0.32555 0.41923,0.52345 1.74097,0.82182 1.4842,0.33504 2.00982,0.51441 2.60106,0.88767 0.93568,0.59066 1.36554,1.45023 1.36195,2.72345 -0.005,1.71525 -0.91295,2.9039 -2.67091,3.49611 -0.8011,0.26988 -2.42853,0.38003 -3.36875,0.22801 z m -51.95174,-0.18378 c -0.0426,-0.0426 -0.0775,-1.89681 -0.0775,-4.12045 0,-2.99536 -0.0348,-4.07777 -0.13427,-4.17727 -0.0894,-0.0892 -0.57767,-0.13426 -1.45825,-0.13426 h -1.32397 l 0.0316,-1.25877 0.0316,-1.25877 4.46261,-0.0293 c 3.26273,-0.0214 4.50471,0.006 4.61922,0.10066 0.11949,0.0991 0.14911,0.39793 0.12492,1.26007 l -0.0317,1.13008 -1.39865,0.056 -1.39863,0.056 -0.0559,4.19591 -0.056,4.1959 -1.62888,0.0308 c -0.89587,0.017 -1.66373,-0.004 -1.70634,-0.0466 z m 6.9282,-0.10393 c -0.0376,-0.0981 -0.0685,-2.53063 -0.0685,-5.40565 0,-3.91652 0.0337,-5.26101 0.13427,-5.36162 0.19251,-0.1925 8.04265,-0.1925 8.23516,0 0.14054,0.14056 0.19369,2.04227 0.0663,2.37412 -0.0591,0.15373 -0.38103,0.177 -2.44961,0.177 -2.62646,0 -2.51755,-0.0315 -2.51755,0.72729 0,0.73331 -0.0135,0.72728 1.62242,0.72728 1.25235,0 1.49728,0.0279 1.55449,0.17699 0.12735,0.33186 0.0742,2.23357 -0.0664,2.37413 -0.0904,0.0902 -0.59907,0.13426 -1.5545,0.13426 -1.57284,0 -1.55758,-0.007 -1.55436,0.76442 0.003,0.75442 -0.0438,0.7402 2.65142,0.80205 l 2.43789,0.0559 v 1.28674 1.28674 l -4.21137,0.0293 c -3.76751,0.0262 -4.21862,0.0106 -4.27984,-0.14902 z m 9.4692,-5.33497 0.029,-5.51062 3.24481,3.4e-4 c 3.04883,2.3e-4 3.29307,0.0154 4.04319,0.25106 1.5282,0.48007 2.32779,1.52761 2.32185,3.04197 -0.004,1.06798 -0.54143,1.97788 -1.50334,2.54609 -0.18157,0.10726 -0.33011,0.23803 -0.33011,0.29063 0,0.0526 0.4028,1.08944 0.89512,2.30411 0.49233,1.21466 0.89513,2.29488 0.89513,2.40049 0,0.17499 -0.16592,0.1893 -1.87214,0.16134 l -1.87213,-0.0307 -0.71149,-2.06964 c -0.39134,-1.13831 -0.76987,-2.10809 -0.84122,-2.15508 -0.0714,-0.0469 -0.28077,-0.0723 -0.4654,-0.0563 l -0.33567,0.0291 -0.0623,2.12592 c -0.0343,1.16925 -0.072,2.13851 -0.084,2.1539 -0.012,0.0154 -0.77744,0.028 -1.70113,0.028 h -1.6794 l 0.029,-5.51062 z m 5.7265,-1.64191 c 0.36288,-0.34099 0.36785,-0.72272 0.0141,-1.07653 -0.2511,-0.2511 -0.36136,-0.27464 -1.28674,-0.27464 h -1.01212 v 0.76459 c 0,0.42053 0.0379,0.80265 0.084,0.84917 0.0461,0.0466 0.49528,0.0675 0.99806,0.0466 0.78385,-0.0326 0.95531,-0.0767 1.20284,-0.30922 z m 5.1524,7.01567 c -0.0301,-0.0786 -0.0416,-2.55972 -0.0255,-5.51363 l 0.0291,-5.37075 3.30077,0.002 c 2.8047,0.002 3.39535,0.0307 3.93005,0.19484 1.86497,0.57223 2.79961,2.17216 2.291,3.92171 -0.18589,0.6394 -0.58347,1.14067 -1.39279,1.75596 l -0.36793,0.27972 0.95682,2.33552 c 0.52624,1.28453 0.92952,2.37966 0.89617,2.43361 -0.0333,0.0539 -0.88483,0.0981 -1.8922,0.0981 h -1.83154 l -0.21354,-0.58742 c -0.11742,-0.32308 -0.45418,-1.28026 -0.74831,-2.12706 -0.55773,-1.60558 -0.66379,-1.74328 -1.25524,-1.62981 -0.18731,0.036 -0.20939,0.21922 -0.2606,2.16381 l -0.056,2.12453 -1.65276,0.0309 c -1.26049,0.0236 -1.66573,-0.003 -1.70749,-0.11189 z m 5.53412,-6.85216 c 0.54626,-0.2825 0.62577,-0.91698 0.16074,-1.28277 -0.24789,-0.19501 -0.45265,-0.23191 -1.28673,-0.23191 h -0.99193 v 0.76459 c 0,0.42053 0.0335,0.79815 0.0746,0.83918 0.14587,0.14588 1.72179,0.0771 2.04331,-0.0891 z m 4.59553,6.79315 c 0,-0.21687 3.3877,-10.29728 3.58358,-10.6633 0.1076,-0.20105 0.2448,-0.21788 1.76314,-0.2163 0.90554,10e-4 1.70371,0.0388 1.77369,0.084 0.14137,0.0914 3.73436,10.48346 3.73353,10.79859 0,0.18316 -0.13805,0.19625 -1.76278,0.16784 l -1.76224,-0.0308 -0.27977,-0.86346 c -0.15387,-0.4749 -0.33411,-0.91694 -0.40052,-0.98233 -0.0768,-0.0755 -0.68216,-0.10747 -1.65982,-0.0876 l -1.53905,0.0312 -0.35423,0.95105 -0.3542,0.95108 -1.37067,0.0314 c -1.26028,0.0289 -1.37066,0.0151 -1.37066,-0.17135 z m 5.75073,-4.5966 c 0.095,-0.15377 -0.51916,-2.0423 -0.65044,-2.00004 -0.12975,0.0418 -0.71785,1.5712 -0.72953,1.89729 -0.006,0.1653 0.0965,0.19581 0.65773,0.19581 0.3656,0 0.69062,-0.0419 0.72224,-0.0931 z m 15.23694,4.6938 c -0.0761,-0.12302 3.43755,-10.58084 3.63474,-10.81844 0.17987,-0.21671 3.37659,-0.23496 3.54342,-0.0202 0.18494,0.23804 3.72913,10.72502 3.66159,10.83432 -0.10041,0.16239 -3.37516,0.13128 -3.48449,-0.0331 -0.0498,-0.0748 -0.2164,-0.51544 -0.37026,-0.97904 l -0.27973,-0.84292 -1.55759,-0.0312 c -0.99922,-0.0201 -1.60087,0.0117 -1.67835,0.0886 -0.0664,0.0659 -0.25082,0.50799 -0.40976,0.98232 l -0.28901,0.86243 -1.35271,0.0313 c -0.76282,0.0177 -1.3811,-0.0146 -1.41785,-0.0741 z m 5.75272,-4.79655 c -0.003,-0.32241 -0.52565,-1.8634 -0.64628,-1.90361 -0.12373,-0.0413 -0.82371,1.93332 -0.72158,2.03545 0.0352,0.0352 0.35768,0.064 0.71666,0.064 0.5476,0 0.65244,-0.0316 0.6512,-0.19581 z m 6.76872,4.75836 c -0.0294,-0.0786 -0.0661,-1.98068 -0.0817,-4.22687 l -0.0282,-4.08403 -1.39865,-0.056 -1.39862,-0.0559 -0.0316,-1.13009 c -0.0242,-0.86214 0.005,-1.1609 0.1249,-1.26007 0.11453,-0.0949 1.35652,-0.12211 4.61923,-0.10066 l 4.46261,0.0293 0.0317,1.25877 0.0316,1.25877 h -1.33263 c -0.97599,0 -1.36589,0.0401 -1.45683,0.14963 -0.0848,0.10209 -0.13352,1.44417 -0.15357,4.22387 l -0.0294,4.07425 -1.65275,0.0309 c -1.26105,0.0236 -1.66542,-0.003 -1.70615,-0.11189 z M 0.0031545,291.72657 v -1.17501 l 73.1485855,0.0281 73.14859,0.0281 v 1.11891 1.11893 l -73.14859,0.0281 -73.1485855,0.0281 z m 5.3318817,-18.81786 c -0.1132268,-0.11323 -0.087246,-14.91719 0.026168,-14.91719 0.054553,0 0.3775283,0.33986 0.7177186,0.75526 2.478961,3.02699 6.3871422,5.63017 10.2043222,6.79696 0.738481,0.22572 1.405632,0.42987 1.482556,0.45365 0.07692,0.0238 0.139863,0.0848 0.139863,0.1354 0,0.0507 -2.504958,1.44914 -5.566566,3.10767 -7.1931987,3.89667 -6.9191682,3.75315 -7.0040778,3.66825 z M 178.09729,267.05462 c -2.53371,-0.31504 -4.57883,-1.53793 -6.42522,-3.84201 -0.33722,-0.42078 -0.6534,-0.72289 -0.70265,-0.67134 -0.0493,0.0515 -0.46657,1.00003 -0.92739,2.10774 l -0.83783,2.01404 h -2.61256 -2.61256 l -0.0283,-21.86284 c -0.0208,-16.06692 0.005,-21.90306 0.0976,-22.0145 0.10229,-0.12327 1.01243,-0.15168 4.85839,-0.15168 2.60287,0 4.81214,0.0306 4.90948,0.068 0.15888,0.061 0.17699,0.8094 0.17699,7.3102 0,3.98325 0.0288,7.27108 0.064,7.30628 0.0353,0.0352 0.39235,-0.1845 0.79364,-0.48824 0.90327,-0.68368 1.53854,-1.00916 2.86417,-1.46754 0.96519,-0.33372 1.13347,-0.35726 2.54407,-0.35574 2.12029,0.002 3.50887,0.42435 5.07667,1.54309 2.87216,2.04953 4.75005,5.99867 5.32751,11.20351 0.1716,1.54682 0.13816,4.88009 -0.0648,6.45143 -0.88045,6.81807 -4.05474,11.4387 -8.66527,12.61352 -1.01132,0.25769 -2.78478,0.36688 -3.83601,0.23616 z m 0.48711,-6.55593 c 0.7996,-0.46843 1.30467,-1.4493 1.58826,-3.08443 0.10397,-0.59944 0.14189,-2.49925 0.14033,-7.03131 -0.002,-5.3686 -0.0274,-6.32593 -0.18828,-7.06599 -0.45401,-2.0876 -1.34642,-2.88768 -3.06843,-2.75095 -0.81853,0.065 -1.75525,0.52457 -2.54264,1.24747 l -0.52745,0.48426 0.0316,8.04271 c 0.0296,7.53951 0.0444,8.07024 0.23756,8.48314 0.43334,0.9264 1.01121,1.46153 1.96267,1.81752 0.56735,0.21227 1.89771,0.1322 2.36646,-0.14242 z m -111.474415,-11.48536 -0.02831,-17.70777 -4.923196,-0.056 -4.923196,-0.056 -0.02934,-4.18843 c -0.02295,-3.27645 0.0015,-4.20798 0.11189,-4.27812 0.07769,-0.0494 7.016654,-0.0904 15.419933,-0.0914 11.736149,-0.001 15.309812,0.0294 15.412951,0.13255 0.192553,0.19255 0.192553,8.15451 0,8.34705 -0.100302,0.10031 -1.360016,0.13427 -4.978795,0.13427 h -4.844523 l -0.02831,17.70672 -0.02831,17.70671 -5.566217,0.029 -5.566222,0.029 z m 16.63955,17.56696 c -0.02951,-0.0775 -0.04074,-7.03909 -0.02492,-15.47006 l 0.02877,-15.32904 h 4.867248 4.867248 l 0.03038,2.1539 c 0.0167,1.18465 0.06707,2.15371 0.111889,2.15348 0.04486,-2.2e-4 0.25692,-0.34009 0.47132,-0.75526 0.94632,-1.83249 3.010206,-3.28108 5.630424,-3.95185 1.023126,-0.26191 3.084186,-0.51195 3.357026,-0.40726 0.17402,0.0668 0.18941,0.47819 0.18941,5.06838 0,4.70519 -0.0114,4.99234 -0.19582,4.93801 -2.24347,-0.66107 -2.41015,-0.6894 -4.056045,-0.68954 -2.444671,-2.2e-4 -3.708624,0.4445 -4.755353,1.67311 l -0.447564,0.52534 -0.05595,10.08678 -0.05594,10.08677 -4.954233,0.0291 c -3.903707,0.0229 -4.965612,-5.2e-4 -5.007902,-0.11191 z m 22.214185,-15.35817 v -15.49917 l 5.00709,0.0291 5.00712,0.0291 v 15.44092 15.44093 l -5.00712,0.0291 -5.00709,0.0291 z m 13.42687,0 v -15.49687 h 4.97914 4.97915 l 0.002,1.81823 c 0.002,2.02983 0.0847,2.35339 0.46471,1.81822 0.55131,-0.77625 2.42316,-2.4788 3.28554,-2.98839 0.98074,-0.57952 2.50619,-1.13057 3.63283,-1.31229 3.68231,-0.59396 7.03885,1.13729 7.77125,4.0083 0.0724,0.2839 0.18302,0.51616 0.24578,0.51616 0.0628,0 0.36592,-0.3021 0.67369,-0.67134 1.37219,-1.64625 3.00725,-2.80935 4.77198,-3.39452 1.43031,-0.47429 2.46911,-0.61777 3.93632,-0.54368 2.07811,0.10493 3.58381,0.71292 4.73531,1.91207 0.77621,0.80836 1.18272,1.55613 1.48193,2.7261 0.208,0.81321 0.21648,1.36063 0.21648,13.97561 l 3e-5,13.12928 h -4.97914 -4.97913 l -0.002,-10.93733 c -0.001,-6.01553 -0.0482,-11.25496 -0.10432,-11.64319 -0.19337,-1.33713 -0.79002,-1.96665 -1.99982,-2.10994 -1.14275,-0.13534 -2.13563,0.31783 -2.9956,1.36727 l -0.43662,0.5328 -0.056,11.3672 -0.056,11.36724 h -4.97914 -4.97913 l -0.056,-11.52475 c -0.0596,-12.26063 -0.0406,-11.8631 -0.59488,-12.45848 -0.43618,-0.46847 -0.8616,-0.61995 -1.75482,-0.62486 -1.03582,-0.006 -1.68306,0.26162 -2.38685,0.98577 -0.93018,0.95708 -0.85799,-0.093 -0.85799,12.47812 l -1e-5,11.20015 h -4.97913 -4.97914 z m 74.09939,-6.51765 0.0283,-22.01449 h 4.9232 4.92319 l 0.0283,22.01449 0.0283,22.01453 h -4.97968 -4.97972 z M 21.262398,266.53201 c -2.048045,-0.20543 -2.798076,-0.34616 -2.795226,-0.52446 10e-4,-0.0703 0.806317,-0.55571 1.789326,-1.07882 0.983009,-0.52308 1.771357,-1.00011 1.751877,-1.06007 -0.01945,-0.06 -0.610682,-0.17284 -1.313792,-0.25088 -4.960902,-0.55066 -9.555026,-3.07363 -12.7047577,-6.97712 l -0.6578275,-0.81525 0.012694,-0.90301 c 0.014515,-1.03424 0.3304251,-2.10074 1.0405844,-3.51317 0.4482094,-0.89145 1.5416093,-2.57208 2.1174668,-3.25472 l 0.32245,-0.38223 1.498236,1.51112 c 2.172083,2.19074 3.865109,3.40745 6.533321,4.69528 2.245958,1.08399 4.723837,1.81854 7.14003,2.11654 1.704572,0.21026 4.858596,0.0779 6.398755,-0.26849 1.385019,-0.3115 2.930951,-0.83541 3.885008,-1.31661 0.352104,-0.17759 0.696555,-0.3229 0.765456,-0.3229 0.08338,0 0.114007,0.25251 0.09159,0.75528 -0.02748,0.61549 -0.0036,0.7486 0.129672,0.71931 0.08985,-0.0198 1.415137,-0.71209 2.945098,-1.53849 1.529955,-0.8264 2.850932,-1.50256 2.9355,-1.50256 0.12169,0 0.108153,0.11569 -0.0649,0.55474 -0.38372,0.97351 -1.188913,2.4914 -1.87217,3.52926 -3.654535,5.5513 -9.669261,9.15973 -16.311934,9.78609 -1.164211,0.10978 -2.771007,0.12797 -3.636451,0.0412 z m 5.398904,-3.16254 c 2.314262,-0.46386 4.681843,-1.44333 6.626978,-2.74162 1.3383,-0.89324 2.967478,-2.23011 2.967478,-2.43507 0,-0.0703 0.122087,-0.43382 0.271304,-0.80788 0.397028,-0.9953 0.457865,-1.29552 0.262532,-1.29552 -0.187523,0 -13.69559,7.29445 -13.888118,7.49968 -0.191972,0.20463 2.397953,0.0535 3.759826,-0.21959 z m 191.640728,3.12204 c -3.04428,-0.3203 -5.76397,-1.58788 -7.77878,-3.62551 -2.12211,-2.14612 -3.43417,-4.90198 -4.15862,-8.73471 -0.23229,-1.22895 -0.32208,-5.08008 -0.15288,-6.55697 0.77129,-6.73226 4.26622,-11.4855 9.57274,-13.01945 1.41865,-0.41008 2.74585,-0.54473 4.72051,-0.47893 2.11857,0.0706 3.43687,0.36935 5.00599,1.13445 4.76216,2.32195 7.33684,7.74873 7.33684,15.46414 v 1.83434 h -8.26623 c -6.919,0 -8.28723,0.0253 -8.39524,0.15547 -0.16218,0.19542 0.006,2.15284 0.28206,3.27503 0.5753,2.34199 1.86624,3.70925 3.68744,3.90545 2.19123,0.23604 4.40843,-1.2198 5.24835,-3.44616 0.10996,-0.29144 0.25628,-0.57616 0.32517,-0.63274 0.1242,-0.10196 6.37291,2.10662 6.59848,2.33222 0.0664,0.0664 -0.0683,0.46854 -0.36223,1.08111 -1.5357,3.20052 -4.07539,5.50069 -7.32822,6.6371 -1.77403,0.61978 -4.30159,0.88914 -6.33538,0.67516 z m 5.18327,-21.05784 c -0.034,-1.88335 -0.43866,-3.26603 -1.19827,-4.09415 -0.55047,-0.60009 -1.15805,-0.89179 -2.0522,-0.98525 -2.23979,-0.2341 -3.68014,1.48125 -4.05321,4.82709 -0.0908,0.81407 -0.0889,1.12898 0.007,1.24502 0.10604,0.12778 0.76655,0.15011 3.72242,0.12584 l 3.59353,-0.0295 z M 4.694876,256.95653 c -0.7454009,-1.02814 -1.7978524,-3.06423 -2.4146689,-4.67145 -0.3943948,-1.02766 -0.9978304,-3.44484 -1.1731852,-4.69941 -0.083901,-0.6003 -0.14554975,-1.98829 -0.14162708,-3.18888 0.005983,-1.83435 0.0485913,-2.34078 0.31058798,-3.6924 0.3808683,-1.96482 1.0059829,-3.85606 1.8597931,-5.62665 0.6990417,-1.44964 1.8186466,-3.26866 2.0118407,-3.26866 0.074369,0 0.1144027,0.83535 0.1144027,2.387 0,1.31284 0.032255,2.41926 0.071685,2.4587 0.039435,0.0395 0.3705934,-0.46828 0.7359272,-1.12824 0.9755691,-1.76232 1.1698973,-1.90053 0.9699816,-0.68986 -0.179704,1.08827 -0.1453104,3.36618 0.07001,4.63691 0.2440795,1.44047 0.8938172,3.41881 1.5555311,4.73637 0.5121842,1.01983 0.5182242,1.04422 0.3217058,1.29782 -0.1101522,0.14217 -0.5089327,0.65694 -0.886175,1.14395 -0.9011059,1.1633 -1.5858824,2.23364 -2.1544926,3.36757 -0.2545886,0.50771 -0.5126784,0.92311 -0.5735318,0.92311 -0.07168,0 -0.1106412,-2.3248 -0.1106412,-6.60157 0,-3.71533 -0.042972,-6.60155 -0.098249,-6.60155 -0.2373111,0 -0.8656095,2.17642 -1.1922785,4.13004 -0.2633546,1.57497 -0.1776229,4.91812 0.1674992,6.53179 0.2934719,1.37217 0.7614922,2.87757 0.9667352,3.10954 0.1251512,0.14145 0.1562931,0.749 0.1562931,3.04902 0,1.82824 -0.040424,2.87238 -0.1111876,2.87238 -0.061155,0 -0.2663358,-0.21399 -0.4559558,-0.47553 z m 21.035147,-3.72373 c -3.891331,-0.60664 -7.443012,-2.28775 -10.493376,-4.96678 -0.802608,-0.70491 -2.366058,-2.45896 -2.366058,-2.65452 0,-0.28073 3.232436,-3.1054 4.984043,-4.35532 l 0.727349,-0.51903 0.865724,0.87875 c 1.152844,1.17019 2.184704,1.93083 3.604945,2.65745 2.149867,1.09989 3.981879,1.55704 6.20994,1.5496 1.580077,-0.005 2.730999,-0.21954 4.097884,-0.76287 0.53072,-0.21097 1.024831,-0.38356 1.098031,-0.38356 0.284903,0 1.654029,3.29589 2.152323,5.18128 l 0.260332,0.98502 -0.279727,0.21698 c -0.551036,0.42744 -2.424934,1.31932 -3.472365,1.65266 -2.067287,0.65792 -5.125254,0.87326 -7.389045,0.52034 z m 14.289682,-0.57779 c -0.168923,-0.16893 -0.05393,-0.68314 0.207736,-0.92896 0.379681,-0.3567 0.462718,-0.21774 0.231562,0.38755 -0.199088,0.52131 -0.315691,0.66502 -0.439298,0.54141 z m 3.508954,-0.5237 c 0,-0.0846 0.07779,-0.37408 0.172863,-0.64337 1.262652,-3.57623 1.430224,-8.24371 0.436602,-12.16069 -0.327866,-1.2925 -0.327871,-1.29254 -0.0685,-1.2247 0.28251,0.0739 12.45731,6.67023 12.646311,6.85181 0.126775,0.1218 0.07104,0.19264 -0.335669,0.42665 -0.935838,0.53846 -12.727834,6.90407 -12.789468,6.90407 -0.03418,0 -0.06215,-0.0693 -0.06215,-0.15377 z M 38.72496,247.0542 c -0.26204,-0.7231 -0.798326,-1.98766 -1.191743,-2.81015 -0.393422,-0.82247 -0.68037,-1.55256 -0.637657,-1.6224 0.04271,-0.0699 0.25118,-0.35359 0.463275,-0.63051 1.15494,-1.50801 1.738034,-3.76565 1.534248,-5.94038 l -0.07812,-0.83365 -3.090205,-1.67604 c -1.699619,-0.92182 -3.110423,-1.73899 -3.135124,-1.81592 -0.02778,-0.0866 0.06169,-0.13985 0.234986,-0.13985 0.384874,0 0.633875,-0.10873 0.633875,-0.27678 0,-0.2618 -1.726708,-1.51573 -2.853216,-2.07198 -0.615403,-0.30388 -1.49654,-0.65645 -1.95809,-0.78346 -0.961746,-0.2647 -2.573484,-0.42781 -2.573484,-0.26047 0,0.0601 1.334295,0.83052 2.965101,1.71222 1.630811,0.88171 2.965107,1.64473 2.965107,1.6956 0,0.0509 -0.138464,0.12365 -0.307701,0.16173 -0.169231,0.0382 -0.927441,0.22169 -1.684906,0.40803 l -1.377205,0.33877 -0.413046,-0.34986 c -0.991178,-0.83953 -3.095466,-2.38759 -3.981328,-2.92892 -0.529811,-0.32376 -0.963293,-0.62783 -0.963293,-0.67569 0,-0.11192 0.268783,-0.19515 1.163504,-0.36028 0.397761,-0.0734 0.726313,-0.18382 0.730111,-0.24537 0.0036,-0.0616 -0.681716,-0.48951 -1.523359,-0.95106 -0.841641,-0.46155 -1.548961,-0.89786 -1.571814,-0.96956 -0.02284,-0.0717 0.06192,-0.1632 0.188382,-0.20334 0.404642,-0.12844 0.24667,-0.29577 -0.245594,-0.26014 -0.411948,0.0298 -0.475538,0.0689 -0.475538,0.29227 0,0.20639 -0.167562,0.34759 -0.839181,0.70714 l -0.839181,0.44924 -0.920199,-0.29353 c -0.506112,-0.16143 -0.94797,-0.33846 -0.981912,-0.39338 -0.074,-0.11974 0.44398,-0.27531 1.763694,-0.52968 0.552077,-0.10641 0.964368,-0.23978 0.943589,-0.30522 -0.02029,-0.064 -0.776664,-0.51769 -1.680808,-1.00837 -0.904149,-0.49065 -1.627584,-0.94107 -1.607643,-1.00089 0.04938,-0.14814 0.452808,-0.2506 2.091663,-0.5312 1.764431,-0.30212 4.805728,-0.32268 6.624464,-0.0448 3.432173,0.52437 7.12591,2.06203 9.84512,4.09842 0.976173,0.73106 3.361156,3.02634 4.146158,3.99026 0.926406,1.13752 1.817612,2.52854 2.421286,3.77922 0.617098,1.27848 1.195994,2.8259 1.094978,2.92691 -0.03755,0.0376 -0.878924,-0.36951 -1.869643,-0.90463 -0.990718,-0.53514 -1.847671,-0.95732 -1.90433,-0.93817 -0.05667,0.0192 -0.02097,0.18585 0.07926,0.37048 0.100271,0.18462 0.298998,0.57034 0.441623,0.85717 1.414523,2.84459 1.38451,6.97105 -0.07157,9.83926 -0.323001,0.63626 -0.876606,1.44372 -0.98984,1.44372 -0.04854,0 -0.302669,-0.59163 -0.564712,-1.31473 z m -27.501221,-4.15025 c -0.193559,-0.1226 -0.811571,-1.68547 -1.113117,-2.81496 -0.4100651,-1.53593 -0.4841328,-3.8797 -0.1704388,-5.39337 0.4052098,-1.95525 1.2562588,-3.61488 2.5783848,-5.02808 l 0.822835,-0.87951 h 1.097443 c 1.124801,0 2.711933,0.23892 2.961173,0.44577 0.108483,0.0901 0.04255,0.30123 -0.295251,0.94592 -1.117029,2.13172 -1.235614,4.99914 -0.304714,7.3679 0.11577,0.29459 0.210496,0.59938 0.210496,0.67728 0,0.078 -0.298533,0.3522 -0.663409,0.60953 -1.027792,0.72481 -2.868361,2.21249 -3.990094,3.22507 -0.559376,0.50496 -1.069364,0.88495 -1.133308,0.84445 z m 15.856978,-0.0736 c -1.482712,-0.33014 -2.69178,-0.86102 -3.97212,-1.74414 -0.981293,-0.67684 -2.010956,-1.70513 -1.926859,-1.92426 0.166683,-0.43439 5.976625,-3.32485 6.683045,-3.32485 0.393686,0 3.154451,3.1685 4.559738,5.23316 0.746338,1.09652 0.748337,1.09125 -0.588447,1.54934 -0.778749,0.26686 -1.098779,0.31102 -2.461595,0.3397 -1.068974,0.0225 -1.797451,-0.0185 -2.293762,-0.12895 z m 7.076693,-4.21959 c -0.55512,-0.75626 -1.468576,-1.90077 -2.029903,-2.54334 -0.561326,-0.64258 -0.979279,-1.20965 -0.928773,-1.26015 0.217942,-0.21794 3.87165,-0.70995 4.235454,-0.57034 0.275216,0.1056 0.705295,1.73101 0.708026,2.67584 0.0031,1.05389 -0.521934,2.92549 -0.850568,3.03235 -0.06872,0.0223 -0.57912,-0.57811 -1.134236,-1.33436 z m -14.732252,-2.08779 c -0.198502,-0.32117 -0.400575,-1.54888 -0.400575,-2.43368 0,-1.45243 0.495187,-2.90124 1.213924,-3.5517 0.225996,-0.20452 0.245662,-0.19989 1.102531,0.26032 0.984226,0.52861 3.133266,1.9405 3.725648,2.44769 0.259291,0.22201 0.35381,0.37245 0.279726,0.44524 -0.06154,0.0605 -0.725262,0.38904 -1.474934,0.73021 -0.749672,0.34118 -1.997753,0.97559 -2.77351,1.40981 -1.445566,0.80916 -1.568926,0.86019 -1.67281,0.69211 z m 86.613142,-5.12418 c -0.0411,-0.0411 -0.0746,-2.05505 -0.0746,-4.47562 v -4.40104 h 4.96716 c 4.42619,0 4.97457,0.0193 5.03508,0.17699 0.0887,0.2311 0.0887,8.36619 0,8.59728 -0.0606,0.15766 -0.60232,0.17699 -4.96049,0.17699 -2.69091,0 -4.92613,-0.0336 -4.96716,-0.0746 z M 5.2620193,224.13429 v -7.11533 l 0.6993174,0.38323 c 0.3846246,0.21076 3.0028664,1.63034 5.8183183,3.15459 2.815453,1.52428 5.119002,2.8125 5.119002,2.86271 0,0.0502 -0.415394,0.22913 -0.923098,0.3976 -1.996587,0.66253 -4.200696,1.7722 -5.810005,2.9251 -1.2452755,0.89209 -2.9335895,2.43279 -3.8819028,3.54253 -0.4535157,0.53069 -0.8689078,0.9649 -0.9231022,0.9649 -0.055745,0 -0.09853,-3.08955 -0.09853,-7.11533 z"
       style="fill:#08397f;stroke-width:0.11189077" />
  </g>
</svg>
