<?xml version="1.0" encoding="UTF-8" standalone="no"?>
<svg
   xmlns:dc="http://purl.org/dc/elements/1.1/"
   xmlns:cc="http://creativecommons.org/ns#"
   xmlns:rdf="http://www.w3.org/1999/02/22-rdf-syntax-ns#"
   xmlns:svg="http://www.w3.org/2000/svg"
   xmlns="http://www.w3.org/2000/svg"
   id="svg8"
   version="1.1"
   viewBox="0 0 210 250"
   height="250mm"
   width="210mm">
  <defs
     id="defs2" />
  <metadata
     id="metadata5">
    <rdf:RDF>
      <cc:Work
         rdf:about="">
        <dc:format>image/svg+xml</dc:format>
        <dc:type
           rdf:resource="http://purl.org/dc/dcmitype/StillImage" />
        <dc:title></dc:title>
      </cc:Work>
    </rdf:RDF>
  </metadata>
  <g
     transform="translate(0,-47)"
     id="layer1">
    <g
       id="g18"
       transform="matrix(1.7575563,0,0,-1.7575563,-414.72458,907.65003)">
      <path
         d="m 251.48389,473.88818 h -2.61768 l -1.03955,2.70655 h -4.76123 l -0.98193,-2.70655 h -2.5503 l 4.63868,11.90967 h 2.54296 l 4.76905,-11.90967 v 0 m -4.42823,4.71094 -1.6416,4.42041 -1.6084,-4.42041 h 3.25 v 0 m 5.72608,-4.71094 v 11.90967 h 2.34033 l 4.87451,-7.95264 v 7.95264 h 2.23487 v -11.90967 h -2.41553 l -4.79932,7.76709 v -7.76709 h -2.23486 v 0 m 17.53271,4.37842 v 2.00733 h 5.18213 v -4.74366 c -0.50488,-0.48828 -1.23388,-0.91797 -2.19092,-1.28955 -0.95654,-0.36914 -1.92382,-0.55468 -2.90283,-0.55468 -1.24512,0 -2.33203,0.26074 -3.2583,0.78173 -0.92578,0.52442 -1.62158,1.27002 -2.0874,2.24317 -0.46631,0.97314 -0.69873,2.02978 -0.69873,3.17285 0,1.23877 0.26074,2.34277 0.7793,3.30713 0.52099,0.9624 1.28076,1.70263 2.28466,2.21582 0.76221,0.39697 1.71338,0.59326 2.8501,0.59326 1.47803,0 2.63428,-0.31006 3.46338,-0.92871 0.83203,-0.62109 1.36719,-1.47754 1.60596,-2.57324 l -2.3877,-0.44629 c -0.16943,0.58496 -0.48535,1.04785 -0.94873,1.38672 -0.46289,0.33789 -1.03955,0.50732 -1.73291,0.50732 -1.05078,0 -1.88574,-0.33301 -2.50683,-0.99853 -0.6211,-0.66797 -0.92872,-1.65528 -0.92872,-2.9668 0,-1.41162 0.31348,-2.47363 0.94288,-3.18067 0.62646,-0.70654 1.45019,-1.05908 2.46826,-1.05908 0.5039,0 1.00879,0.0996 1.5166,0.29688 0.50439,0.19678 0.93994,0.43799 1.30322,0.71777 v 1.51123 h -2.75342 v 0 m 7.40039,-4.37842 v 11.90967 h 8.82862 v -2.01611 h -6.42481 v -2.63916 h 5.97852 v -2.00537 h -5.97852 V 475.896 h 6.65235 v -2.00782 h -9.05616 v 0 m 11.10205,0 v 11.90967 h 5.06397 c 1.27246,0 2.1958,-0.10791 2.77246,-0.32178 0.57715,-0.21337 1.04004,-0.59326 1.38672,-1.13964 0.34668,-0.54883 0.51758,-1.17286 0.51758,-1.87745 0,-0.89257 -0.2627,-1.63281 -0.78711,-2.21533 -0.52442,-0.57959 -1.31104,-0.94775 -2.35645,-1.09814 0.521,-0.30469 0.95069,-0.63721 1.28907,-1.00049 0.33789,-0.36328 0.79296,-1.00684 1.36718,-1.93262 l 1.45606,-2.32422 h -2.87598 l -1.73877,2.59327 c -0.61816,0.92578 -1.03955,1.50781 -1.26709,1.74902 -0.22705,0.2417 -0.46826,0.40527 -0.72314,0.49658 -0.25586,0.0884 -0.65723,0.13281 -1.21192,0.13281 h -0.48535 v -4.97168 h -2.40723 v 0 m 2.40723,6.87403 h 1.77734 c 1.15333,0 1.87452,0.0474 2.1626,0.14404 0.28565,0.0977 0.51026,0.2666 0.67432,0.50488 0.16064,0.23828 0.24365,0.53565 0.24365,0.89307 0,0.40137 -0.10791,0.72363 -0.32178,0.97021 -0.21337,0.24659 -0.51562,0.40235 -0.90625,0.46875 -0.19433,0.0249 -0.77929,0.0386 -1.75537,0.0386 h -1.87451 v -3.01953 0 m 9.56885,-6.87403 v 11.90967 h 3.59961 l 2.16015,-8.125 2.13477,8.125 h 3.60742 V 473.8882 h -2.23242 v 9.37549 l -2.36523,-9.37549 h -2.31543 l -2.35645,9.37549 v -9.37549 h -2.23242 v 0 m 13.89258,0 v 11.90967 h 8.82812 v -2.01611 h -6.4248 v -2.63916 h 5.97851 v -2.00537 h -5.97851 v -3.24121 h 6.65234 v -2.00782 h -9.05566 v 0 m 11.02148,0 v 11.90967 h 2.4043 V 473.8882 h -2.4043 v 0 m 4.69727,0 v 11.90967 h 8.82812 v -2.01611 h -6.4248 v -2.63916 h 5.97851 v -2.00537 h -5.97851 v -3.24121 h 6.65234 v -2.00782 h -9.05566 v 0 m 11.10156,0 v 11.90967 h 5.06445 c 1.27246,0 2.19532,-0.10791 2.77246,-0.32178 0.57618,-0.21337 1.03907,-0.59326 1.38575,-1.13964 0.34668,-0.54883 0.51855,-1.17286 0.51855,-1.87745 0,-0.89257 -0.26367,-1.63281 -0.78711,-2.21533 -0.52441,-0.57959 -1.31152,-0.94775 -2.35644,-1.09814 0.5205,-0.30469 0.95019,-0.63721 1.28906,-1.00049 0.33789,-0.36328 0.79297,-1.00684 1.36621,-1.93262 l 1.45703,-2.32422 h -2.87598 l -1.73925,2.59327 c -0.61817,0.92578 -1.03907,1.50781 -1.26661,1.74902 -0.22753,0.2417 -0.46875,0.40527 -0.72363,0.49658 -0.25586,0.0884 -0.65722,0.13281 -1.21191,0.13281 h -0.48535 v -4.97168 h -2.40723 v 0 m 2.40723,6.87403 h 1.77734 c 1.15332,0 1.875,0.0474 2.16309,0.14404 0.28515,0.0977 0.50976,0.2666 0.67382,0.50488 0.16016,0.23828 0.24414,0.53565 0.24414,0.89307 0,0.40137 -0.10839,0.72363 -0.32226,0.97021 -0.21289,0.24659 -0.51563,0.40235 -0.90625,0.46875 -0.19336,0.0249 -0.7793,0.0386 -1.75488,0.0386 h -1.875 v -3.01953 0 m -30.5918,-119.65576 21.65137,29.79003 c 2.48339,3.39649 3.91406,7.52344 3.91406,12.03711 0,7.95704 -4.56738,14.88379 -11.21094,18.29541 l 8.6875,36.42237 h -20.85156 c -3.60254,-15.09473 -5.46094,-22.83789 -9.09277,-37.92627 l -0.92579,-0.67481 c -1.51562,-1.20752 -2.75683,-2.48193 -3.95312,-4.10302 l -3.70313,-5.3545 -17.67578,-25.2207 13.07032,54.97314 c -0.95313,0 -19.42969,0 -20.80567,0 l -3.63037,-15.16113 -3.62793,-15.12646 -7.28174,-30.27735 23.21924,9.8e-4 23.55615,33.58496 c -4.11328,-17.08789 -8.23681,-34.17285 -12.34814,-51.25976 h 21.0083 v 0 m 1.15918,4.79199 12.55078,52.64844 c 5.96973,-2.86133 10.12012,-8.97266 10.12012,-16.01368 0,-3.64257 -1.10352,-7.02929 -2.99903,-9.85156 l -19.67187,-26.7832 v 0 m 4.87012,89.90039 -4.06836,-16.05127 -2.10157,-8.75733 -2.11816,-8.79931 c 2.26367,0.84082 4.7207,1.29101 7.27539,1.29101 2.70215,0 5.28418,-0.52588 7.65137,-1.48047 l 8.15429,33.81153 -14.79003,-4.9e-4 -0.003,-0.0137 v 0 m 5.97656,-36.54297 -13.0459,-54.09082 -14.71289,-0.0303 6.05469,26.07128 3.15234,13.08594 0.80078,3.25293 0.77539,3.27832 0.80078,3.27735 0.81934,3.43652 c 2.74121,1.73877 5.96777,2.73437 9.44141,2.73437 2.06738,0 4.06543,-0.36035 5.91406,-1.01562 v 0 m -47.25586,-36.16992 12.94141,54.44385 h -14.67481 l -5.69092,-22.68702 -7.41748,-31.73339 14.8418,-0.0234 v 0 m 12.89795,61.60351 c 2.2832,1.10987 3.75488,3.47705 3.75488,6.17823 0,3.76709 -3.07275,6.83984 -6.83984,6.83984 -2.14063,0 -4.06055,-0.99805 -5.31641,-2.5459 -0.0151,-0.005 -0.0303,-0.0112 -0.0454,-0.0171 -2.61084,-1.01807 -4.4707,-3.56201 -4.4707,-6.52637 0,-1.958 0.88183,-3.93603 2.27344,-5.20263 1.34912,-1.22754 3.01464,-1.85205 4.73535,-1.84082 2.75244,0.0283 4.64843,1.25097 5.90869,3.11474 v 0 m -3.08496,11.26026 c 2.79883,0 5.08154,-2.28272 5.08154,-5.08203 0,-2.79883 -2.28271,-5.08155 -5.08154,-5.08155 -2.79883,0 -5.08155,2.28272 -5.08155,5.08155 0,2.79931 2.28272,5.08203 5.08155,5.08203 z"
         style="fill:#1761a3;fill-opacity:1;fill-rule:evenodd;stroke:none"
         id="path20" />
      <path
         d="m 352.03516,465.57422 h -13.80567 l -0.97265,-4.06299 h 10.54101 v -22.16406 h 4.23731 v 26.22705 0 M 239,352.54395 h 113.03809 v 26.17578 h -4.24024 V 356.9082 H 243.19482 v 104.60254 h 34.15821 l 0.96338,4.0708 H 239 Z"
         style="fill:#cccccc;fill-opacity:1;fill-rule:evenodd;stroke:none"
         id="path22" />
    </g>
  </g>
</svg>
