<?xml version="1.0" standalone="no"?><!-- Generator: Gravit.io --><svg xmlns="http://www.w3.org/2000/svg" xmlns:xlink="http://www.w3.org/1999/xlink" style="isolation:isolate" viewBox="0 0 634.667 272" width="634.667" height="272"><defs><clipPath id="_clipPath_TMDh1UiIyUjofNLJgefQVF0pjdzbhhgt"><rect width="634.667" height="272"/></clipPath></defs><g clip-path="url(#_clipPath_TMDh1UiIyUjofNLJgefQVF0pjdzbhhgt)"><clipPath id="_clipPath_KlNMfQdCAgT7JplhNYAoOYX9cuXBEFG6"><path d=" M 0 0 L 0 272 L 634.667 272 L 634.667 0 L 0 0 Z " fill="rgb(255,255,255)"/></clipPath><g clip-path="url(#_clipPath_KlNMfQdCAgT7JplhNYAoOYX9cuXBEFG6)"><clipPath id="_clipPath_fIPDeuuyLt5lhZcUrNmnJx2yL6oYNv8h"><path d=" M 0 272 L 634.667 272 L 634.667 0 L 0 0 L 0 272 Z " fill="rgb(255,255,255)"/></clipPath><g clip-path="url(#_clipPath_fIPDeuuyLt5lhZcUrNmnJx2yL6oYNv8h)"><path d=" M 265.668 158.952 L 263.935 147.029 L 263.935 85.23 L 251.359 86.858 L 252.984 98.673 L 252.984 108.541 C 252.984 108.541 250.493 107.888 247.022 107.888 C 231.845 107.888 222.195 118.079 222.195 135.969 C 222.195 150.712 229.132 160.576 241.059 160.576 C 247.456 160.576 251.9 157.003 254.177 155.051 L 254.286 155.051 L 255.044 160.364 L 265.668 158.952 Z  M 252.984 147.785 C 251.25 149.303 248.54 150.931 244.744 150.931 C 236.396 150.931 233.252 144.862 233.252 133.476 C 233.252 124.476 238.133 117.103 246.482 117.103 C 250.706 117.103 252.984 118.188 252.984 118.188 L 252.984 147.785 Z  M 319.225 158.737 L 317.492 146.92 L 317.492 107.457 L 304.914 108.972 L 306.543 120.899 L 306.543 146.702 C 303.94 149.088 300.686 150.931 296.459 150.931 C 290.496 150.931 287.896 147.679 287.896 141.173 L 287.896 107.457 L 275.319 108.972 L 276.945 120.899 L 276.945 144.315 C 276.945 155.27 283.882 160.576 292.556 160.576 C 299.062 160.576 304.157 157.868 307.518 154.617 L 307.624 154.617 L 308.494 160.364 L 319.225 158.737 Z  M 396.414 108.432 L 385.897 108.432 L 376.901 143.668 L 376.792 143.668 L 366.063 108.432 L 355.762 108.432 L 345.029 143.668 L 344.919 143.668 L 336.679 106.804 L 326.597 109.19 L 339.066 159.82 L 349.364 159.061 L 360.531 123.826 L 360.641 123.826 L 371.914 159.82 L 382.105 158.952 L 396.414 108.432 Z  M 441.622 156.566 L 437.939 148.004 C 434.25 149.737 431.214 150.931 426.663 150.931 C 416.905 150.931 412.245 145.402 412.026 133.909 L 441.191 133.909 L 441.191 127.838 C 441.191 116.128 436.312 107.238 423.193 107.238 C 409.968 107.238 401.293 117.755 401.293 133.369 C 401.293 150.387 408.993 160.686 424.927 160.686 C 431.433 160.686 436.312 159.28 441.622 156.566 Z  M 431.324 126.753 L 412.351 126.753 C 413.219 120.682 416.796 116.019 422.759 116.019 C 428.725 116.019 431.324 120.356 431.324 126.753 Z  M 500.816 154.398 C 500.816 145.945 495.828 139.22 486.073 137.053 L 486.073 136.835 C 492.901 133.69 497.996 127.729 497.996 119.381 C 497.996 108.864 491.277 102.901 480.326 102.901 C 472.739 102.901 467.535 105.397 463.306 108.864 L 467.966 116.236 C 471.221 114.068 473.713 112.661 478.373 112.661 C 483.578 112.661 487.048 115.695 487.048 121.223 C 487.048 128.381 482.169 134.017 467.535 134.776 L 467.535 142.582 C 481.628 142.582 489.865 146.376 489.865 155.7 C 489.865 162.313 485.42 166.108 477.943 166.108 C 473.604 166.108 470.462 165.24 466.773 164.046 L 464.284 174.348 C 468.4 175.432 473.06 176.297 477.508 176.297 C 492.036 176.297 500.816 167.411 500.816 154.398 Z  M 541.82 141.169 L 540.52 132.233 L 540.52 85.886 L 531.096 87.104 L 532.314 95.967 L 532.314 103.368 C 532.314 103.368 530.443 102.879 527.838 102.879 C 516.45 102.879 509.225 110.515 509.225 123.936 C 509.225 134.999 514.423 142.388 523.366 142.388 C 528.166 142.388 531.502 139.708 533.211 138.246 L 533.289 138.246 L 533.861 142.226 L 541.82 141.169 Z  M 532.314 132.802 C 531.012 133.94 528.978 135.162 526.133 135.162 C 519.867 135.162 517.509 130.604 517.509 122.064 C 517.509 115.313 521.166 109.782 527.432 109.782 C 530.606 109.782 532.314 110.595 532.314 110.595 L 532.314 132.802 Z " fill="rgb(0,93,153)"/></g></g><clipPath id="_clipPath_wZPmdPPeXcRjy9yMa9nTbdquYuqqLtAh"><path d=" M 0 0 L 0 272 L 634.667 272 L 634.667 0 L 0 0 Z " fill="rgb(255,255,255)"/></clipPath><g clip-path="url(#_clipPath_wZPmdPPeXcRjy9yMa9nTbdquYuqqLtAh)"><clipPath id="_clipPath_mNU2DPNjLm9yAlXKCoEdbiy6Fp45U5um"><path d=" M 0 272 L 634.667 272 L 634.667 0 L 0 0 L 0 272 Z " fill="rgb(255,255,255)"/></clipPath><g clip-path="url(#_clipPath_mNU2DPNjLm9yAlXKCoEdbiy6Fp45U5um)"><path d=" M 80.245 157.996 C 84.275 157.996 87.544 154.729 87.544 150.696 C 87.544 146.667 84.275 143.399 80.245 143.399 C 76.215 143.399 72.946 146.667 72.946 150.696 C 72.946 154.729 76.215 157.996 80.245 157.996 Z " fill="rgb(169,171,174)"/></g></g><clipPath id="_clipPath_pQUfkwWqYbiPCEW1KRYpLPJLjacuSb3W"><path d=" M 0 0 L 0 272 L 634.667 272 L 634.667 0 L 0 0 Z " fill="rgb(255,255,255)"/></clipPath><g clip-path="url(#_clipPath_pQUfkwWqYbiPCEW1KRYpLPJLjacuSb3W)"><clipPath id="_clipPath_56lmdfgS8pOwHFMSI9FOGPWB5nNHlAqk"><path d=" M 0 272 L 634.667 272 L 634.667 0 L 0 0 L 0 272 Z " fill="rgb(255,255,255)"/></clipPath><g clip-path="url(#_clipPath_56lmdfgS8pOwHFMSI9FOGPWB5nNHlAqk)"><path d=" M 180.764 75.661 C 184.793 75.661 188.062 72.392 188.062 68.362 C 188.062 64.332 184.793 61.063 180.764 61.063 C 176.733 61.063 173.464 64.332 173.464 68.362 C 173.464 72.392 176.733 75.661 180.764 75.661 Z " fill="rgb(169,171,174)"/></g></g><clipPath id="_clipPath_sRpX1SzDUrnZPbIVvG0rqSBldBOjGMwk"><path d=" M 0 0 L 0 272 L 634.667 272 L 634.667 0 L 0 0 Z " fill="rgb(255,255,255)"/></clipPath><g clip-path="url(#_clipPath_sRpX1SzDUrnZPbIVvG0rqSBldBOjGMwk)"><clipPath id="_clipPath_5QNzvMUZN9CEhf3d4uumUlCSpwB4Mx7S"><path d=" M 0 272 L 634.667 272 L 634.667 0 L 0 0 L 0 272 Z " fill="rgb(255,255,255)"/></clipPath><g clip-path="url(#_clipPath_5QNzvMUZN9CEhf3d4uumUlCSpwB4Mx7S)"><path d=" M 198.357 187.985 C 202.387 187.985 205.656 184.718 205.656 180.686 C 205.656 176.656 202.387 173.389 198.357 173.389 C 194.326 173.389 191.058 176.656 191.058 180.686 C 191.058 184.718 194.326 187.985 198.357 187.985 Z " fill="rgb(169,171,174)"/></g></g><clipPath id="_clipPath_PpAGiUfrzSpylKxfBnY36XYzo0hzNfCc"><path d=" M 0 0 L 0 272 L 634.667 272 L 634.667 0 L 0 0 Z " fill="rgb(255,255,255)"/></clipPath><g clip-path="url(#_clipPath_PpAGiUfrzSpylKxfBnY36XYzo0hzNfCc)"><clipPath id="_clipPath_cnsKoir5JiGKCKM1Xuqk2qMvss7tZjYu"><path d=" M 0 272 L 634.667 272 L 634.667 0 L 0 0 L 0 272 Z " fill="rgb(255,255,255)"/></clipPath><g clip-path="url(#_clipPath_cnsKoir5JiGKCKM1Xuqk2qMvss7tZjYu)"><path d=" M 168.202 165.321 C 171.32 165.321 173.85 162.794 173.85 159.677 C 173.85 156.553 171.32 154.026 168.202 154.026 C 165.083 154.026 162.557 156.553 162.557 159.677 C 162.557 162.794 165.083 165.321 168.202 165.321 Z " fill="rgb(169,171,174)"/></g></g></g></svg>