<?xml version="1.0" encoding="UTF-8" standalone="no"?>
<svg
   xmlns:dc="http://purl.org/dc/elements/1.1/"
   xmlns:cc="http://creativecommons.org/ns#"
   xmlns:rdf="http://www.w3.org/1999/02/22-rdf-syntax-ns#"
   xmlns:svg="http://www.w3.org/2000/svg"
   xmlns="http://www.w3.org/2000/svg"
   viewBox="0 0 98.26667 98.26667"
   height="98.26667"
   width="98.26667"
   xml:space="preserve"
   id="svg2"
   version="1.1"><metadata
     id="metadata8"><rdf:RDF><cc:Work
         rdf:about=""><dc:format>image/svg+xml</dc:format><dc:type
           rdf:resource="http://purl.org/dc/dcmitype/StillImage" /><dc:title></dc:title></cc:Work></rdf:RDF></metadata><defs
     id="defs6" /><g
     transform="matrix(1.3333333,0,0,-1.3333333,0,98.266667)"
     id="g10"><g
       transform="scale(0.1)"
       id="g12"><path
         id="path14"
         style="fill:#1b458f;fill-opacity:1;fill-rule:nonzero;stroke:none"
         d="m 226.777,22.7188 c 0,-12.25 -6.367,-22.277394 -14.179,-22.277394 H 14.1797 C 6.38672,0.441406 0,10.4688 0,22.7188 V 714.465 c 0,12.23 6.38672,22.238 14.1797,22.238 H 212.598 c 7.812,0 14.179,-10.008 14.179,-22.238 V 22.7188" /><path
         id="path16"
         style="fill:#1b458f;fill-opacity:1;fill-rule:nonzero;stroke:none"
         d="M 481.895,22.2695 C 481.895,10.0273 475.527,0 467.715,0 H 269.297 c -7.793,0 -14.18,10.0273 -14.18,22.2695 V 714.016 c 0,12.238 6.387,22.257 14.18,22.257 h 198.418 c 7.812,0 14.18,-10.019 14.18,-22.257 V 22.2695" /><path
         id="path18"
         style="fill:#1b458f;fill-opacity:1;fill-rule:nonzero;stroke:none"
         d="m 737.031,22.9922 c 0,-12.2305 -6.386,-22.257825 -14.179,-22.257825 H 524.434 c -7.813,0 -14.18,10.027325 -14.18,22.257825 V 714.746 c 0,12.242 6.367,22.262 14.18,22.262 h 198.418 c 7.793,0 14.179,-10.02 14.179,-22.262 V 22.9922" /><path
         id="path20"
         style="fill:#ffffff;fill-opacity:1;fill-rule:nonzero;stroke:none"
         d="M 45.1758,38.7227 H 107.91 c 65.781,0 75.215,86.3553 81.231,124.0973 12.207,76.496 9.922,121.379 -40.567,121.379 H 84.3164 Z M 116.797,246.453 h 19.902 c 26.758,0 20.43,-39.773 13.223,-85 C 140.098,99.9219 131.777,76.4648 108.32,76.4648 H 89.707 l 27.09,169.9882" /><path
         id="path22"
         style="fill:#ffffff;fill-opacity:1;fill-rule:nonzero;stroke:none"
         d="m 301.563,284.199 h 40.039 l 0.097,-178.496 h 0.508 l 60.586,178.496 h 38.008 L 352.949,38.7227 h -45.117 l -6.269,245.4763" /><path
         id="path24"
         style="fill:#ffffff;fill-opacity:1;fill-rule:nonzero;stroke:none"
         d="m 673.164,111.816 h -0.527 l -0.059,172.383 h -45.39 L 570.645,111.816 h -0.508 l 3.515,172.383 h -39.531 l 1.68,-245.4763 h 41.816 l 60.488,179.5113 h 0.508 l 0.196,-179.5113 h 42.578 l 55.625,170.8163 v 74.66 h -13.438 l -50.41,-172.383" /></g></g></svg>