<?xml version="1.0" encoding="UTF-8" standalone="no"?>
<svg
   xmlns:dc="http://purl.org/dc/elements/1.1/"
   xmlns:cc="http://creativecommons.org/ns#"
   xmlns:rdf="http://www.w3.org/1999/02/22-rdf-syntax-ns#"
   xmlns:svg="http://www.w3.org/2000/svg"
   xmlns="http://www.w3.org/2000/svg"
   id="svg8"
   version="1.1"
   viewBox="0 0 200 80"
   height="80mm"
   width="200mm">
  <defs
     id="defs2" />
  <metadata
     id="metadata5">
    <rdf:RDF>
      <cc:Work
         rdf:about="">
        <dc:format>image/svg+xml</dc:format>
        <dc:type
           rdf:resource="http://purl.org/dc/dcmitype/StillImage" />
        <dc:title></dc:title>
      </cc:Work>
    </rdf:RDF>
  </metadata>
  <g
     transform="translate(0,-217)"
     id="layer1">
    <g
       transform="matrix(2.4809525,0,0,2.4809525,-112.61262,-371.96273)"
       id="g3756">
      <path
         id="path3770"
         d="m 66.411956,255.45958 v -1.43933 h 0.762 0.762 v 0.16933 0.16934 h -0.592667 -0.592667 v 0.41929 0.41929 l 0.528317,0.0252 0.528316,0.0252 0.02823,0.14816 0.02822,0.14817 h -0.556542 -0.556541 v 0.508 0.508 h 0.592667 0.592667 v 0.16933 0.16934 h -0.762 -0.762 z m 2.116666,-0.006 v -1.44555 l 0.148167,0.0282 0.148167,0.0283 0.496085,0.81903 0.496087,0.81902 0.22358,-0.40302 0.223581,-0.40302 0.254,-0.43796 0.254,-0.43796 0.150214,-8e-5 0.150214,-9e-5 -0.02321,1.41709 -0.02321,1.41709 -0.148167,0.0285 -0.148166,0.0285 -0.0026,-1.12805 -0.0026,-1.12804 -0.09143,0.16934 -0.09143,0.16933 -0.344424,0.61383 -0.344425,0.61384 h -0.06287 -0.06287 l -0.429973,-0.74084 -0.429972,-0.74083 -5.8e-5,1.0795 -5.9e-5,1.0795 H 68.69792 68.528586 v -1.44555 z m 3.172444,1.34241 -0.04438,-0.11565 0.02347,-1.30878 0.02347,-1.30878 h 0.649502 0.649501 l 0.20974,0.19719 0.20974,0.19719 0.0412,0.2155 0.0412,0.2155 -0.08013,0.29021 -0.08013,0.29022 -0.269972,0.16461 -0.26997,0.16462 -0.355793,3.3e-4 -0.355794,3.4e-4 -0.02521,0.52832 -0.02521,0.52832 -0.148423,0.0283 -0.148423,0.0283 -0.04438,-0.11564 z m 1.230223,-1.50554 0.169333,-0.16933 v -0.21167 -0.21167 l -0.169333,-0.16933 -0.169334,-0.16933 h -0.338666 -0.338667 v 0.55033 0.55033 h 0.338667 0.338666 z m 1.447495,1.50158 -0.203505,-0.10458 -0.174881,-0.23554 -0.174879,-0.23554 -0.0329,-0.58223 -0.0329,-0.58223 0.09943,-0.30129 0.09944,-0.3013 0.254845,-0.21443 0.254844,-0.21444 h 0.452674 0.452675 l 0.245592,0.20665 0.245591,0.20665 0.09957,0.33234 0.09957,0.33234 -0.0019,0.41351 -0.0019,0.41351 -0.160821,0.35422 -0.16082,0.35422 -0.256449,0.13261 -0.256449,0.13262 -0.321705,-10e-4 -0.321704,-0.001 -0.203505,-0.10459 z m 0.981955,-0.35845 0.181128,-0.12686 0.09197,-0.42886 0.09197,-0.42885 -0.04948,-0.22745 -0.04948,-0.22744 -0.0894,-0.23607 -0.0894,-0.23607 -0.152156,-0.0814 -0.152155,-0.0814 H 74.848 74.552246 l -0.171185,0.21762 -0.171184,0.21763 -0.05397,0.35989 -0.05397,0.3599 0.09647,0.35828 0.09647,0.35827 0.164868,0.16487 0.164867,0.16487 h 0.277494 0.277495 z m 1.264169,-0.92512 -0.391619,-1.39065 v -0.0546 -0.0546 l 0.183727,0.0271 0.183728,0.0271 0.236877,0.84667 0.236877,0.84667 0.0027,0.1651 0.0027,0.1651 0.07041,-0.0804 0.07041,-0.0804 0.2816,-0.9525 0.281599,-0.9525 h 0.09764 0.09764 l 0.283556,0.9525 0.283557,0.9525 0.05476,0.0641 0.05476,0.0641 0.244266,-1.01657 0.244267,-1.01656 h 0.153101 0.153102 l -0.0057,0.14817 -0.0057,0.14816 -0.356488,1.27 -0.356487,1.27 H 78.607935 78.48968 l -0.276356,-0.889 -0.276355,-0.889 -0.01187,-0.16933 -0.01187,-0.16933 -0.115619,0.33866 -0.11562,0.33867 -0.226341,0.74083 -0.226342,0.74084 H 77.12293 77.016529 l -0.39162,-1.39066 z m 3.249047,-0.0487 v -1.43933 h 0.762 0.762 v 0.16933 0.16934 h -0.592667 -0.592666 v 0.41929 0.41929 l 0.528316,0.0252 0.528316,0.0252 0.02822,0.14816 0.02823,0.14817 h -0.556542 -0.556541 v 0.508 0.508 h 0.592666 0.592667 v 0.16933 0.16934 h -0.762 -0.762 z m 2.116667,0 v -1.43933 h 0.502488 0.502488 l 0.221274,0.0841 0.221274,0.0841 0.115206,0.27572 0.115205,0.27573 -0.04468,0.23374 -0.04468,0.23374 -0.240954,0.20275 -0.240955,0.20275 0.378002,0.57552 0.378002,0.57552 v 0.0675 0.0675 h -0.173309 -0.173308 l -0.398192,-0.63313 -0.398191,-0.63313 -0.1905,-0.002 -0.1905,-0.002 v 0.635 0.635 h -0.169333 -0.169333 z m 0.958066,-0.18201 0.184934,-0.0973 0.0622,-0.0932 0.0622,-0.0932 0.0013,-0.18446 0.0013,-0.18445 -0.133048,-0.13305 -0.133047,-0.13304 h -0.332619 -0.332619 v 0.508 0.508 h 0.217232 0.217233 l 0.184934,-0.0974 z m 1.497267,0.18201 v -1.43933 h 0.169333 0.169334 v 1.43933 1.43934 h -0.169334 -0.169333 z m 1.100667,0.006 v -1.44554 l 0.105833,0.001 0.105833,9.9e-4 0.338667,0.48023 0.338666,0.48022 0.402167,0.58368 0.402167,0.58368 v -1.0649 -1.06491 h 0.169333 0.169333 v 1.43933 1.43934 h -0.111996 -0.111997 l -0.713503,-1.02045 -0.713504,-1.02044 -0.04233,0.99833 -0.04233,0.99834 -0.148167,0.0283 -0.148166,0.0283 v -1.44554 z m 3.157943,1.26722 -0.271056,-0.16527 -0.149425,-0.27892 -0.149424,-0.27891 v -0.55033 -0.55033 l 0.149424,-0.27891 0.149425,-0.27891 0.271056,-0.16729 0.271056,-0.16729 0.508,0.0229 0.508,0.0229 v 0.127 0.127 l -0.381,0.0223 -0.381,0.0223 -0.193126,0.0434 -0.193126,0.0434 -0.166391,0.27289 -0.16639,0.27289 -3.39e-4,0.44871 -3.38e-4,0.4487 0.127876,0.24729 0.127876,0.24728 0.162891,0.0872 0.162891,0.0872 h 0.344233 0.344233 v -0.41797 -0.41797 l -0.268647,-0.0265 -0.268646,-0.0265 -0.03474,-0.10584 -0.03474,-0.10583 h 0.472722 0.472722 v 0.6371 0.63709 l -0.217178,0.0826 -0.217179,0.0826 -0.354321,-3.3e-4 -0.354322,-3.4e-4 -0.271056,-0.16528 z m 3.041842,-1.25226 0.02321,-1.41817 0.50045,-0.0258 0.500451,-0.0258 0.243755,0.10096 0.243755,0.10097 0.123628,0.1765 0.123628,0.17651 v 0.32829 0.3283 l -0.287867,0.28786 -0.287866,0.28787 h -0.4318 -0.4318 v 0.55033 0.55034 H 91.89457 91.723189 Z m 1.180714,-0.16129 0.154833,-0.14012 v -0.27717 -0.27716 l -0.133047,-0.13305 -0.133048,-0.13304 h -0.374952 -0.374952 v 0.55033 0.55033 h 0.353166 0.353167 z m 1.041277,1.47633 -0.04438,-0.11565 0.02347,-1.30878 0.02347,-1.30878 0.1905,-0.0271 0.1905,-0.0271 v 0.64089 0.64089 h 0.635 0.635 v -0.64089 -0.64089 l 0.1905,0.0271 0.1905,0.0271 v 1.397 1.397 h -0.169333 -0.169333 l -0.02473,-0.65616 -0.02473,-0.65617 h -0.627877 -0.627877 l -0.02473,0.65525 -0.02473,0.65525 -0.148422,0.0283 -0.148423,0.0283 z m 3.126864,-0.0575 -0.262359,-0.15998 -0.139808,-0.34942 -0.139807,-0.34941 v -0.46667 -0.46668 l 0.11674,-0.27939 0.11674,-0.2794 0.233345,-0.18355 0.233344,-0.18355 h 0.442831 0.44283 l 0.233345,0.18355 0.233344,0.18355 0.11674,0.2794 0.116741,0.27939 v 0.51344 0.51344 l -0.121905,0.29176 -0.121906,0.29176 -0.280261,0.17087 -0.280262,0.17087 h -0.338666 -0.338667 z m 1.100886,-0.37388 0.195829,-0.19583 0.05882,-0.39225 0.05882,-0.39224 -0.09363,-0.34773 -0.09363,-0.34772 -0.164868,-0.16487 -0.164867,-0.16486 H 97.6601 97.327579 l -0.165717,0.21067 -0.165716,0.21067 -0.05659,0.37741 -0.0566,0.3774 0.09363,0.34772 0.09363,0.34772 0.164868,0.16487 0.164867,0.16487 h 0.300182 0.300182 z m 1.633845,0.48098 -0.05937,-0.0594 v -1.21356 -1.21355 H 99.34729 98.923956 v -0.16934 -0.16933 h 1.058334 1.05833 v 0.16933 0.16934 h -0.42107 -0.42107 l -0.0234,1.24777 -0.0234,1.24777 -0.13113,0.0251 -0.131125,0.0252 z m 1.867257,-0.0793 -0.23236,-0.12607 -0.1698,-0.33284 -0.1698,-0.33283 v -0.51409 -0.5141 l 0.11674,-0.27939 0.11674,-0.2794 0.23334,-0.18355 0.23335,-0.18355 h 0.44283 0.44283 l 0.23334,0.18355 0.23335,0.18355 0.11674,0.2794 0.11674,0.27939 v 0.51909 0.51909 l -0.14139,0.29796 -0.14139,0.29796 -0.26078,0.15902 -0.26078,0.15902 -0.33866,-0.003 -0.33867,-0.003 z m 1.0709,-0.40165 0.19583,-0.19583 0.0588,-0.39225 0.0588,-0.39224 -0.0936,-0.34773 -0.0936,-0.34772 -0.16487,-0.16487 -0.16487,-0.16486 h -0.33252 -0.33252 l -0.16572,0.21067 -0.16572,0.21067 -0.0566,0.37741 -0.0566,0.3774 0.0936,0.34772 0.0936,0.34772 0.16487,0.16487 0.16486,0.16487 h 0.30019 0.30018 z m 1.67454,0.36259 -0.28092,-0.17128 -0.17393,-0.39319 -0.17393,-0.39319 0.0456,-0.44169 0.0456,-0.44169 0.13821,-0.26727 0.13821,-0.26727 0.27105,-0.16729 0.27106,-0.16729 0.508,0.0229 0.508,0.0229 v 0.127 0.127 l -0.381,0.0223 -0.381,0.0223 -0.19313,0.0434 -0.19312,0.0434 -0.16639,0.27289 -0.16639,0.2729 -3.4e-4,0.4487 -3.4e-4,0.44871 0.12788,0.24728 0.12787,0.24729 0.16289,0.0872 0.16289,0.0872 h 0.34424 0.34423 v -0.41797 -0.41797 l -0.26865,-0.0265 -0.26864,-0.0265 -0.0348,-0.10583 -0.0347,-0.10584 h 0.47272 0.47273 v 0.6371 0.63709 l -0.21718,0.0826 -0.21718,0.0826 -0.35432,-3.4e-4 -0.35432,-3.4e-4 -0.28093,-0.17128 z m 1.97171,0.0688 -0.0444,-0.11565 0.0235,-1.30878 0.0235,-1.30878 0.57409,-0.0251 0.57408,-0.0251 0.25142,0.25142 0.25141,0.25141 v 0.21267 0.21267 l -0.083,0.21822 -0.083,0.21822 -0.20338,0.0927 -0.20339,0.0927 0.31579,0.47779 0.31578,0.4778 0.10055,0.1905 0.10054,0.1905 h -0.19987 -0.19986 l -0.40226,-0.635 -0.40226,-0.635 h -0.15914 -0.15915 l -0.0249,0.61293 -0.0249,0.61294 -0.14842,0.0283 -0.14843,0.0283 z m 1.11078,-1.59648 0.11944,-0.0991 v -0.26903 -0.26903 l -0.1016,-0.1016 -0.1016,-0.1016 h -0.32173 -0.32174 v 0.51907 0.51908 l 0.30389,-0.0493 0.30389,-0.0493 z m 0.88144,1.62642 v -0.0732 l 0.34698,-0.92165 0.34698,-0.92165 0.1671,-0.4445 0.16711,-0.4445 0.0998,5.9e-4 0.0997,5.9e-4 0.49152,1.33295 0.49153,1.33295 0.0105,0.0847 0.0104,0.0847 -0.1441,0.0278 -0.1441,0.0277 -0.17866,-0.42991 -0.17867,-0.42992 h -0.48991 -0.4899 l -0.14061,0.42333 -0.14061,0.42334 h -0.16253 -0.16253 v -0.0732 z m 1.32414,-1.56825 -0.18114,-0.54077 -0.035,0.0325 -0.035,0.0325 -0.15549,0.44151 -0.15548,0.44151 v 0.0668 0.0667 h 0.37164 0.37164 z m 1.30053,0.19589 v -1.44554 l 0.14352,0.0276 0.14353,0.0276 0.46974,0.7829 0.46975,0.7829 0.0429,-0.002 0.0429,-0.002 0.45544,-0.80665 0.45544,-0.80665 0.13723,0.0264 0.13722,0.0264 v 1.39584 1.39584 h -0.16933 -0.16933 l -0.0423,-0.99468 -0.0423,-0.99468 -0.381,0.67698 -0.381,0.67698 -0.0589,1.7e-4 -0.0589,1.7e-4 -0.40681,-0.67931 -0.40681,-0.67931 -0.0238,1.01798 -0.0238,1.01797 h -0.16673 -0.16672 v -1.44554 z m 2.20133,-0.71345 v -0.0423 h -0.0423 -0.0423 v 0.0423 0.0423 h 0.0423 0.0423 z m 0.98778,2.10255 -0.0564,-0.0564 v -1.38289 -1.38289 h 0.15307 0.15307 l 0.49301,0.84496 0.49301,0.84495 0.42189,-0.73912 0.42189,-0.73912 0.0854,-0.10584 0.0854,-0.10583 h 0.11663 0.11663 v 1.43933 1.43934 h -0.16933 -0.16933 l -0.007,-1.12184 -0.007,-1.12183 -0.0479,0.127 -0.0479,0.127 -0.37619,0.65617 -0.3762,0.65616 h -0.0581 -0.0581 l -0.44247,-0.73615 -0.44247,-0.73615 v 1.07482 1.07482 h -0.11289 -0.11289 l -0.0564,-0.0564 z m 3.16089,-1.38289 v -1.43933 h 0.762 0.762 v 0.16933 0.16934 h -0.59267 -0.59267 v 0.41929 0.41929 l 0.52832,0.0252 0.52832,0.0252 0.0282,0.14816 0.0282,0.14817 h -0.55655 -0.55654 v 0.508 0.508 h 0.59267 0.59267 v 0.16933 0.16934 h -0.762 -0.762 z m 2.70933,0.16934 v -1.27 h -0.42333 -0.42334 v -0.16934 -0.16933 h 1.05834 1.05833 v 0.16933 0.16934 h -0.46567 -0.46566 v 1.27 1.27 h -0.16934 -0.16933 z m 1.64604,1.16061 -0.042,-0.10939 0.0235,-1.30878 0.0235,-1.30878 0.57409,-0.0251 0.57408,-0.0251 0.25142,0.25142 0.25141,0.25141 v 0.22239 0.22238 l -0.12607,0.2438 -0.12607,0.24379 -0.16676,0.0529 -0.16677,0.0529 0.3775,0.58894 0.3775,0.58893 v 0.0838 0.0838 h -0.16285 -0.16285 l -0.40226,-0.635 -0.40226,-0.635 h -0.19689 -0.19689 v 0.635 0.635 h -0.12965 -0.12966 z m 1.12652,-1.64053 0.10611,-0.14512 v -0.22088 -0.22088 l -0.1016,-0.1016 -0.1016,-0.1016 h -0.36407 -0.36407 v 0.45155 0.45156 l 0.0635,0.0639 0.0635,0.0639 0.29606,-0.0478 0.29605,-0.0478 z m 1.63011,1.18571 v -0.5642 l -0.46567,-0.83369 -0.46567,-0.83369 v -0.0414 -0.0414 h 0.19536 0.19536 l 0.36538,0.68575 0.36539,0.68574 0.34934,-0.68574 0.34935,-0.68575 h 0.19501 0.19501 l -0.39825,0.74083 -0.39826,0.74084 -0.0718,0.0804 -0.0718,0.0804 v 0.61807 0.61807 h -0.16933 -0.16933 z m -70.866,-0.58919 -0.296334,-0.0374 -0.4445,-0.0879 -0.4445,-0.0879 v -0.0556 -0.0556 l 4.13826,-4.15061 4.138258,-4.1506 0.04617,-0.254 0.04617,-0.254 -0.08854,-0.41813 -0.08854,-0.41813 -0.440685,-0.44068 -0.440684,-0.44069 -0.49138,-0.10201 -0.491379,-0.10201 -2.806925,2.80233 -2.806924,2.80232 h -0.149088 -0.149088 l -0.207819,-0.20782 -0.207818,-0.20782 v -0.14904 -0.14905 l 2.751667,-2.75632 2.751666,-2.75633 v -0.38716 -0.38716 l -0.196574,-0.37173 -0.196574,-0.37173 -0.403331,-0.28971 -0.40333,-0.28971 -0.424023,-0.0408 -0.424021,-0.0407 -2.767877,2.7632 -2.767876,2.7632 H 50.14493 49.928189 l -0.140122,-0.15483 -0.140123,-0.15484 v -0.23922 -0.23921 l 3.655195,-3.69112 3.655194,-3.69111 0.52938,-0.54313 0.52938,-0.54312 0.377337,0.14411 0.377337,0.1441 0.768173,0.50607 0.768174,0.50607 0.675386,0.67538 0.675386,0.67539 0.471497,0.70861 0.471497,0.70862 0.253566,0.55923 0.253567,0.55923 0.202708,0.70138 0.202708,0.70139 0.104566,0.80433 0.104567,0.80434 -0.05479,0.78705 -0.05479,0.78706 -0.120014,0.57052 -0.120012,0.57052 -0.266839,0.73744 -0.266838,0.73745 -0.40481,0.67354 -0.40481,0.67354 -0.439309,0.55208 -0.439309,0.55209 -0.523881,0.45486 -0.523881,0.45485 -0.540013,0.36252 -0.540013,0.36252 -0.625399,0.28895 -0.625399,0.28895 -0.527921,0.15875 -0.527921,0.15875 -0.465667,0.0961 -0.465666,0.0961 -0.931334,0.0307 -0.931333,0.0307 z m -3.17732,-0.98706 -0.679653,-0.35721 -0.548014,-0.39152 -0.548013,-0.39152 -0.659597,-0.69064 -0.659597,-0.69065 -0.386595,-0.59761 -0.386596,-0.59762 -0.288561,-0.62455 -0.288562,-0.62455 -0.231075,-0.82834 -0.231076,-0.82833 0.006,-1.524 0.006,-1.524 0.179153,-0.65081 0.179153,-0.65082 0.221304,-0.55317 0.221305,-0.55317 0.309177,-0.55626 0.309177,-0.55626 0.52725,-0.66678 0.52725,-0.66679 0.629869,-0.5363 0.629868,-0.53631 0.666734,-0.39464 0.666733,-0.39465 0.550333,-0.21842 0.550334,-0.21843 0.677333,-0.17931 0.677333,-0.1793 1.153676,-0.0437 1.153676,-0.0436 0.58199,0.0989 0.581991,0.0989 0.159048,0.0478 0.159047,0.0478 -4.255365,4.25846 -4.255366,4.25845 0.03953,0.47669 0.03953,0.47668 0.249152,0.3545 0.249153,0.3545 0.354501,0.24916 0.354501,0.24915 0.451288,0.0374 0.451289,0.0374 2.754578,-2.80305 2.754578,-2.80304 h 0.263633 0.263634 l 0.131801,0.18817 0.131801,0.18817 v 0.16539 0.16539 l -2.840107,2.85517 -2.840106,2.85516 0.05398,0.24144 0.05398,0.24144 0.04606,0.16933 0.04606,0.16934 0.240661,0.35139 0.240662,0.35139 0.441696,0.22011 0.441697,0.22011 h 0.343698 0.343698 l 2.751178,-2.7544 2.751178,-2.75439 0.295732,0.0239 0.295732,0.0239 0.11028,0.23121 0.110279,0.23122 -0.08601,0.16071 -0.08601,0.16071 -4.152315,4.22241 -4.152316,4.2224 -0.06235,0.0186 -0.06235,0.0186 z m 63.43967,-3.15611 -0.48598,-0.11779 -0.3491,-0.1781 -0.3491,-0.1781 -0.36654,-0.37713 -0.36653,-0.37714 -0.22156,-0.45284 -0.22155,-0.45284 -0.12512,-0.45458 -0.12512,-0.45458 -0.0497,-0.93133 -0.0497,-0.93134 0.13138,-0.69085 0.13139,-0.69085 0.2216,-0.46842 0.2216,-0.46842 0.36884,-0.41024 0.36884,-0.41024 0.41683,-0.22687 0.41683,-0.22687 0.49829,-0.12978 0.49828,-0.12979 0.76538,0.001 0.76538,0.001 0.44568,0.11864 0.44569,0.11865 0.35864,0.21146 0.35865,0.21147 0.22574,0.24038 0.22574,0.24039 0.21321,0.40433 0.21321,0.40434 0.10121,0.48466 0.10121,0.48467 -0.047,0.889 -0.047,0.889 -0.0577,0.14817 -0.0577,0.14816 h -2.5004 -2.50041 l 0.0495,0.41755 0.0495,0.41754 0.17322,0.33955 0.17323,0.33955 0.2847,0.21715 0.2847,0.21716 0.49925,0.0925 0.49925,0.0925 0.508,-0.0557 0.508,-0.0557 0.57258,-0.26202 0.57258,-0.26202 0.0314,0.0342 0.0314,0.0342 0.34658,0.69278 0.34658,0.69279 -0.27383,0.16924 -0.27383,0.16923 -0.3828,0.16409 -0.3828,0.16409 -0.60699,0.13805 -0.60699,0.13806 -0.74528,-0.007 -0.74529,-0.007 -0.48598,-0.11778 z m 2.64485,-5.56193 -1.3e-4,-0.4445 -0.14804,-0.29032 -0.14803,-0.29031 -0.2317,-0.16987 -0.23169,-0.16987 -0.48798,-0.0321 -0.48797,-0.0321 -0.381,0.19599 -0.381,0.19599 -0.22491,0.46567 -0.22492,0.46566 -0.0481,0.27517 -0.0481,0.27517 h 1.52189 1.52188 l -1.7e-4,-0.4445 z m 4.9108,5.6074 -0.381,-0.0665 -0.42334,-0.14506 -0.42333,-0.14506 -0.30831,-0.15651 -0.30831,-0.15651 0.30268,-0.81311 0.30268,-0.81311 0.13263,0.0418 0.13263,0.0418 0.635,0.23092 0.635,0.23093 0.68072,0.008 0.68072,0.008 0.22549,-0.14753 0.22549,-0.14753 0.054,-0.28805 0.054,-0.28806 -0.0955,-0.17837 -0.0954,-0.17836 -0.39913,-0.19901 -0.39913,-0.19902 -0.635,-0.23765 -0.635,-0.23765 -0.43452,-0.27545 -0.43452,-0.27545 -0.21902,-0.28716 -0.21903,-0.28716 -0.12962,-0.31022 -0.12962,-0.31023 v -0.66941 -0.6694 l 0.12213,-0.34616 0.12213,-0.34615 0.18909,-0.25576 0.18909,-0.25576 0.34002,-0.22501 0.34001,-0.22501 0.42827,-0.11405 0.42826,-0.11405 0.80433,4.7e-4 0.80434,4.6e-4 0.59266,0.12495 0.59267,0.12494 0.44679,0.18068 0.44679,0.18068 -0.0415,0.13741 -0.0415,0.1374 -0.21391,0.68396 -0.21392,0.68396 -0.61474,-0.20094 -0.61475,-0.20093 -0.6387,-0.0497 -0.63871,-0.0497 -0.27023,0.13974 -0.27024,0.13974 -0.0527,0.21013 -0.0527,0.21012 0.0529,0.21064 0.0529,0.21064 0.34549,0.17625 0.34548,0.17626 0.77499,0.2955 0.775,0.2955 0.381,0.24587 0.381,0.24588 0.24763,0.31342 0.24763,0.31342 0.10848,0.30348 0.10849,0.30348 0.004,0.55804 0.004,0.55805 -0.12077,0.40129 -0.12077,0.40129 -0.19673,0.29273 -0.19673,0.29273 -0.43627,0.29216 -0.43627,0.29217 -0.53739,0.12668 -0.5374,0.12669 -0.71967,-0.009 -0.71966,-0.009 -0.381,-0.0665 z m -30.437669,-0.0716 -0.254,-0.0668 -0.309004,-0.14718 -0.309005,-0.14717 -0.29975,-0.29975 -0.299752,-0.29975 -0.163114,-0.3508 -0.163116,-0.3508 -0.05916,-0.40445 -0.05916,-0.40445 0.09401,-0.45281 0.094,-0.45282 0.238252,-0.37568 0.238252,-0.37568 0.410515,-0.27192 0.410516,-0.27191 0.553925,-0.17372 0.553925,-0.17372 1.160312,-0.0913 1.160313,-0.0913 0.0498,-0.22674 0.0498,-0.22674 -0.08378,-0.37401 -0.08378,-0.37402 -0.208351,-0.17971 -0.208352,-0.17972 -0.376087,-0.0564 -0.376087,-0.0564 -0.795322,0.0967 -0.795321,0.0967 -0.48782,0.15183 -0.48782,0.15183 -0.03056,-0.0547 -0.03056,-0.0548 -0.230963,-0.70144 -0.230963,-0.70144 0.04192,-0.10925 0.04192,-0.10925 0.622173,-0.17911 0.622174,-0.17911 0.465667,-0.0857 0.465667,-0.0857 0.719666,-0.053 0.719667,-0.0529 0.591269,0.0961 0.591269,0.0961 0.34598,0.15304 0.345979,0.15305 0.309594,0.31877 0.309594,0.31878 0.179541,0.4759 0.179542,0.47589 0.0095,0.93134 0.0095,0.93133 -0.02682,1.86267 -0.02682,1.86266 0.126425,0.49319 0.126425,0.49319 -0.102547,0.0393 -0.102546,0.0394 -0.797983,-0.0245 -0.797981,-0.0245 -0.187503,-0.55033 -0.187502,-0.55033 -0.003,-0.0171 -0.003,-0.0171 -0.402167,0.40083 -0.402167,0.40084 -0.423333,0.19835 -0.423333,0.19835 -0.677334,0.0285 -0.677333,0.0285 -0.254,-0.0668 z m 2.070071,-1.87273 0.290952,-0.0834 0.322322,-0.31474 0.322322,-0.31474 v -0.57548 -0.57549 h -0.639841 -0.639842 l -0.378631,0.0953 -0.378631,0.0953 -0.251527,0.23497 -0.251528,0.23496 v 0.35259 0.3526 l 0.0868,0.16218 0.08679,0.16218 0.230705,0.1252 0.230705,0.1252 0.339225,0.003 0.339226,0.003 0.290953,-0.0834 z m -26.665736,-2.45655 v -4.23334 h 0.462403 0.462403 l 0.08324,0.3175 0.08324,0.3175 0.05805,0.24019 0.05805,0.24018 0.299678,-0.30854 0.299678,-0.30853 0.347553,-0.20368 0.347553,-0.20368 0.548246,-0.14076 0.548246,-0.14076 0.635,0.0512 0.635,0.0512 0.323493,0.092 0.323492,0.092 0.338155,0.3055 0.338156,0.3055 0.134707,0.26037 0.134708,0.26036 0.126759,0.42333 0.126759,0.42334 0.03642,3.19616 0.03642,3.19617 H 72.52535 71.851343 l -0.04628,-2.8575 -0.04628,-2.8575 -0.09721,-0.39873 -0.09721,-0.39874 -0.184664,-0.27402 -0.184663,-0.27402 -0.275391,-0.16084 -0.275392,-0.16084 -0.574681,-0.004 -0.574681,-0.004 -0.419639,0.18556 -0.41964,0.18557 -0.240728,0.22829 -0.240728,0.22829 -0.203772,0.39936 -0.203772,0.39935 v 2.88148 2.88148 h -0.677333 -0.677333 z m 8.889999,-1.651 v -5.88434 h 3.513667 3.513666 v 1.05834 1.05833 h -2.328333 -2.328333 v 1.397 1.397 h 2.159 2.159 v 1.05833 1.05834 h -2.159 -2.159 v 2.37066 2.37067 h -1.185333 -1.185334 z m 8.487042,1.67216 0.02196,-4.21216 0.857939,-0.024 0.857938,-0.024 0.05692,0.23568 0.05692,0.23569 0.086,0.32774 0.086,0.32774 0.133963,-0.20074 0.133963,-0.20074 0.219849,-0.24059 0.219849,-0.24058 0.30973,-0.15934 0.309731,-0.15934 0.333325,-0.0533 0.333325,-0.0533 0.489168,0.10155 0.489167,0.10155 -0.0526,0.39401 -0.0526,0.39401 -0.09557,0.66322 -0.09556,0.66323 -0.179727,-0.05 -0.179728,-0.05 -0.465667,-0.0478 -0.465667,-0.0478 -0.380316,0.19664 -0.380317,0.19665 -0.191183,0.28768 -0.191184,0.28769 v 2.78148 2.78148 h -1.14379 -1.14379 z m 14.288291,-0.0241 v -4.23629 l 0.867094,0.0241 0.867093,0.0241 0.114869,0.5336 0.114866,0.5336 0.44242,-0.41842 0.44242,-0.41842 0.37478,-0.19943 0.37479,-0.19942 0.889,-4.3e-4 0.889,-4.2e-4 0.33867,0.17679 0.33866,0.17679 0.26653,0.34764 0.26654,0.34763 0.0381,0.11058 0.0381,0.11057 0.38958,-0.43102 0.38958,-0.43102 0.52226,-0.23438 0.52227,-0.23438 0.85784,0.035 0.85784,0.035 0.35493,0.18513 0.35493,0.18514 0.2095,0.27594 0.2095,0.27595 0.13162,0.33867 0.13162,0.33867 0.0865,0.55033 0.0865,0.55033 6.8e-4,2.94217 6.8e-4,2.94217 h -1.09227 -1.09227 l -0.0369,-2.8575 -0.0369,-2.8575 -0.12587,-0.33867 -0.12587,-0.33867 -0.2901,-0.14803 -0.2901,-0.14804 -0.27789,-1.3e-4 -0.27789,-1.4e-4 -0.28245,0.11802 -0.28245,0.11801 -0.244,0.31976 -0.24407,0.31978 -0.0243,2.90655 -0.0243,2.90656 h -1.13983 -1.13984 v -2.65544 -2.65545 l -0.0857,-0.45165 -0.0857,-0.45165 -0.18188,-0.19361 -0.18189,-0.19361 -0.28279,-0.053 -0.2828,-0.0531 -0.29814,0.0559 -0.29814,0.0559 -0.29885,0.26239 -0.29885,0.2624 -0.12267,0.23722 -0.12268,0.23723 v 2.79821 2.7982 h -1.100666 -1.100666 z"
         style="fill:#abdcdc;stroke-width:0.08466666" />
      <path
         id="path3768"
         d="m 74.388943,256.77149 -0.278011,-0.12079 -0.164629,-0.36273 -0.164629,-0.36272 v -0.46567 -0.46566 l 0.160821,-0.35422 0.16082,-0.35422 0.256449,-0.13262 0.256449,-0.13261 h 0.304742 0.304743 l 0.248362,0.12843 0.248363,0.12844 0.147918,0.27373 0.14792,0.27373 0.0017,0.635 0.0017,0.635 -0.165613,0.2738 -0.165614,0.2738 -0.270515,0.12837 -0.270516,0.12837 -0.241204,-0.003 -0.241205,-0.003 -0.278012,-0.1208 z m 1.118944,-0.49717 0.175068,-0.23449 v -0.58025 -0.58025 l -0.174485,-0.2337 -0.174484,-0.2337 -0.224685,-0.0749 -0.224685,-0.0749 -0.23583,0.11198 -0.235831,0.11199 -0.152812,0.29624 -0.152813,0.29623 0.0313,0.48797 0.0313,0.48798 0.171481,0.22967 0.171481,0.22969 0.204034,0.0503 0.204034,0.0503 0.205933,-0.0529 0.205932,-0.0529 z m 1.152995,-0.7089 -0.36881,-1.3335 -0.03845,-0.10584 -0.03845,-0.10583 h 0.176027 0.176026 l 0.126157,0.4445 0.126157,0.4445 0.164407,0.635 0.164406,0.635 0.04381,-0.127 0.04381,-0.127 0.28182,-0.91738 0.281822,-0.91738 0.08467,-0.009 0.08467,-0.009 0.299288,0.96886 0.299288,0.96886 0.05386,0.127 0.05386,0.127 0.01127,-0.21167 0.01128,-0.21167 0.235901,-0.889 0.235903,-0.889 0.140507,-0.0274 0.140506,-0.0274 -5.08e-4,0.0697 -5.08e-4,0.0697 -0.366416,1.34997 -0.366416,1.34996 -0.09251,0.0308 -0.09251,0.0308 -0.295507,-0.95747 -0.295507,-0.95747 -0.02825,-0.1612 -0.02825,-0.16119 -0.331827,1.11369 -0.331826,1.1137 h -0.09547 -0.09547 l -0.36881,-1.3335 z m 10.028739,0.35543 -0.677333,-0.97627 -0.08467,-0.12511 -0.08467,-0.1251 0.02987,1.05994 0.02987,1.05994 H 85.724649 85.54661 v -1.40406 -1.40405 l 0.105368,0.0351 0.105369,0.0351 0.580292,0.79744 0.580292,0.79743 0.16069,0.254 0.160688,0.254 3.39e-4,-1.08571 3.39e-4,-1.08571 0.148166,0.0285 0.148167,0.0284 0.02321,1.41709 0.02321,1.41709 -0.107881,-9e-4 -0.10788,-9e-4 -0.677334,-0.97627 z m 2.077214,0.82977 -0.293453,-0.14804 -0.166212,-0.28779 -0.166213,-0.28778 -0.0055,-0.51655 -0.0055,-0.51654 0.173077,-0.33091 0.173079,-0.33091 0.292058,-0.15826 0.292059,-0.15825 0.465666,0.0235 0.465667,0.0235 v 0.127 0.127 h -0.493747 -0.493748 l -0.247086,0.27651 -0.247086,0.2765 v 0.59784 0.59785 l 0.2522,0.25219 0.252199,0.2522 0.403968,-0.0259 0.403964,-0.0259 0.02534,-0.39068 0.02534,-0.39068 -0.342837,-0.0548 -0.342836,-0.0548 v -0.0837 -0.0837 h 0.465667 0.465666 v 0.62672 0.62672 l -0.266634,0.093 -0.266634,0.0929 -0.262532,-1.7e-4 -0.262533,-1.7e-4 -0.293453,-0.14804 z m 8.388955,0.003 -0.286498,-0.14114 -0.156143,-0.34377 -0.156143,-0.34377 v -0.46566 -0.46567 l 0.160821,-0.35422 0.16082,-0.35422 0.25645,-0.13261 0.256448,-0.13262 h 0.304743 0.304742 l 0.256449,0.13262 0.256449,0.13261 0.16082,0.35422 0.160821,0.35422 v 0.46567 0.46566 l -0.156734,0.34509 -0.156733,0.34509 -0.298703,0.14175 -0.298703,0.14174 -0.241204,-0.002 -0.241204,-0.002 -0.286498,-0.14114 z m 1.12743,-0.47961 0.175068,-0.23448 v -0.58025 -0.58025 l -0.174486,-0.23371 -0.174484,-0.2337 -0.224685,-0.0749 -0.224684,-0.0749 -0.235831,0.11199 -0.23583,0.11198 -0.153466,0.29624 -0.153465,0.29624 0.04078,0.49979 0.04078,0.4998 0.162653,0.21785 0.162653,0.21786 0.204034,0.0503 0.204034,0.0503 0.205932,-0.0529 0.205932,-0.0529 z m 3.44457,0.47961 -0.2865,-0.14114 -0.15614,-0.34377 -0.15614,-0.34377 v -0.46566 -0.46567 l 0.16082,-0.35422 0.16082,-0.35422 0.25645,-0.13261 0.25644,-0.13262 h 0.30475 0.30474 l 0.25645,0.13262 0.25645,0.13261 0.16082,0.35422 0.16082,0.35422 v 0.46567 0.46566 l -0.15674,0.34509 -0.15673,0.34509 -0.2987,0.14175 -0.2987,0.14174 -0.24121,-0.002 -0.2412,-0.002 -0.2865,-0.14114 z m 1.12743,-0.47961 0.17507,-0.23448 v -0.58025 -0.58025 l -0.17449,-0.23371 -0.17448,-0.2337 -0.22469,-0.0749 -0.22468,-0.0749 -0.23583,0.11199 -0.23583,0.11198 -0.15347,0.29624 -0.15346,0.29624 0.0408,0.49979 0.0408,0.4998 0.16266,0.21785 0.16265,0.21786 0.20403,0.0503 0.20404,0.0503 0.20593,-0.0529 0.20593,-0.0529 z m 1.65961,0.4763 -0.29345,-0.14803 -0.16848,-0.29167 -0.16848,-0.29167 v -0.55913 -0.55914 l 0.1881,-0.30435 0.1881,-0.30435 0.28663,-0.13601 0.28663,-0.13602 h 0.42671 0.4267 l 0.0417,0.0675 0.0417,0.0675 -0.0579,0.0887 -0.0579,0.0887 -0.44246,-0.008 -0.44246,-0.008 -0.21961,0.2195 -0.21962,0.2195 -0.0733,0.32509 -0.0733,0.32509 0.0719,0.3848 0.0719,0.38481 0.22866,0.19668 0.22867,0.19669 0.39251,-0.0254 0.39251,-0.0254 v -0.37783 -0.37782 l -0.3175,-0.0751 -0.3175,-0.0751 v -0.0762 -0.0763 h 0.46566 0.46567 v 0.62672 0.62672 l -0.26663,0.093 -0.26664,0.0929 -0.26253,-1.7e-4 -0.26253,-1.7e-4 z m -38.102874,-1.33337 v -1.397 h 0.762 0.762 v 0.16933 0.16934 h -0.592667 -0.592667 v 0.46566 0.46567 h 0.550334 0.550333 v 0.127 0.127 h -0.550333 -0.550334 v 0.508 0.508 h 0.592667 0.592667 v 0.127 0.127 h -0.762 -0.762 z m 2.135736,0.0212 0.02326,-1.37584 h 0.121299 0.121299 l 0.50049,0.82924 0.500491,0.82924 0.423525,-0.74457 0.423525,-0.74457 0.110728,-0.11585 0.110727,-0.11586 0.09279,0.0573 0.09279,0.0574 v 1.34967 1.34967 H 70.899283 70.72995 v -1.1077 -1.1077 l -0.286258,0.5362 -0.286258,0.5362 -0.158242,0.27463 -0.158242,0.27463 -0.04426,5.1e-4 -0.04426,5.1e-4 -0.441758,-0.74084 -0.441758,-0.74083 -8.47e-4,1.03717 -8.46e-4,1.03716 H 68.6958 68.524369 l 0.02326,-1.37583 z m 3.217333,0 0.02326,-1.37584 0.334941,-0.0273 0.334941,-0.0273 0.288351,0.0541 0.288353,0.0541 0.202207,0.20221 0.202207,0.2022 v 0.36889 0.36888 l -0.177464,0.19048 -0.177464,0.19049 -0.209048,0.0795 -0.209048,0.0795 H 72.37544 72.084618 v 0.508 0.508 h -0.17143 -0.171431 z m 1.185219,-0.12299 0.150378,-0.13609 v -0.27009 -0.27009 l -0.155913,-0.1411 -0.155913,-0.1411 -0.33092,-0.0202 -0.330921,-0.0202 -0.02511,0.62529 -0.02511,0.62528 0.361563,-0.0578 0.361561,-0.0578 z m 6.923711,0.0985 v -1.40029 l 0.739881,0.0245 0.73988,0.0245 0.02833,0.14817 0.02833,0.14817 h -0.598875 -0.598874 v 0.46566 0.46567 h 0.550333 0.550333 v 0.127 0.127 H 80.76296 80.212627 v 0.508 0.508 h 0.592666 0.592667 v 0.127 0.127 h -0.762 -0.762 z m 2.135736,0.0245 0.02326,-1.37584 0.417722,-0.0264 0.417723,-0.0264 0.198265,0.0498 0.198264,0.0498 0.16718,0.16718 0.167179,0.16718 v 0.34252 0.34251 l -0.207818,0.20782 -0.207818,0.20782 h -0.101637 -0.101638 l 0.130452,0.14817 0.130451,0.14816 0.308606,0.48684 0.308606,0.48683 -0.193102,-9.1e-4 -0.193102,-9e-4 -0.381,-0.59086 -0.381,-0.59085 -0.1905,-9.1e-4 -0.1905,-9e-4 v 0.59266 0.59267 h -0.17143 -0.171431 z m 1.142126,-0.28574 0.108805,-0.1488 v -0.1793 -0.1793 l -0.112151,-0.15337 -0.11215,-0.15338 -0.33235,-0.011 -0.332349,-0.011 -0.02551,0.5409 -0.02551,0.5409 0.361207,-0.0485 0.361208,-0.0485 z m 1.294138,0.26457 v -1.397 h 0.169333 0.169334 v 1.397 1.397 h -0.169334 -0.169333 z m 7.300402,0.0212 0.02326,-1.37584 h 0.620845 0.620845 l 0.246988,0.27651 0.246989,0.2765 v 0.20482 0.20482 l -0.08256,0.21714 -0.08256,0.21713 -0.277276,0.16906 -0.277278,0.16906 -0.359833,3.3e-4 -0.359833,3.4e-4 v 0.508 0.508 h -0.171431 -0.17143 l 0.02326,-1.37583 z m 1.17899,-0.0703 0.142844,-0.0764 0.05485,-0.24974 0.05485,-0.24974 -0.09169,-0.17131 -0.09168,-0.17132 -0.33093,-0.0991 -0.330929,-0.0992 -0.133356,0.0512 -0.133355,0.0512 v 0.53888 0.53888 l 0.06215,0.0621 0.06215,0.0622 0.296125,-0.0555 0.296125,-0.0556 z m 1.087941,0.0429 v -1.40321 l 0.148166,0.0283 0.148167,0.0283 0.02488,0.61293 0.02488,0.61294 h 0.627581 0.627582 l 0.02488,-0.61294 0.02488,-0.61293 0.148166,-0.0283 0.148167,-0.0283 v 1.40321 1.40321 H 95.791304 95.62197 v -0.635 -0.635 h -0.635 -0.635 v 0.635 0.635 h -0.169333 -0.169333 z m 5.842,0.17554 v -1.22766 h -0.471875 -0.471875 l 0.02853,-0.14817 0.02854,-0.14817 h 1.013681 1.013681 l 0.0285,0.14817 0.0285,0.14817 h -0.47188 -0.47187 v 1.22766 1.22767 h -0.127001 -0.127 z m 6.623072,-0.14816 0.0233,-1.37584 h 0.57884 0.57883 l 0.20433,0.23756 0.20433,0.23755 v 0.21115 0.21115 l -0.12607,0.2438 -0.12607,0.24379 -0.16676,0.0529 -0.16676,0.0529 0.3775,0.58894 0.3775,0.58893 v 0.0415 0.0415 h -0.16989 -0.16989 l -0.37989,-0.59267 -0.37989,-0.59266 h -0.16989 -0.16989 v 0.59266 0.59267 h -0.17143 -0.17143 z m 1.04311,-0.27132 0.20782,-0.20782 v -0.1347 -0.13469 l -0.21329,-0.21329 -0.21328,-0.21329 -0.23122,0.0266 -0.23121,0.0266 -0.0252,0.52917 -0.0252,0.52917 h 0.26189 0.26189 z m 1.14954,0.94865 0.26014,-0.6985 0.25811,-0.70143 0.2581,-0.70143 0.086,0.0287 0.086,0.0287 0.49375,1.30776 0.49374,1.30776 5.1e-4,0.0635 5.1e-4,0.0635 h -0.16228 -0.16228 l -0.11961,-0.35983 -0.1196,-0.35984 -0.50953,-0.0249 -0.50953,-0.0249 -0.14692,0.3847 -0.14692,0.38471 h -0.1602 -0.1602 l 0.26013,-0.6985 z m 1.05858,-0.90257 -0.17997,-0.58507 -0.0381,0.0376 -0.0382,0.0376 -0.15111,0.48396 -0.15111,0.48397 -10e-4,0.0635 -0.001,0.0635 h 0.37047 0.37046 z m 1.3017,0.20407 v -1.397 h 0.1252 0.1252 l 0.48863,0.84317 0.48863,0.84317 0.0635,0.003 0.0635,0.004 v -0.0908 -0.0908 l 0.4445,-0.75381 0.4445,-0.75382 0.10584,-0.002 0.10583,-0.002 v 1.397 1.397 h -0.127 -0.127 l -0.002,-1.12183 -0.002,-1.12184 -0.25323,0.49014 -0.25324,0.49014 -0.21784,0.34509 -0.21785,0.34509 -0.0688,-0.0732 -0.0688,-0.0732 -0.4108,-0.72204 -0.4108,-0.72205 0.0279,1.08188 0.0279,1.08188 h -0.17606 -0.17606 v -1.397 z m 3.15173,0.0212 0.0233,-1.37584 h 0.127 0.127 l 0.4993,0.82521 0.49929,0.82521 0.4788,-0.82521 0.47879,-0.82521 h 0.12258 0.12257 l 0.0233,1.37584 0.0233,1.37583 h -0.17143 -0.17143 l -1.7e-4,-1.0795 -1.7e-4,-1.0795 -0.42386,0.75566 -0.42386,0.75567 -0.0364,0.0364 -0.0364,0.0364 -0.39338,-0.61372 -0.39339,-0.61372 -0.0721,-0.17838 -0.0721,-0.17839 -0.005,1.0795 -0.005,1.0795 h -0.17143 -0.17143 z m 3.19827,-0.0212 v -1.397 h 0.762 0.762 v 0.16933 0.16934 h -0.59267 -0.59267 v 0.46566 0.46567 h 0.55034 0.55033 v 0.127 0.127 h -0.55033 -0.55034 v 0.508 0.508 h 0.59267 0.59267 v 0.127 0.127 h -0.762 -0.762 z m 2.70933,0.16933 v -1.22766 h -0.42333 -0.42334 v -0.16934 -0.16933 h 1.016 1.016 v 0.16933 0.16934 h -0.42333 -0.42333 v 1.22766 1.22767 h -0.16934 -0.16933 z m 1.60867,-0.12538 v -1.35306 l 0.21625,-0.0543 0.21626,-0.0543 0.42581,0.0409 0.42581,0.0409 0.18151,0.18151 0.18151,0.18151 v 0.3469 0.3469 l -0.27368,0.24454 -0.27368,0.24453 0.2857,0.40297 0.28569,0.40297 0.0987,0.1905 0.0987,0.1905 -0.19348,-0.003 -0.19348,-0.003 -0.36674,-0.58921 -0.36675,-0.58921 h -0.20475 -0.20476 v 0.59266 0.59267 h -0.16933 -0.16933 v -1.35305 z m 1.08646,-0.22133 0.1928,-0.13504 -0.0258,-0.30886 -0.0258,-0.30885 -0.23907,-0.11405 -0.23908,-0.11404 -0.20542,0.0515 -0.20543,0.0516 v 0.50639 0.50639 h 0.2775 0.27749 z m 1.70754,1.05411 v -0.52026 l -0.47402,-0.88372 -0.47403,-0.88372 0.19676,0.0281 0.19675,0.0282 0.3831,0.68238 0.3831,0.68237 0.31452,-0.66272 0.31452,-0.66272 0.13363,-0.0513 0.13364,-0.0513 0.0484,0.0484 0.0484,0.0484 -0.43302,0.80326 -0.43303,0.80326 v 0.55583 0.55583 h -0.16933 -0.16933 z m -71.077667,-0.61721 -0.08467,-0.0345 -0.402166,-0.0542 -0.402167,-0.0542 v -0.0824 -0.0824 l 4.159223,-4.18722 4.159222,-4.18722 -0.03838,-0.46277 -0.03838,-0.46277 -0.249585,-0.40369 -0.249585,-0.40369 -0.3914,-0.24199 -0.391401,-0.24198 -0.354523,-0.0476 -0.354523,-0.0476 -2.768475,2.7638 -2.768475,2.7638 h -0.255263 -0.255263 l -0.1016,-0.1016 -0.1016,-0.1016 v -0.25872 -0.25872 l 2.757994,-2.75118 2.757993,-2.75118 -0.04711,-0.42279 -0.04711,-0.42279 -0.234379,-0.33115 -0.23438,-0.33115 -0.300263,-0.24175 -0.300263,-0.24175 -0.485555,-0.10184 -0.485557,-0.10185 -2.770655,2.7697 -2.770655,2.7697 h -0.276508 -0.276508 l -0.09611,-0.21094 -0.09611,-0.21094 0.07676,-0.16851 0.07676,-0.1685 4.13321,-4.1913 4.133209,-4.19131 0.311791,0.12971 0.31179,0.12972 0.70366,0.44054 0.703662,0.44053 0.622733,0.57202 0.622734,0.57203 0.457725,0.61331 0.457724,0.61331 0.262277,0.46567 0.262277,0.46566 0.248865,0.635 0.248864,0.635 0.160072,0.635 0.160074,0.635 -0.0017,1.48167 -0.0017,1.48167 -0.223547,0.80433 -0.223546,0.80433 -0.297392,0.65243 -0.297392,0.65243 -0.397817,0.61496 -0.397817,0.61496 -0.815204,0.81256 -0.815204,0.81256 -0.7133,0.43715 -0.713302,0.43714 -0.626512,0.26082 -0.626512,0.26082 -0.649854,0.17296 -0.649853,0.17297 -1.312333,0.0325 -1.312333,0.0325 -0.08467,-0.0345 z m -2.941458,-0.93166 -0.570791,-0.28565 -0.541269,-0.38624 -0.54127,-0.38625 -0.471902,-0.43129 -0.471903,-0.43129 -0.475093,-0.63125 -0.475094,-0.63125 -0.368286,-0.69699 -0.368286,-0.69698 -0.180193,-0.55034 -0.180193,-0.55033 -0.126441,-0.59267 -0.126441,-0.59266 -0.04897,-0.762 -0.04897,-0.762 0.09577,-0.77714 0.09577,-0.77714 0.215835,-0.74686 0.215835,-0.74686 0.368513,-0.73207 0.368513,-0.73206 0.433846,-0.59649 0.433847,-0.59648 0.748379,-0.70345 0.748379,-0.70345 0.708928,-0.42127 0.708929,-0.42126 0.737822,-0.27777 0.737822,-0.27777 0.616844,-0.13839 0.616845,-0.1384 1.227667,-0.008 1.227667,-0.008 0.498447,0.11272 0.498447,0.11273 -4.213035,4.21616 -4.213035,4.21615 0.03561,0.53793 0.03561,0.53793 0.235585,0.35306 0.235585,0.35307 0.353062,0.23408 0.353063,0.23409 0.452813,0.0379 0.452812,0.0379 2.809781,-2.80517 2.809781,-2.80517 h 0.150806 0.150805 l 0.163768,0.0876 0.163767,0.0876 v 0.31159 0.3116 l -2.794,2.79858 -2.794,2.79859 v 0.15785 0.15785 l 0.09826,0.32796 0.09826,0.32797 0.291836,0.34094 0.291837,0.34095 0.339633,0.17327 0.339633,0.17327 0.369236,0.0143 0.369236,0.0143 2.777504,-2.77282 2.777503,-2.77281 h 0.223816 0.223815 l 0.133048,0.13305 0.133048,0.13305 v 0.22257 0.22257 l -1.925224,1.95155 -1.925223,1.95155 -2.286366,2.30716 -2.286366,2.30717 -0.08524,-0.003 -0.08524,-0.003 z m 63.478125,-3.12594 -0.42334,-0.11166 -0.3157,-0.13556 -0.31571,-0.13556 -0.42235,-0.39506 -0.42235,-0.39505 -0.20559,-0.35085 -0.20559,-0.35085 -0.19717,-0.635 -0.19718,-0.635 -0.001,-1.18533 -10e-4,-1.18533 0.15456,-0.508 0.15457,-0.508 0.26148,-0.49284 0.26149,-0.49284 0.37667,-0.33156 0.37667,-0.33156 0.43383,-0.20475 0.43383,-0.20476 0.53126,-0.10411 0.53126,-0.1041 0.78108,0.0433 0.78107,0.0433 0.4492,0.17346 0.4492,0.17346 0.36072,0.29558 0.36072,0.29558 0.26101,0.49394 0.26101,0.49393 0.10412,0.508 0.10411,0.508 -0.0539,0.80433 -0.0539,0.80433 -0.0515,0.1905 -0.0516,0.1905 h -2.48779 -2.48779 v 0.21651 0.21651 l 0.0978,0.38837 0.0978,0.38837 0.34671,0.35877 0.34671,0.35877 0.44866,0.0947 0.44867,0.0947 h 0.35905 0.35904 l 0.49785,-0.12967 0.49785,-0.12968 0.32333,-0.18172 0.32332,-0.18171 0.0334,0.0362 0.0334,0.0362 0.34681,0.69325 0.34682,0.69326 -0.44281,0.25113 -0.44281,0.25113 -0.59266,0.18604 -0.59267,0.18603 -0.97367,0.032 -0.97366,0.032 -0.42334,-0.11167 z m 2.6015,-5.59992 -0.0232,-0.42333 -0.13034,-0.29634 -0.13035,-0.29633 -0.22544,-0.16654 -0.22543,-0.16654 -0.51006,-0.0294 -0.51005,-0.0294 -0.381,0.19592 -0.381,0.19592 -0.2268,0.46567 -0.22681,0.46566 -0.0555,0.27711 -0.0555,0.2771 1.55232,-0.0231 1.55232,-0.0231 z m 4.91119,5.62645 -0.44598,-0.0798 -0.67586,-0.26063 -0.67585,-0.26064 v -0.11361 -0.11362 l 0.26642,-0.70573 0.26642,-0.70573 0.0242,-0.0295 0.0242,-0.0295 0.68825,0.26541 0.68825,0.26542 0.65099,0.0452 0.65099,0.0452 0.29543,-0.15407 0.29542,-0.15406 0.0766,-0.22095 0.0766,-0.22094 -0.0561,-0.2235 -0.0561,-0.22351 -0.3159,-0.19806 -0.3159,-0.19806 -0.82617,-0.319 -0.82617,-0.319 -0.34796,-0.23369 -0.34797,-0.2337 -0.28628,-0.36177 -0.28628,-0.36178 -0.094,-0.34802 -0.094,-0.34802 0.0354,-0.67839 0.0353,-0.67838 0.24215,-0.44491 0.24215,-0.44491 0.38626,-0.25585 0.38625,-0.25584 0.46506,-0.1352 0.46506,-0.13519 1.01827,0.0461 1.01827,0.0462 0.67733,0.21905 0.67733,0.21905 0.10225,0.0666 0.10225,0.0666 -0.23537,0.75922 -0.23536,0.75922 -0.16322,-0.0116 -0.16321,-0.0116 -0.66971,-0.17886 -0.66971,-0.17886 -0.47329,0.001 -0.47329,0.001 -0.21026,0.10638 -0.21027,0.10639 -0.0771,0.21914 -0.0771,0.21914 0.056,0.2231 0.056,0.22309 0.48534,0.2404 0.48534,0.2404 0.55033,0.20143 0.55033,0.20142 0.35715,0.19938 0.35714,0.19937 0.36771,0.40897 0.3677,0.40898 0.10065,0.33594 0.10065,0.33595 v 0.50962 0.50962 l -0.14635,0.45422 -0.14636,0.45423 -0.42514,0.43371 -0.42515,0.43372 -0.508,0.18922 -0.508,0.18921 -0.889,0.0289 -0.889,0.0289 -0.44597,-0.0798 z m -30.437507,-0.0829 -0.318816,-0.0805 -0.316184,-0.16296 -0.316185,-0.16297 -0.27083,-0.28258 -0.270829,-0.28259 -0.187423,-0.42333 -0.187424,-0.42334 v -0.59266 -0.59267 l 0.171579,-0.38692 0.17158,-0.38691 0.320819,-0.31158 0.32082,-0.31157 0.460528,-0.21787 0.460529,-0.21786 0.563659,-0.11739 0.563659,-0.11739 0.911117,-0.0246 0.911117,-0.0246 0.04999,-0.15732 0.04999,-0.15732 -0.05568,-0.44563 -0.05568,-0.44562 -0.164945,-0.17705 -0.164945,-0.17705 -0.35949,-0.0998 -0.359488,-0.0998 -0.846667,0.0921 -0.846667,0.0921 -0.534058,0.16653 -0.534059,0.16653 -0.07081,-0.18623 -0.0708,-0.18623 -0.185398,-0.62254 -0.185399,-0.62253 0.112928,-0.073 0.112929,-0.073 0.550333,-0.16577 0.550333,-0.16577 0.624789,-0.0963 0.624788,-0.0963 1.068545,0.0328 1.068545,0.0328 0.442557,0.19667 0.442557,0.19667 0.336351,0.3649 0.336352,0.3649 0.150288,0.49334 0.150287,0.49335 -0.0402,1.43933 -0.0402,1.43933 0.017,1.31234 0.01699,1.31233 0.118769,0.4445 0.118769,0.4445 H 95.52725 94.610685 l -0.139734,-0.48683 -0.139734,-0.48684 -0.03795,-0.0651 -0.03796,-0.0651 -0.377521,0.38844 -0.377521,0.38844 -0.463999,0.21243 -0.463999,0.21242 -0.612989,0.0326 -0.61299,0.0326 z m 2.11247,-1.86563 0.238345,-0.0897 0.3175,-0.30847 0.3175,-0.30848 v -0.56606 -0.56606 l -0.28376,-0.0532 -0.283759,-0.0532 -0.610219,0.0866 -0.61022,0.0865 -0.243881,0.12612 -0.243882,0.12611 -0.13214,0.18866 -0.132139,0.18865 v 0.3254 0.32539 l 0.0868,0.16218 0.08679,0.16218 0.230705,0.1252 0.230705,0.1252 0.396655,0.003 0.396655,0.003 0.238345,-0.0897 z m -26.727987,-2.41219 v -4.19522 l 0.48601,0.0254 0.48601,0.0254 0.02842,0.16934 0.02842,0.16933 0.08458,0.32891 0.08458,0.32891 0.353497,-0.34449 0.353498,-0.3445 0.426748,-0.21279 0.426748,-0.21279 0.589252,-0.0946 0.589252,-0.0946 0.508,0.0561 0.507999,0.0561 0.381,0.16557 0.381,0.16556 0.225021,0.21548 0.225021,0.21549 0.216649,0.48276 0.21665,0.48276 0.0868,0.75772 0.0868,0.75771 6.78e-4,2.64584 6.77e-4,2.64583 H 72.514697 71.84414 l -0.03389,-2.89983 -0.03389,-2.89984 -0.150458,-0.46121 -0.150459,-0.4612 -0.272039,-0.27204 -0.272039,-0.27204 -0.373738,-0.10064 -0.373738,-0.10064 -0.418525,0.0555 -0.418525,0.0555 -0.303289,0.12669 -0.303255,0.12669 -0.244214,0.22834 -0.244215,0.22835 -0.242619,0.37641 -0.242619,0.37641 v 2.94675 2.94676 h -0.677333 -0.677333 z m 8.889999,-1.6891 v -5.88434 h 3.513667 3.513666 v 1.016 1.016 h -2.328333 -2.328333 v 1.43788 1.43788 l 2.137833,0.0226 2.137833,0.0226 0.02377,1.03717 0.02377,1.03717 h -2.161606 -2.161606 v 2.37066 2.37067 h -1.185333 -1.185334 z m 8.487042,1.67216 0.02196,-4.21216 0.82091,-0.0242 0.820909,-0.0242 0.08656,0.16174 0.08656,0.16174 0.05615,0.35115 0.05615,0.35115 0.07354,0.0454 0.07355,0.0454 v -0.0744 -0.0744 l 0.305431,-0.35683 0.30543,-0.35683 0.308403,-0.15626 0.308403,-0.15627 0.338666,-0.0553 0.338667,-0.0553 0.459209,0.0881 0.459209,0.0881 0.03191,0.0319 0.03191,0.0319 -0.138736,1.00465 -0.138735,1.00466 -0.02459,0.025 -0.02459,0.025 -0.395046,-0.0995 -0.395046,-0.0995 -0.390725,0.0536 -0.390726,0.0536 -0.282949,0.21581 -0.28295,0.21582 -0.126911,0.24542 -0.126912,0.24542 v 2.75587 2.75587 h -1.14379 -1.14379 z m 14.288291,-0.0212 v -4.23334 h 0.843403 0.843403 l 0.08674,0.32212 0.08674,0.32211 0.05091,0.25452 0.05091,0.25453 0.49405,-0.48343 0.49404,-0.48343 0.49341,-0.186 0.49341,-0.18599 0.71966,0.0353 0.71967,0.0353 0.35539,0.18395 0.35539,0.18395 0.25844,0.37564 0.25845,0.37563 v 0.11029 0.11029 l 0.37106,-0.42418 0.37107,-0.42418 0.45119,-0.24557 0.45119,-0.24557 0.66862,-0.0387 0.66862,-0.0387 0.45021,0.10075 0.4502,0.10075 0.32814,0.2377 0.32814,0.23771 0.22982,0.51211 0.22983,0.51212 0.0807,0.62134 0.0807,0.62134 0.003,2.8575 0.003,2.8575 h -1.09381 -1.09381 l -0.0354,-2.8575 -0.0354,-2.8575 -0.10361,-0.3219 -0.10361,-0.32191 -0.26997,-0.16964 -0.26997,-0.16964 -0.44801,0.0331 -0.44802,0.0331 -0.22932,0.16986 -0.22932,0.16986 -0.1905,0.27991 -0.1905,0.2799 v 2.86614 2.86615 h -1.143 -1.143 v -2.70517 -2.70516 l -0.0895,-0.41727 -0.0895,-0.41728 -0.19852,-0.1865 -0.19852,-0.1865 -0.34768,-0.0466 -0.34767,-0.0466 -0.38864,0.14842 -0.38863,0.14842 -0.24568,0.3874 -0.24568,0.3874 v 2.81975 2.81976 H 99.178866 98.0782 Z"
         style="fill:#b0b1b2;stroke-width:0.08466666" />
      <path
         id="path3766"
         d="m 74.539999,256.80655 -0.211623,-0.0871 -0.186893,-0.17557 -0.186893,-0.17558 -0.09511,-0.45816 -0.09511,-0.45816 0.05872,-0.35601 0.05872,-0.35601 0.134857,-0.23147 0.134857,-0.23146 0.287919,-0.13663 0.28792,-0.13663 0.360461,0.0541 0.360461,0.054 0.170259,0.18704 0.170259,0.18704 0.107698,0.20819 0.107698,0.2082 v 0.5551 0.55509 l -0.141213,0.27308 -0.141213,0.27307 -0.188738,0.12154 -0.188738,0.12153 -0.296334,0.046 -0.296333,0.046 z m 0.711559,-0.25803 0.21157,-0.0964 0.140247,-0.29555 0.140246,-0.29555 -0.03425,-0.53791 -0.03425,-0.53792 -0.244755,-0.25547 -0.244754,-0.25547 h -0.243726 -0.243725 l -0.162891,0.0872 -0.162891,0.0872 -0.136704,0.26436 -0.136704,0.26435 0.03332,0.58972 0.03332,0.58972 0.273173,0.24408 0.273175,0.24409 h 0.164014 0.164013 z m 1.791169,0.25872 -0.04278,-0.11999 -0.340777,-1.22767 -0.340776,-1.22766 -2.21e-4,-0.0635 -2.2e-4,-0.0635 h 0.121295 0.121294 l 0.0455,0.14816 0.0455,0.14817 0.213995,0.80433 0.213995,0.80434 2.54e-4,0.19549 2.54e-4,0.1955 0.08467,-0.0523 0.08467,-0.0523 8.46e-4,-0.18551 8.47e-4,-0.1855 0.274341,-0.8747 0.274341,-0.87471 0.08356,5.9e-4 0.08356,6e-4 0.274602,0.87409 0.274602,0.87409 0.0017,0.18551 0.0017,0.1855 0.08467,0.0523 0.08467,0.0523 0.0022,-0.19549 0.0022,-0.1955 0.235933,-0.93119 0.235933,-0.93119 0.136234,-0.0262 0.136234,-0.0262 -0.205876,0.74576 -0.205877,0.74576 -0.177748,0.65616 -0.177748,0.65617 h -0.06279 -0.0628 l -0.309534,-1.03717 -0.309535,-1.03716 5.93e-4,-0.11995 5.93e-4,-0.11994 -0.03972,0.0397 -0.03972,0.0397 -0.305183,1.05389 -0.305181,1.05389 -0.07566,0.0777 -0.07566,0.0777 -0.04278,-0.11999 z m 9.725641,-0.81849 -0.645443,-0.91017 -0.139985,-0.254 -0.139985,-0.254 -0.02363,1.12184 -0.02362,1.12183 H 85.671162 85.54662 v -1.397 -1.397 h 0.0707 0.0707 l 0.712461,1.00477 0.712463,1.00476 0.08816,0.15031 0.08816,0.15031 -0.03467,-1.11274 -0.03467,-1.11274 h 0.137012 0.137011 v 1.397 1.397 h -0.04007 -0.04007 z m 2.219323,0.82575 -0.241931,-0.0751 -0.168904,-0.15285 -0.168904,-0.15286 -0.118332,-0.22883 -0.118332,-0.22883 1.69e-4,-0.49104 1.7e-4,-0.49103 0.148034,-0.29032 0.148036,-0.29031 0.213652,-0.1564 0.213652,-0.15639 0.310918,-0.0505 0.310919,-0.0505 0.216262,0.0543 0.216263,0.0543 v 0.11733 0.11733 l -0.337069,-0.0452 -0.337068,-0.0452 -0.266326,0.11032 -0.266325,0.11031 -0.156746,0.34512 -0.156747,0.34512 v 0.29633 0.29634 l 0.156747,0.34511 0.156746,0.34512 0.263316,0.10907 0.263317,0.10907 0.297744,-0.0559 0.297745,-0.0559 v -0.41044 -0.41044 l -0.133925,-0.0514 -0.133924,-0.0514 h -0.204743 -0.204742 v -0.0847 -0.0847 h 0.465667 0.465667 v 0.58969 0.58969 l -0.149726,0.0801 -0.149725,0.0801 -0.294775,0.0452 -0.294774,0.0452 -0.241931,-0.0752 z m 8.24581,-0.0639 -0.293453,-0.14804 -0.168478,-0.29167 -0.168478,-0.29166 0.0019,-0.555 0.0019,-0.555 0.133862,-0.2542 0.133861,-0.2542 0.187068,-0.16913 0.187066,-0.16914 0.455698,0.004 0.455699,0.004 0.250349,0.23985 0.250347,0.23984 0.09191,0.42855 0.09191,0.42854 -0.05332,0.35557 -0.05332,0.35556 -0.162886,0.26784 -0.162886,0.26785 -0.291761,0.1219 -0.291759,0.12191 -0.150886,-1.7e-4 -0.150887,-1.7e-4 -0.293453,-0.14804 z m 0.838812,-0.23013 0.240616,-0.12443 0.09385,-0.26921 0.09385,-0.2692 v -0.40519 -0.40519 l -0.07948,-0.20904 -0.07948,-0.20905 -0.190485,-0.17747 -0.190485,-0.17746 h -0.284217 -0.284217 l -0.202207,0.20221 -0.202206,0.2022 -0.05826,0.31055 -0.05826,0.31055 0.04177,0.43472 0.04177,0.43471 0.266213,0.23786 0.266213,0.23787 h 0.172203 0.172202 z m 3.733187,0.2331 -0.29345,-0.15101 -0.16848,-0.29167 -0.16848,-0.29166 0.002,-0.555 0.002,-0.555 0.13387,-0.2542 0.13386,-0.2542 0.18706,-0.16913 0.18707,-0.16914 0.4557,0.004 0.4557,0.004 0.25151,0.24096 0.25152,0.24097 0.0929,0.44759 0.0929,0.44759 -0.0585,0.32298 -0.0585,0.32298 -0.11745,0.23204 -0.11744,0.23204 -0.18874,0.12153 -0.18874,0.12153 -0.29633,0.0514 -0.29634,0.0514 -0.29345,-0.15101 z m 0.83881,-0.2331 0.24062,-0.12443 0.0938,-0.26921 0.0939,-0.2692 v -0.40519 -0.40519 l -0.0795,-0.20904 -0.0795,-0.20905 -0.19048,-0.17747 -0.19049,-0.17746 h -0.28422 -0.28421 l -0.20221,0.20221 -0.20221,0.2022 -0.0583,0.31055 -0.0583,0.31055 0.0418,0.43472 0.0418,0.43471 0.26621,0.23786 0.26621,0.23787 h 0.1722 0.17221 z m 2.09138,0.29401 -0.24193,-0.0751 -0.1689,-0.15285 -0.16891,-0.15286 -0.11833,-0.22883 -0.11833,-0.22883 3.4e-4,-0.53337 3.3e-4,-0.53337 0.16498,-0.27057 0.16497,-0.27056 0.20676,-0.13547 0.20675,-0.13547 0.30069,-0.0488 0.3007,-0.0488 0.21626,0.0543 0.21626,0.0543 v 0.11733 0.11733 l -0.33707,-0.0452 -0.33707,-0.0452 -0.25147,0.10416 -0.25147,0.10417 -0.15082,0.22427 -0.15083,0.22427 v 0.55033 0.55034 l 0.15083,0.22427 0.15082,0.22427 0.24846,0.10291 0.24847,0.10292 0.29774,-0.0559 0.29774,-0.0559 v -0.41044 -0.41044 l -0.13392,-0.0514 -0.13392,-0.0514 h -0.20475 -0.20474 v -0.0847 -0.0847 h 0.46567 0.46566 v 0.58969 0.58969 l -0.14972,0.0801 -0.14973,0.0801 -0.29477,0.0452 -0.29478,0.0452 -0.24193,-0.0752 z m -38.323734,-1.35492 v -1.35466 h 0.769055 0.769056 l -0.03497,0.10583 -0.03497,0.10583 -0.564753,0.025 -0.564752,0.025 v 0.4618 0.4618 h 0.508 0.508 v 0.127 0.127 h -0.508 -0.508 v 0.508 0.508 h 0.592667 0.592667 v 0.127 0.127 h -0.762 -0.762 z m 2.201333,0 v -1.35466 l 0.105833,0.002 0.105834,0.002 0.498409,0.85001 0.498409,0.85002 0.315772,-0.57637 0.315772,-0.57637 0.159485,-0.27463 0.159486,-0.27463 0.105833,-5.1e-4 0.105834,-5.1e-4 v 1.35467 1.35467 h -0.127 -0.127 v -1.14703 -1.14702 l -0.329008,0.62471 -0.329008,0.6247 -0.114829,0.18387 -0.11483,0.18388 -0.07287,-0.0243 -0.07287,-0.0243 -0.437762,-0.76471 -0.437761,-0.76471 0.03295,1.12745 0.03295,1.12745 h -0.136807 -0.136807 v -1.35467 z m 3.132666,0.007 v -1.34722 l 0.329132,-0.0556 0.329131,-0.0556 0.343662,0.0925 0.343662,0.0925 0.181936,0.2308 0.181934,0.23079 -0.04322,0.32407 -0.04322,0.32407 -0.146867,0.16229 -0.146868,0.16229 -0.304807,0.0847 -0.304808,0.0847 -0.232833,5e-4 -0.232834,5.1e-4 v 0.508 0.508 h -0.127 -0.127 v -1.34722 z m 1.050135,-0.0191 0.211437,-0.0963 0.08558,-0.2455 0.08558,-0.2455 -0.07985,-0.21002 -0.07985,-0.21001 -0.218697,-0.0831 -0.218697,-0.0832 H 72.290772 71.99995 v 0.635 0.635 h 0.29235 0.292349 z m 7.077865,0.0117 v -1.35466 h 0.719667 0.719666 v 0.127 0.127 h -0.592666 -0.592667 v 0.46566 0.46567 h 0.550333 0.550334 v 0.127 0.127 h -0.550334 -0.550333 v 0.508 0.508 h 0.635 0.635 v 0.127 0.127 h -0.762 -0.762 z m 2.116667,0.008 v -1.34672 l 0.421753,-0.058 0.421754,-0.058 0.318642,0.1559 0.318641,0.15589 0.0761,0.22094 0.0761,0.22095 -0.05462,0.21763 -0.05462,0.21764 -0.131053,0.13105 -0.131053,0.13105 -0.143986,0.085 -0.143988,0.085 0.09458,0.065 0.09458,0.0651 0.307588,0.48277 0.307588,0.48277 v 0.0464 0.0464 H 83.63992 83.511212 l -0.376954,-0.58271 -0.376953,-0.58272 -0.136264,-0.0523 -0.136262,-0.0523 h -0.07774 -0.07774 v 0.635 0.635 h -0.169333 -0.169333 z m 1.119863,-0.24077 0.130108,-0.14817 0.0576,-0.18909 0.05761,-0.18909 -0.213077,-0.21308 -0.213076,-0.21307 h -0.30018 -0.300182 v 0.55033 0.55033 h 0.325544 0.325545 z m 1.33547,0.23283 v -1.35466 h 0.169333 0.169334 v 1.35466 1.35467 h -0.169334 -0.169333 z m 7.366,0.007 v -1.34794 l 0.255839,-0.0562 0.255839,-0.0562 0.334335,0.0565 0.334336,0.0565 0.214158,0.16846 0.214159,0.16846 v 0.42123 0.42123 l -0.21287,0.19728 -0.21287,0.19728 -0.26338,0.0527 -0.26338,0.0527 h -0.201083 -0.201083 v 0.508 0.508 h -0.127 -0.127 v -1.34794 z m 1.131581,-0.0975 0.223085,-0.17547 v -0.28405 -0.28404 l -0.223085,-0.17548 -0.223084,-0.17548 h -0.327249 -0.327248 v 0.635 0.635 h 0.327248 0.327249 z m 1.069752,0.0908 v -1.35466 h 0.127 0.127 v 0.59266 0.59267 h 0.719666 0.719667 v -0.59267 -0.59266 h 0.127 0.127 v 1.35466 1.35467 h -0.127 -0.127 v -0.635 -0.635 h -0.719667 -0.719666 v 0.635 0.635 h -0.127 -0.127 z m 5.842,0.127 v -1.22766 h -0.423334 -0.423333 v -0.127 -0.127 h 0.973667 0.973662 v 0.127 0.127 h -0.42333 -0.42333 v 1.22766 1.22767 h -0.127002 -0.127 z m 6.604002,-0.11618 v -1.34384 l 0.34394,-0.055 0.34394,-0.055 0.33195,0.0894 0.33195,0.0894 0.0908,0.1697 0.0908,0.16969 -0.0259,0.35383 -0.0259,0.35384 -0.27783,0.18662 -0.27783,0.18662 0.0883,0.0546 0.0883,0.0546 0.279,0.4389 0.279,0.43889 0.0637,0.10584 0.0637,0.10583 h -0.1623 -0.16229 l -0.30597,-0.48683 -0.30597,-0.48684 -0.0667,-0.0991 -0.0667,-0.0991 -0.23199,-0.0582 -0.23198,-0.0582 v 0.64418 0.64418 h -0.127 -0.127 z m 1.10066,-0.26482 0.16934,-0.16933 v -0.21167 -0.21166 l -0.16934,-0.16934 -0.16933,-0.16933 h -0.33867 -0.33866 v 0.55033 0.55034 h 0.33866 0.33867 z m 0.93054,1.54517 -7.6e-4,-0.0635 0.48274,-1.31233 0.48275,-1.31234 0.026,-0.0353 0.0261,-0.0353 0.0465,0.0465 0.0465,0.0465 0.49997,1.34021 0.49998,1.3402 -0.0348,0.0348 -0.0348,0.0349 -0.12591,-0.0483 -0.12592,-0.0483 -0.10386,-0.34668 -0.10387,-0.34668 -0.54949,0.0247 -0.54948,0.0247 -0.13088,0.35984 -0.13089,0.35983 h -0.1095 -0.10951 l -7.6e-4,-0.0635 z m 1.43654,-1.016 -0.004,-0.0635 -0.20306,-0.59149 -0.20306,-0.59149 -0.0401,0.12582 -0.0401,0.12583 -0.12527,0.381 -0.12527,0.381 -0.0603,0.14816 -0.0603,0.14817 h 0.4324 0.43239 l -0.004,-0.0635 z m 1.10426,-0.28138 v -1.36087 l 0.14203,0.0274 0.14204,0.0274 0.44428,0.71967 0.44428,0.71966 0.006,0.10584 0.006,0.10583 h 0.0847 0.0847 v -0.10028 -0.10028 l 0.44187,-0.74639 0.44187,-0.74638 h 0.10846 0.10847 v 1.35466 1.35467 h -0.127 -0.127 l -4.3e-4,-1.16417 -4.2e-4,-1.16416 -0.28501,0.55033 -0.28501,0.55033 -0.15908,0.27463 -0.15908,0.27463 -0.0574,5.1e-4 -0.0574,5.1e-4 -0.31474,-0.5181 -0.31473,-0.51811 -0.15369,-0.30739 -0.15369,-0.3074 -0.003,1.16417 -0.003,1.16422 h -0.127 -0.127 z m 3.21733,0.006 v -1.35467 h 0.11073 0.11074 l 0.49407,0.84678 0.49407,0.84677 0.4747,-0.84543 0.47469,-0.84542 0.10583,-0.001 0.10584,-10e-4 v 1.35466 1.35467 h -0.13531 -0.13531 l 0.0295,-1.14305 0.0295,-1.14304 -0.0252,4e-5 -0.0253,5e-5 -0.10217,0.23283 -0.10217,0.23284 -0.32436,0.5715 -0.32436,0.5715 h -0.0564 -0.0564 l -0.40198,-0.6601 -0.40197,-0.6601 v -0.0969 -0.0969 l -0.0635,-0.0393 -0.0635,-0.0393 0.0295,1.13498 0.0295,1.13499 h -0.1353 -0.13531 v -1.35467 z m 3.13267,0 v -1.35467 h 0.71966 0.71967 v 0.127 0.127 h -0.59267 -0.59266 v 0.46567 0.46567 h 0.55033 0.55033 v 0.127 0.127 h -0.55033 -0.55033 v 0.508 0.508 h 0.635 0.635 v 0.127 0.127 h -0.762 -0.762 z m 2.794,0.127 v -1.22767 h -0.46567 -0.46567 v -0.127 -0.127 h 1.016 1.016 v 0.127 0.127 h -0.42333 -0.42333 v 1.22767 1.22767 h -0.127 -0.127 z m 1.60866,-0.11758 v -1.34524 l 0.30343,-0.0569 0.30344,-0.0569 0.26806,0.0566 0.26807,0.0566 0.1905,0.17495 0.1905,0.17495 v 0.32775 0.32776 l -0.20782,0.20782 -0.20781,0.20782 h -0.10164 -0.10164 l 0.1284,0.14816 0.12839,0.14817 0.30701,0.48683 0.30701,0.48684 h -0.15834 -0.15833 l -0.36541,-0.5715 -0.36541,-0.5715 -0.005,-0.0143 -0.005,-0.0143 -0.23266,-0.0584 -0.23266,-0.0584 v 0.64418 0.64418 h -0.127 -0.127 v -1.3449 z m 1.10067,-0.26342 0.16933,-0.16933 v -0.21167 -0.21166 l -0.16933,-0.16934 -0.16933,-0.16933 h -0.33867 -0.33867 v 0.55033 0.55034 h 0.33867 0.33867 z m 1.60867,1.05284 v -0.55583 l -0.43064,-0.79884 -0.43064,-0.79883 h 0.16097 0.16098 l 0.36668,0.71321 0.36667,0.71322 0.34113,-0.71322 0.34113,-0.71321 h 0.16143 0.16143 l -0.16342,0.27516 -0.16342,0.27517 -0.30915,0.56409 -0.30915,0.56409 v 0.51541 0.51541 h -0.127 -0.127 z m -71.077667,-0.58165 -0.08467,-0.0345 -0.402166,-0.0542 -0.402167,-0.0542 v -0.0824 -0.0824 l 4.159223,-4.18722 4.159222,-4.18722 -0.03838,-0.46277 -0.03838,-0.46277 -0.249585,-0.40369 -0.249585,-0.40369 -0.3914,-0.24199 -0.391401,-0.24198 -0.354523,-0.0476 -0.354523,-0.0476 -2.768475,2.7638 -2.768475,2.7638 h -0.255263 -0.255263 l -0.1016,-0.1016 -0.1016,-0.1016 v -0.25872 -0.25872 l 2.757994,-2.75118 2.757993,-2.75118 -0.04711,-0.42279 -0.04711,-0.42279 -0.234379,-0.33115 -0.23438,-0.33115 -0.300263,-0.24175 -0.300263,-0.24175 -0.485555,-0.10184 -0.485557,-0.10185 -2.770655,2.7697 -2.770655,2.7697 h -0.276508 -0.276508 l -0.09611,-0.21094 -0.09611,-0.21094 0.07676,-0.16851 0.07676,-0.1685 4.13321,-4.1913 4.133209,-4.19131 0.311791,0.12971 0.31179,0.12972 0.70366,0.44054 0.703662,0.44053 0.622733,0.57202 0.622734,0.57203 0.457725,0.61331 0.457724,0.61331 0.262277,0.46567 0.262277,0.46566 0.248865,0.635 0.248864,0.635 0.160072,0.635 0.160074,0.635 -0.0017,1.48167 -0.0017,1.48167 -0.223547,0.80433 -0.223546,0.80433 -0.297392,0.65243 -0.297392,0.65243 -0.397817,0.61496 -0.397817,0.61496 -0.815204,0.81256 -0.815204,0.81256 -0.7133,0.43715 -0.713302,0.43714 -0.626512,0.26082 -0.626512,0.26082 -0.649854,0.17296 -0.649853,0.17297 -1.312333,0.0325 -1.312333,0.0325 -0.08467,-0.0345 z m -2.941458,-0.93166 -0.570791,-0.28565 -0.541269,-0.38624 -0.54127,-0.38625 -0.471902,-0.43129 -0.471903,-0.43129 -0.469564,-0.6239 -0.469565,-0.62391 -0.339405,-0.62924 -0.339406,-0.62923 -0.21451,-0.62543 -0.21451,-0.62543 -0.126534,-0.59267 -0.126533,-0.59266 -0.04897,-0.762 -0.04897,-0.762 0.09577,-0.77714 0.09577,-0.77714 0.215835,-0.74686 0.215835,-0.74686 0.368513,-0.73207 0.368513,-0.73206 0.433846,-0.59649 0.433847,-0.59648 0.748379,-0.70345 0.748379,-0.70345 0.708928,-0.42127 0.708929,-0.42126 0.737822,-0.27777 0.737822,-0.27777 0.616844,-0.13839 0.616845,-0.1384 1.227667,-0.008 1.227667,-0.008 0.498447,0.11272 0.498447,0.11273 -4.213035,4.21616 -4.213035,4.21615 0.03561,0.53793 0.03561,0.53793 0.235585,0.35306 0.235585,0.35307 0.353062,0.23408 0.353063,0.23409 0.452813,0.0379 0.452812,0.0379 2.809781,-2.80517 2.809781,-2.80517 h 0.150806 0.150805 l 0.163768,0.0876 0.163767,0.0876 v 0.31159 0.3116 l -2.794,2.79858 -2.794,2.79859 v 0.15785 0.15785 l 0.09826,0.32796 0.09826,0.32797 0.291836,0.34094 0.291837,0.34095 0.339633,0.17327 0.339633,0.17327 0.369236,0.0143 0.369236,0.0143 2.777504,-2.77282 2.777503,-2.77281 h 0.223816 0.223815 l 0.133048,0.13305 0.133048,0.13305 v 0.22257 0.22257 l -1.925224,1.95155 -1.925223,1.95155 -2.286366,2.30716 -2.286366,2.30717 -0.08524,-0.003 -0.08524,-0.003 z m 63.541725,-3.13338 -0.52907,-0.12081 -0.42669,-0.23223 -0.42668,-0.23223 -0.33012,-0.35813 -0.33012,-0.35814 -0.21072,-0.41585 -0.21073,-0.41585 -0.14897,-0.54429 -0.14898,-0.54428 8.7e-4,-1.10067 8.6e-4,-1.10067 0.13979,-0.52786 0.13979,-0.52787 0.21894,-0.43204 0.21893,-0.43204 0.37999,-0.38 0.37999,-0.37999 0.52536,-0.24584 0.52536,-0.24585 0.45569,-0.0864 0.45569,-0.0864 h 0.53461 0.53461 l 0.44866,0.0952 0.44867,0.0952 0.39934,0.20113 0.39933,0.20113 0.31019,0.31019 0.31018,0.31018 0.20454,0.44676 0.20453,0.44676 0.0883,0.53423 0.0883,0.53423 -0.0527,0.635 -0.0527,0.635 -0.0489,0.27517 -0.0489,0.27516 h -2.52846 -2.52846 l 0.048,0.27517 0.048,0.27517 0.11934,0.38196 0.11933,0.38197 0.21428,0.23109 0.21428,0.2311 0.27246,0.14894 0.27246,0.14894 h 0.889 0.889 l 0.56669,-0.26847 0.56669,-0.26847 0.0796,0.0991 0.0796,0.0991 0.26957,0.53799 0.26958,0.53799 -0.0441,0.115 -0.0441,0.115 -0.49603,0.2504 -0.49604,0.2504 -0.50267,0.13563 -0.50267,0.13562 -0.84667,0.0396 -0.84667,0.0396 z m 2.57962,-5.5867 -0.0475,-0.45989 -0.14811,-0.31211 -0.1481,-0.31211 -0.26078,-0.15902 -0.26077,-0.15902 -0.48956,-3.1e-4 -0.48955,-3.1e-4 -0.2764,0.11548 -0.2764,0.11549 -0.22679,0.26953 -0.22679,0.26953 -0.12909,0.43468 -0.12909,0.43468 v 0.11163 0.11164 h 1.57818 1.57818 z m 5.14611,5.65446 -0.254,-0.0409 -0.4735,-0.12038 -0.4735,-0.12038 -0.39083,-0.17288 -0.39082,-0.17288 -0.0467,-0.0755 -0.0467,-0.0755 0.26739,-0.74757 0.26739,-0.74756 0.0202,-0.0257 0.0202,-0.0257 0.52552,0.21353 0.52552,0.21354 0.49812,0.098 0.49813,0.098 0.48192,-0.04 0.48191,-0.04 0.19732,-0.2294 0.19732,-0.2294 v -0.25579 -0.2558 l -0.23283,-0.23239 -0.23284,-0.23239 -1.03498,-0.40236 -1.03498,-0.40236 -0.42973,-0.38637 -0.42974,-0.38637 -0.1785,-0.3482 -0.1785,-0.3482 -0.0392,-0.59938 -0.0392,-0.59939 0.13408,-0.46122 0.13408,-0.46122 0.30855,-0.36048 0.30856,-0.36048 0.31049,-0.1584 0.31048,-0.1584 0.53397,-0.10505 0.53397,-0.10505 0.81862,0.0527 0.81861,0.0527 0.33867,0.0912 0.33866,0.0912 0.4445,0.17466 0.4445,0.17465 v 0.1128 0.1128 l -0.21795,0.68993 -0.21795,0.68994 -0.14188,-0.0459 -0.14188,-0.0459 -0.62928,-0.17401 -0.62927,-0.174 h -0.58108 -0.58107 l -0.20782,0.20782 -0.20782,0.20782 v 0.29403 0.29404 l 0.21872,0.17204 0.21872,0.17205 0.69145,0.25873 0.69145,0.25873 0.44174,0.2081 0.44173,0.20809 0.34756,0.314 0.34756,0.314 0.17445,0.34195 0.17445,0.34195 0.0419,0.52183 0.0419,0.52183 -0.10266,0.42792 -0.10265,0.42792 -0.24274,0.38276 -0.24275,0.38276 -0.35659,0.25832 -0.35659,0.25831 -0.43065,0.12951 -0.43064,0.1295 -0.80434,0.032 -0.80433,0.032 z m -30.68786,-0.1224 -0.377196,-0.0739 -0.381881,-0.2361 -0.381881,-0.2361 -0.274701,-0.36015 -0.274701,-0.36016 -0.08758,-0.31536 -0.08758,-0.31536 -5.08e-4,-0.49818 -5.08e-4,-0.49818 0.09957,-0.33233 0.09957,-0.33233 0.334487,-0.38 0.334487,-0.38 0.395059,-0.20019 0.39506,-0.20019 0.504384,-0.14704 0.504384,-0.14704 1.100667,-0.0509 1.100666,-0.0509 0.02762,-0.381 0.02763,-0.381 -0.09172,-0.30815 -0.09172,-0.30816 -0.227092,-0.14879 -0.227092,-0.1488 -0.555476,-0.0389 -0.555476,-0.0389 -0.787773,0.13681 -0.787773,0.13681 -0.286862,0.11986 -0.286861,0.11986 -0.258793,-0.77702 -0.258866,-0.77703 v -0.0596 -0.0596 l 0.667638,-0.21091 0.667638,-0.2109 0.745143,-0.0992 0.745144,-0.0992 0.936718,0.0382 0.936719,0.0382 0.433346,0.18917 0.433346,0.18917 0.260817,0.26953 0.260817,0.26954 0.194837,0.42334 0.194837,0.42333 0.007,2.96333 0.007,2.96334 0.09677,0.33866 0.09677,0.33867 0.002,0.0635 0.002,0.0635 h -0.875595 -0.875596 l -0.155713,-0.52917 -0.155714,-0.52916 -0.02608,-0.0343 -0.02608,-0.0343 -0.450353,0.42593 -0.450351,0.42592 -0.250797,0.12969 -0.250796,0.12969 -0.500675,0.0926 -0.500675,0.0925 -0.217284,-0.009 -0.217283,-0.009 -0.377195,-0.0739 z m 2.257765,-1.94817 0.3677,-0.17801 0.213602,-0.28004 0.213603,-0.28005 -0.02541,-0.53678 -0.0254,-0.53679 -0.750443,0.0133 -0.750442,0.0133 -0.358634,0.13696 -0.358634,0.13696 -0.172358,0.18837 -0.17236,0.18837 -0.05819,0.19183 -0.05819,0.19183 0.09692,0.29368 0.09692,0.29368 0.216955,0.17066 0.216956,0.17066 h 0.46985 0.469851 z m -26.899569,-2.31967 v -4.191 h 0.457222 0.457222 l 0.104276,0.4445 0.104277,0.4445 0.03728,0.0653 0.03728,0.0653 0.385793,-0.33959 0.385793,-0.33958 0.475924,-0.23373 0.475924,-0.23372 h 1.058333 1.058333 l 0.404469,0.19917 0.404469,0.19916 0.21266,0.27882 0.212662,0.27881 0.186236,0.49569 0.186235,0.49568 0.02752,3.28084 0.02752,3.28083 H 72.471002 71.83062 v -2.77621 -2.77621 l -0.131331,-0.50422 -0.131332,-0.50422 -0.146831,-0.25141 -0.146831,-0.25141 -0.268685,-0.15692 -0.268684,-0.15692 -0.4641,-0.0479 -0.4641,-0.0479 -0.398172,0.10026 -0.398172,0.10026 -0.357751,0.24614 -0.357751,0.24614 -0.265129,0.41317 -0.265131,0.41316 v 2.97709 2.97709 h -0.677333 -0.677333 z m 8.889999,-1.69333 v -5.88434 h 3.513667 3.513666 v 1.016 1.016 h -2.328333 -2.328333 v 1.48167 1.48167 h 2.116666 2.116667 v 1.016 1.016 h -2.116667 -2.116666 v 2.37066 2.37067 h -1.185333 -1.185334 z m 8.551333,1.69333 v -4.191 h 0.838222 0.838222 l 0.0997,0.4445 0.0997,0.4445 0.03805,0.11877 0.03805,0.11877 0.247166,-0.38974 0.247167,-0.38974 0.358175,-0.23703 0.358177,-0.23703 h 0.785116 0.785117 l 0.08277,0.0847 0.08277,0.0847 -0.137967,0.99734 -0.137967,0.99733 -0.131072,-0.0527 -0.131074,-0.0527 -0.474489,-0.0451 -0.474489,-0.0451 -0.303093,0.10003 -0.303091,0.10003 -0.301919,0.33418 -0.301919,0.33419 v 2.83609 2.83609 h -1.100666 -1.100667 z m 14.224,-0.003 v -4.19397 l 0.86215,0.0241 0.862151,0.0241 0.117644,0.53041 0.117647,0.53041 0.47714,-0.46586 0.47714,-0.46586 0.38456,-0.19057 0.38457,-0.19058 0.84666,-9.7e-4 0.84667,-9.8e-4 0.40517,0.23816 0.40516,0.23816 0.22984,0.41679 0.22983,0.41678 0.0492,0.001 0.0492,0.001 0.12014,-0.22592 0.12014,-0.22591 0.4077,-0.32278 0.40769,-0.32279 0.43317,-0.12863 0.43317,-0.12864 h 0.48847 0.48846 l 0.44867,0.0954 0.44867,0.0954 0.39253,0.39146 0.39254,0.39147 0.19316,0.59266 0.19317,0.59267 0.0365,3.2385 0.0365,3.2385 h -1.10307 -1.10307 l -0.0271,-2.89983 -0.0271,-2.89984 -0.16934,-0.338 -0.16933,-0.33799 -0.21167,-0.10526 -0.21166,-0.10525 -0.36821,-0.001 -0.3682,-10e-4 -0.29317,0.13912 -0.29317,0.13912 -0.248,0.43238 -0.248,0.43238 -7.6e-4,2.77284 -8.3e-4,2.77283 h -1.09663 -1.09663 l -0.0252,-2.9845 -0.0252,-2.9845 -0.12232,-0.23918 -0.12232,-0.23919 -0.23331,-0.12065 -0.23331,-0.12065 h -0.35124 -0.35124 l -0.29781,0.14132 -0.2978,0.14132 -0.24416,0.33705 -0.24416,0.33705 v 2.86597 2.86596 h -1.100666 -1.100666 v -4.19396 z"
         style="fill:#919395;stroke-width:0.08466666" />
      <path
         id="path3764"
         d="m 53.415623,255.67677 -0.08467,-0.0345 -0.402166,-0.0542 -0.402167,-0.0542 v -0.0824 -0.0824 l 4.159223,-4.18722 4.159222,-4.18722 -0.03838,-0.46277 -0.03838,-0.46277 -0.249585,-0.40369 -0.249585,-0.40369 -0.3914,-0.24199 -0.391401,-0.24198 -0.354523,-0.0476 -0.354523,-0.0476 -2.768475,2.7638 -2.768475,2.7638 h -0.255263 -0.255263 l -0.1016,-0.1016 -0.1016,-0.1016 v -0.25872 -0.25872 l 2.757994,-2.75118 2.757993,-2.75118 -0.04711,-0.42279 -0.04711,-0.42279 -0.234379,-0.33115 -0.23438,-0.33115 -0.300263,-0.24175 -0.300263,-0.24175 -0.485555,-0.10184 -0.485557,-0.10185 -2.770655,2.7697 -2.770655,2.7697 h -0.276508 -0.276508 l -0.09611,-0.21094 -0.09611,-0.21094 0.07676,-0.16851 0.07676,-0.1685 4.13321,-4.1913 4.133209,-4.19131 0.311791,0.12971 0.31179,0.12972 0.70366,0.44054 0.703662,0.44053 0.622733,0.57202 0.622734,0.57203 0.457725,0.61331 0.457724,0.61331 0.262277,0.46567 0.262277,0.46566 0.248865,0.635 0.248864,0.635 0.160072,0.635 0.160074,0.635 -0.0017,1.48167 -0.0017,1.48167 -0.223547,0.80433 -0.223546,0.80433 -0.297392,0.65243 -0.297392,0.65243 -0.397817,0.61496 -0.397817,0.61496 -0.815204,0.81256 -0.815204,0.81256 -0.7133,0.43715 -0.713302,0.43714 -0.626512,0.26082 -0.626512,0.26082 -0.649854,0.17296 -0.649853,0.17297 -1.312333,0.0325 -1.312333,0.0325 -0.08467,-0.0345 z m -3.090333,-1.02927 -0.719667,-0.38591 -0.465666,-0.347 -0.465667,-0.347 -0.568334,-0.58133 -0.568334,-0.58132 -0.468801,-0.70456 -0.4688,-0.70457 -0.253567,-0.55923 -0.253566,-0.55923 -0.209712,-0.72367 -0.209712,-0.72367 -0.09999,-0.92189 -0.09999,-0.92189 0.09549,-0.83382 0.09549,-0.83383 0.177157,-0.67733 0.177157,-0.67733 0.364775,-0.77238 0.364775,-0.77238 0.356561,-0.52506 0.35656,-0.52506 0.553892,-0.58716 0.553891,-0.58715 0.61657,-0.46404 0.61657,-0.46405 0.74829,-0.37669 0.748291,-0.3767 0.762,-0.2203 0.762,-0.22029 0.883743,-0.0933 0.883743,-0.0933 0.894257,0.098 0.894257,0.098 0.199199,0.0532 0.199198,0.0532 -4.157268,4.1579 -4.157268,4.15791 -0.07552,0.26332 -0.07552,0.26333 0.0657,0.35927 0.0657,0.35927 0.245178,0.34885 0.245177,0.34884 0.387145,0.23936 0.387145,0.23935 0.41457,0.006 0.414569,0.006 2.805801,-2.81614 2.805801,-2.81613 0.241351,0.0606 0.241351,0.0606 0.06305,0.0991 0.06305,0.0991 0.0013,0.19775 0.0013,0.19775 -2.772834,2.83262 -2.772833,2.83263 -0.02682,0.25438 -0.02682,0.25437 0.182081,0.37613 0.182081,0.37613 0.374611,0.32975 0.374611,0.32975 0.375457,0.0945 0.375456,0.0945 h 0.148883 0.148883 l 2.80225,-2.794 2.802249,-2.794 h 0.222661 0.222661 l 0.133047,0.13304 0.133048,0.13305 v 0.21347 0.21347 l -4.20165,4.26781 -4.201653,4.26782 -0.09518,-0.001 -0.09518,-0.001 z m 64.00381,-2.99897 -0.46984,-0.0733 -0.46821,-0.17518 -0.4682,-0.17518 -0.34293,-0.29353 -0.34292,-0.29353 -0.26382,-0.41112 -0.26382,-0.41113 -0.16729,-0.48623 -0.16729,-0.48623 -0.0818,-0.79952 -0.0818,-0.79951 0.0766,-0.73942 0.0766,-0.73942 0.17053,-0.49539 0.17052,-0.4954 0.17034,-0.27562 0.17035,-0.27562 0.4265,-0.39895 0.42651,-0.39894 0.47744,-0.21115 0.47743,-0.21114 0.663,-0.0966 0.66299,-0.0966 0.69699,0.10159 0.69699,0.10159 0.442,0.21625 0.442,0.21624 0.38414,0.42726 0.38414,0.42725 0.17804,0.56332 0.17805,0.56331 0.003,0.762 0.003,0.762 -0.0615,0.4445 -0.0615,0.4445 h -2.5395 -2.53949 l 0.0573,0.35984 0.0573,0.35983 0.19324,0.431 0.19325,0.431 0.2437,0.16988 0.2437,0.16989 0.2878,0.0976 0.2878,0.0976 h 0.607 0.607 l 0.45986,-0.13507 0.45987,-0.13508 0.2718,-0.16608 0.27179,-0.16608 0.35093,0.69796 0.35093,0.69795 -0.15706,0.11783 -0.15706,0.11782 -0.30884,0.16001 -0.30884,0.16001 -0.58994,0.16348 -0.58994,0.16349 -0.70989,0.0447 -0.70988,0.0447 -0.46985,-0.0733 z m 2.26768,-5.67114 -0.046,-0.50752 -0.15923,-0.27265 -0.15924,-0.27265 -0.29317,-0.17122 -0.29317,-0.17122 -0.46583,0.007 -0.46583,0.007 -0.254,0.13241 -0.254,0.13242 -0.1806,0.19855 -0.1806,0.19854 -0.13448,0.26628 -0.13448,0.26628 -0.0556,0.34755 -0.0556,0.34756 h 1.58891 1.58892 l -0.046,-0.50753 z m 5.14484,5.67206 -0.42333,-0.0637 -0.37253,-0.10178 -0.37253,-0.10178 -0.45297,-0.20033 -0.45297,-0.20032 v -0.0369 -0.0369 l 0.20434,-0.53924 0.20434,-0.53925 0.0872,-0.22565 0.0872,-0.22565 0.65066,0.25265 0.65066,0.25265 0.5713,0.0479 0.57131,0.0479 0.31159,-0.0584 0.31158,-0.0584 0.16461,-0.16461 0.16461,-0.16461 v -0.32391 -0.32391 l -0.19223,-0.18059 -0.19222,-0.18058 -0.54861,-0.24626 -0.54861,-0.24625 -0.33177,-0.10719 -0.33177,-0.1072 -0.30323,-0.17196 -0.30323,-0.17196 -0.28237,-0.26126 -0.28237,-0.26127 -0.22563,-0.381 -0.22563,-0.381 0.003,-0.80433 0.003,-0.80433 0.19057,-0.3896 0.19058,-0.3896 0.22942,-0.21665 0.22942,-0.21665 0.35824,-0.18464 0.35825,-0.18464 0.60133,-0.0931 0.60132,-0.0931 0.81977,0.091 0.81977,0.091 0.62112,0.216 0.62112,0.21601 0.0478,0.0479 0.0479,0.0479 -0.22822,0.73614 -0.22822,0.73614 -0.0224,0.0224 -0.0224,0.0224 -0.6737,-0.21544 -0.6737,-0.21544 -0.60739,-0.014 -0.60739,-0.014 -0.23928,0.17847 -0.23927,0.17847 v 0.36849 0.36849 l 0.27871,0.18783 0.27872,0.18782 0.61028,0.22736 0.61029,0.22736 0.43349,0.1923 0.43349,0.19229 0.34473,0.31144 0.34473,0.31144 0.19486,0.39679 0.19485,0.39678 -0.008,0.71967 -0.008,0.71966 -0.17323,0.38972 -0.17323,0.38971 -0.26006,0.2962 -0.26007,0.2962 -0.51576,0.23146 -0.51575,0.23145 -0.52369,0.0758 -0.52369,0.0758 -0.33867,-0.009 -0.33867,-0.009 z m -30.987999,-0.18456 -0.254,-0.0959 -0.311601,-0.19569 -0.311601,-0.1957 -0.255628,-0.37154 -0.255628,-0.37154 -0.100157,-0.39776 -0.100156,-0.39776 0.0423,-0.52702 0.0423,-0.52701 0.175594,-0.3442 0.175594,-0.34419 0.318187,-0.27937 0.318186,-0.27937 0.384865,-0.17025 0.384865,-0.17024 0.423771,-0.11882 0.423769,-0.11882 1.121833,-0.0494 1.121833,-0.0494 v -0.45638 -0.45638 l -0.123952,-0.29666 -0.123953,-0.29666 -0.320547,-0.13452 -0.320548,-0.13453 -0.846666,0.0472 -0.846667,0.0472 -0.508,0.14343 -0.508,0.14343 -0.159547,0.0104 -0.159547,0.0104 -0.238194,-0.75937 -0.238195,-0.75937 0.01674,-0.0155 0.01674,-0.0155 0.550334,-0.18156 0.550333,-0.18156 0.846667,-0.13108 0.846666,-0.13108 0.889,0.0435 0.889,0.0435 0.392295,0.13847 0.392296,0.13846 0.336527,0.28806 0.336527,0.28805 0.202511,0.44819 0.202511,0.44818 -0.0244,2.63726 -0.0244,2.63726 0.08037,0.49541 0.08037,0.4954 0.05904,0.23284 0.05904,0.23283 h -0.880619 -0.880618 l -0.09626,-0.35983 -0.09626,-0.35984 -0.09234,-0.24282 -0.09234,-0.24282 -0.328041,0.37268 -0.328041,0.37267 -0.453424,0.24848 -0.453424,0.24848 -0.846667,0.0218 -0.846667,0.0218 z m 2.560651,-1.82314 0.274652,-0.12764 0.254515,-0.28988 0.254515,-0.28987 v -0.60203 -0.60204 l -0.845644,0.0466 -0.845646,0.0466 -0.388484,0.18806 -0.388486,0.18806 -0.131726,0.27624 -0.131726,0.27623 0.05482,0.29221 0.05482,0.29221 0.199305,0.18724 0.199304,0.18724 0.2439,0.0749 0.243899,0.0749 0.338667,-0.0457 0.338666,-0.0457 z m -18.012317,-4.04583 v -5.88434 h 3.513667 3.513666 v 1.016 1.016 h -2.372665 -2.372667 l 0.02317,1.4605 0.02317,1.4605 2.137833,0.0226 2.137833,0.0226 v 1.01455 1.01455 h -2.159 -2.159 v 2.37066 2.37067 h -1.143 -1.143 z m 8.551333,1.69333 v -4.191 h 0.833194 0.833193 l 0.107773,0.48683 0.107773,0.48684 0.03835,0.0645 0.03835,0.0645 0.277803,-0.40312 0.277801,-0.40312 0.457386,-0.24098 0.457384,-0.24098 0.659279,0.0366 0.659278,0.0366 0.0662,0.0773 0.0662,0.0773 -0.124012,0.94751 -0.124013,0.9475 -0.688609,-0.0486 -0.68861,-0.0486 -0.353706,0.18045 -0.353706,0.18045 -0.215319,0.36741 -0.215319,0.36742 v 2.72306 2.72306 h -1.058333 -1.058334 z m 14.224,0 v -4.191 h 0.845053 0.845054 l 0.05244,0.23283 0.05244,0.23284 0.08153,0.32527 0.08154,0.32528 0.50023,-0.47714 0.50022,-0.47713 0.40458,-0.18429 0.40458,-0.18428 0.762,2.3e-4 0.762,2.3e-4 0.34668,0.18276 0.34669,0.18276 0.26715,0.30426 0.26715,0.30427 10e-4,0.0606 0.001,0.0606 0.0665,0.10474 0.0665,0.10474 0.54795,-0.53463 0.54794,-0.53463 0.56844,-0.15388 0.56845,-0.15387 0.60682,0.0564 0.60682,0.0564 0.3468,0.15652 0.3468,0.15653 0.23378,0.24946 0.23378,0.24945 0.17545,0.4992 0.17545,0.4992 0.0761,0.72285 0.0761,0.72285 0.002,2.64583 0.002,2.64584 h -1.10066 -1.10067 v -2.65544 -2.65545 l -0.0843,-0.45605 -0.0843,-0.45606 -0.25574,-0.23283 -0.25574,-0.23284 h -0.49415 -0.49414 l -0.28138,0.1905 -0.28138,0.1905 -0.19681,0.37315 -0.19681,0.37315 v 2.78069 2.78068 h -1.04993 -1.04993 l -0.0369,-2.8575 -0.0369,-2.8575 -0.10748,-0.29633 -0.10748,-0.29634 -0.20742,-0.1905 -0.20743,-0.1905 h -0.46515 -0.46515 l -0.25146,0.13004 -0.25147,0.13004 -0.25233,0.34833 -0.25233,0.34833 v 2.86597 2.86596 h -1.100646 -1.100666 z"
         style="fill:#00b2e6;stroke-width:0.08466666" />
      <path
         id="path3762"
         d="m 50.32529,254.6475 -0.719667,-0.38591 -0.465666,-0.347 -0.465667,-0.347 -0.568334,-0.58133 -0.568334,-0.58132 -0.468801,-0.70456 -0.4688,-0.70457 -0.253567,-0.55923 -0.253566,-0.55923 -0.209712,-0.72367 -0.209712,-0.72367 -0.09999,-0.92189 -0.09999,-0.92189 0.09549,-0.83382 0.09549,-0.83383 0.177157,-0.67733 0.177157,-0.67733 0.364775,-0.77238 0.364775,-0.77238 0.356561,-0.52506 0.35656,-0.52506 0.553892,-0.58716 0.553891,-0.58715 0.61657,-0.46404 0.61657,-0.46405 0.74829,-0.37669 0.748291,-0.3767 0.762,-0.2203 0.762,-0.22029 0.883743,-0.0933 0.883743,-0.0933 0.894257,0.098 0.894257,0.098 0.199199,0.0532 0.199198,0.0532 -4.157268,4.1579 -4.157268,4.15791 -0.07552,0.26332 -0.07552,0.26333 0.0657,0.35927 0.0657,0.35927 0.245178,0.34885 0.245177,0.34884 0.387145,0.23936 0.387145,0.23935 0.41457,0.006 0.414569,0.006 2.805801,-2.81614 2.805801,-2.81613 0.241351,0.0606 0.241351,0.0606 0.06305,0.0991 0.06305,0.0991 0.0013,0.19775 0.0013,0.19775 -2.772834,2.83262 -2.772833,2.83263 -0.02682,0.25438 -0.02682,0.25437 0.182081,0.37613 0.182081,0.37613 0.374611,0.32975 0.374611,0.32975 0.375457,0.0945 0.375456,0.0945 h 0.148883 0.148883 l 2.80225,-2.794 2.802249,-2.794 h 0.222661 0.222661 l 0.133047,0.13304 0.133048,0.13305 v 0.21347 0.21347 l -4.20165,4.26781 -4.201653,4.26782 -0.09518,-0.001 -0.09518,-0.001 z m 64.00381,-2.99897 -0.46984,-0.0733 -0.46821,-0.17518 -0.4682,-0.17518 -0.34293,-0.29353 -0.34292,-0.29353 -0.26382,-0.41112 -0.26382,-0.41113 -0.16729,-0.48623 -0.16729,-0.48623 -0.0818,-0.79952 -0.0818,-0.79951 0.0766,-0.73942 0.0766,-0.73942 0.17053,-0.49539 0.17052,-0.4954 0.17034,-0.27562 0.17035,-0.27562 0.4265,-0.39895 0.42651,-0.39894 0.47744,-0.21115 0.47743,-0.21114 0.663,-0.0966 0.66299,-0.0966 0.69699,0.10159 0.69699,0.10159 0.442,0.21625 0.442,0.21624 0.38414,0.42726 0.38414,0.42725 0.17804,0.56332 0.17805,0.56331 0.003,0.762 0.003,0.762 -0.0615,0.4445 -0.0615,0.4445 h -2.5395 -2.53949 l 0.0573,0.35984 0.0573,0.35983 0.19324,0.431 0.19325,0.431 0.2437,0.16988 0.2437,0.16989 0.2878,0.0976 0.2878,0.0976 h 0.607 0.607 l 0.45986,-0.13507 0.45987,-0.13508 0.2718,-0.16608 0.27179,-0.16608 0.35093,0.69796 0.35093,0.69795 -0.15706,0.11783 -0.15706,0.11782 -0.30884,0.16001 -0.30884,0.16001 -0.58994,0.16348 -0.58994,0.16349 -0.70989,0.0447 -0.70988,0.0447 -0.46985,-0.0733 z m 2.26768,-5.67114 -0.046,-0.50752 -0.15923,-0.27265 -0.15924,-0.27265 -0.29317,-0.17122 -0.29317,-0.17122 -0.46583,0.007 -0.46583,0.007 -0.254,0.13241 -0.254,0.13242 -0.1806,0.19855 -0.1806,0.19854 -0.13448,0.26628 -0.13448,0.26628 -0.0556,0.34755 -0.0556,0.34756 h 1.58891 1.58892 l -0.046,-0.50753 z m 5.14484,5.67206 -0.42333,-0.0637 -0.37253,-0.10178 -0.37253,-0.10178 -0.45297,-0.20033 -0.45297,-0.20032 v -0.0369 -0.0369 l 0.20434,-0.53924 0.20434,-0.53925 0.0872,-0.22565 0.0872,-0.22565 0.65066,0.25265 0.65066,0.25265 0.5713,0.0479 0.57131,0.0479 0.31159,-0.0584 0.31158,-0.0584 0.16461,-0.16461 0.16461,-0.16461 v -0.32391 -0.32391 l -0.19223,-0.18059 -0.19222,-0.18058 -0.54861,-0.24626 -0.54861,-0.24625 -0.33177,-0.10719 -0.33177,-0.1072 -0.30323,-0.17196 -0.30323,-0.17196 -0.28237,-0.26126 -0.28237,-0.26127 -0.22563,-0.381 -0.22563,-0.381 0.003,-0.80433 0.003,-0.80433 0.19057,-0.3896 0.19058,-0.3896 0.22942,-0.21665 0.22942,-0.21665 0.35824,-0.18464 0.35825,-0.18464 0.60133,-0.0931 0.60132,-0.0931 0.81977,0.091 0.81977,0.091 0.62112,0.216 0.62112,0.21601 0.0478,0.0479 0.0479,0.0479 -0.22822,0.73614 -0.22822,0.73614 -0.0224,0.0224 -0.0224,0.0224 -0.6737,-0.21544 -0.6737,-0.21544 -0.60739,-0.014 -0.60739,-0.014 -0.23928,0.17847 -0.23927,0.17847 v 0.36849 0.36849 l 0.27871,0.18783 0.27872,0.18782 0.61028,0.22736 0.61029,0.22736 0.43349,0.1923 0.43349,0.19229 0.34473,0.31144 0.34473,0.31144 0.19486,0.39679 0.19485,0.39678 -0.008,0.71967 -0.008,0.71966 -0.17323,0.38972 -0.17323,0.38971 -0.26006,0.2962 -0.26007,0.2962 -0.51576,0.23146 -0.51575,0.23145 -0.52369,0.0758 -0.52369,0.0758 -0.33867,-0.009 -0.33867,-0.009 z m -30.987999,-0.18456 -0.254,-0.0959 -0.311601,-0.19569 -0.311601,-0.1957 -0.255628,-0.37154 -0.255628,-0.37154 -0.100157,-0.39776 -0.100156,-0.39776 0.0423,-0.52702 0.0423,-0.52701 0.175594,-0.3442 0.175594,-0.34419 0.318187,-0.27937 0.318186,-0.27937 0.384865,-0.17025 0.384865,-0.17024 0.423771,-0.11882 0.423769,-0.11882 1.121833,-0.0494 1.121833,-0.0494 v -0.45638 -0.45638 l -0.123952,-0.29666 -0.123953,-0.29666 -0.320547,-0.13452 -0.320548,-0.13453 -0.846666,0.0472 -0.846667,0.0472 -0.508,0.14343 -0.508,0.14343 -0.159547,0.0104 -0.159547,0.0104 -0.238194,-0.75937 -0.238195,-0.75937 0.01674,-0.0155 0.01674,-0.0155 0.550334,-0.18156 0.550333,-0.18156 0.846667,-0.13108 0.846666,-0.13108 0.889,0.0435 0.889,0.0435 0.392295,0.13847 0.392296,0.13846 0.336527,0.28806 0.336527,0.28805 0.202511,0.44819 0.202511,0.44818 -0.0244,2.63726 -0.0244,2.63726 0.08037,0.49541 0.08037,0.4954 0.05904,0.23284 0.05904,0.23283 h -0.880619 -0.880618 l -0.09626,-0.35983 -0.09626,-0.35984 -0.09234,-0.24282 -0.09234,-0.24282 -0.328041,0.37268 -0.328041,0.37267 -0.453424,0.24848 -0.453424,0.24848 -0.846667,0.0218 -0.846667,0.0218 z m 2.560651,-1.82314 0.274652,-0.12764 0.254515,-0.28988 0.254515,-0.28987 v -0.60203 -0.60204 l -0.845644,0.0466 -0.845646,0.0466 -0.388484,0.18806 -0.388486,0.18806 -0.131726,0.27624 -0.131726,0.27623 0.05482,0.29221 0.05482,0.29221 0.199305,0.18724 0.199304,0.18724 0.2439,0.0749 0.243899,0.0749 0.338667,-0.0457 0.338666,-0.0457 z m -18.012317,-4.04583 v -5.88434 h 3.513667 3.513666 v 1.016 1.016 h -2.372665 -2.372667 l 0.02317,1.4605 0.02317,1.4605 2.137833,0.0226 2.137833,0.0226 v 1.01455 1.01455 h -2.159 -2.159 v 2.37066 2.37067 h -1.143 -1.143 z m 8.551333,1.69333 v -4.191 h 0.833194 0.833193 l 0.107773,0.48683 0.107773,0.48684 0.03835,0.0645 0.03835,0.0645 0.277803,-0.40312 0.277801,-0.40312 0.457386,-0.24098 0.457384,-0.24098 0.659279,0.0366 0.659278,0.0366 0.0662,0.0773 0.0662,0.0773 -0.124012,0.94751 -0.124013,0.9475 -0.688609,-0.0486 -0.68861,-0.0486 -0.353706,0.18045 -0.353706,0.18045 -0.215319,0.36741 -0.215319,0.36742 v 2.72306 2.72306 h -1.058333 -1.058334 z m 14.224,0 v -4.191 h 0.845053 0.845054 l 0.05244,0.23283 0.05244,0.23284 0.08153,0.32527 0.08154,0.32528 0.50023,-0.47714 0.50022,-0.47713 0.40458,-0.18429 0.40458,-0.18428 0.762,2.3e-4 0.762,2.3e-4 0.34669,0.18276 0.34668,0.18276 0.26715,0.30426 0.26715,0.30427 10e-4,0.0606 0.001,0.0606 0.0665,0.10474 0.0665,0.10474 0.54795,-0.53463 0.54794,-0.53463 0.56844,-0.15388 0.56845,-0.15387 0.60682,0.0564 0.60682,0.0564 0.3468,0.15652 0.3468,0.15653 0.23378,0.24946 0.23378,0.24945 0.17545,0.4992 0.17545,0.4992 0.0761,0.72285 0.0761,0.72285 0.002,2.64583 0.002,2.64584 h -1.10066 -1.10067 v -2.65544 -2.65545 l -0.0843,-0.45605 -0.0843,-0.45606 -0.25574,-0.23283 -0.25574,-0.23284 h -0.49415 -0.49414 l -0.28138,0.1905 -0.28138,0.1905 -0.19681,0.37315 -0.19681,0.37315 v 2.78069 2.78068 h -1.04993 -1.04993 l -0.0369,-2.8575 -0.0369,-2.8575 -0.10747,-0.29633 -0.10748,-0.29634 -0.20742,-0.1905 -0.20743,-0.1905 h -0.46514 -0.46515 l -0.25145,0.13004 -0.25147,0.13004 -0.25233,0.34833 -0.25233,0.34833 v 2.86597 2.86596 h -1.100676 -1.100666 z"
         style="fill:#00ad87;stroke-width:0.08466666" />
      <path
         id="path3760"
         d="m 114.3291,251.64853 -0.46984,-0.0733 -0.46821,-0.17518 -0.4682,-0.17518 -0.34293,-0.29353 -0.34292,-0.29353 -0.26382,-0.41112 -0.26382,-0.41113 -0.16729,-0.48623 -0.16729,-0.48623 -0.0818,-0.79952 -0.0818,-0.79951 0.0766,-0.73942 0.0766,-0.73942 0.17053,-0.49539 0.17052,-0.4954 0.17034,-0.27562 0.17035,-0.27562 0.4265,-0.39895 0.42651,-0.39894 0.47744,-0.21115 0.47743,-0.21114 0.663,-0.0966 0.66299,-0.0966 0.69699,0.10159 0.69699,0.10159 0.442,0.21625 0.442,0.21624 0.38414,0.42726 0.38414,0.42725 0.17804,0.56332 0.17805,0.56331 0.003,0.762 0.003,0.762 -0.0615,0.4445 -0.0615,0.4445 h -2.5395 -2.53949 l 0.0573,0.35984 0.0573,0.35983 0.19324,0.431 0.19325,0.431 0.2437,0.16988 0.2437,0.16989 0.2878,0.0976 0.2878,0.0976 h 0.607 0.607 l 0.45986,-0.13507 0.45987,-0.13508 0.2718,-0.16608 0.27179,-0.16608 0.35093,0.69796 0.35093,0.69795 -0.15706,0.11783 -0.15706,0.11782 -0.30884,0.16001 -0.30884,0.16001 -0.58994,0.16348 -0.58994,0.16349 -0.70989,0.0447 -0.70988,0.0447 -0.46985,-0.0733 z m 2.26768,-5.67114 -0.046,-0.50752 -0.15923,-0.27265 -0.15924,-0.27265 -0.29317,-0.17122 -0.29317,-0.17122 -0.46583,0.007 -0.46583,0.007 -0.254,0.13241 -0.254,0.13242 -0.1806,0.19855 -0.1806,0.19854 -0.13448,0.26628 -0.13448,0.26628 -0.0556,0.34755 -0.0556,0.34756 h 1.58891 1.58892 l -0.046,-0.50753 z m 5.14484,5.67206 -0.42333,-0.0637 -0.37253,-0.10178 -0.37253,-0.10178 -0.45297,-0.20033 -0.45297,-0.20032 v -0.0369 -0.0369 l 0.20434,-0.53924 0.20434,-0.53925 0.0872,-0.22565 0.0872,-0.22565 0.65066,0.25265 0.65066,0.25265 0.5713,0.0479 0.57131,0.0479 0.31159,-0.0584 0.31158,-0.0584 0.16461,-0.16461 0.16461,-0.16461 v -0.32391 -0.32391 l -0.19223,-0.18059 -0.19222,-0.18058 -0.54861,-0.24626 -0.54861,-0.24625 -0.33177,-0.10719 -0.33177,-0.1072 -0.30323,-0.17196 -0.30323,-0.17196 -0.28237,-0.26126 -0.28237,-0.26127 -0.22563,-0.381 -0.22563,-0.381 0.003,-0.80433 0.003,-0.80433 0.19057,-0.3896 0.19058,-0.3896 0.22942,-0.21665 0.22942,-0.21665 0.35824,-0.18464 0.35825,-0.18464 0.60133,-0.0931 0.60132,-0.0931 0.81977,0.091 0.81977,0.091 0.62112,0.216 0.62112,0.21601 0.0478,0.0479 0.0479,0.0479 -0.22822,0.73614 -0.22822,0.73614 -0.0224,0.0224 -0.0224,0.0224 -0.6737,-0.21544 -0.6737,-0.21544 -0.60739,-0.014 -0.60739,-0.014 -0.23928,0.17847 -0.23927,0.17847 v 0.36849 0.36849 l 0.27871,0.18783 0.27872,0.18782 0.61028,0.22736 0.61029,0.22736 0.43349,0.1923 0.43349,0.19229 0.34473,0.31144 0.34473,0.31144 0.19486,0.39679 0.19485,0.39678 -0.008,0.71967 -0.008,0.71966 -0.17323,0.38972 -0.17323,0.38971 -0.26006,0.2962 -0.26007,0.2962 -0.51576,0.23146 -0.51575,0.23145 -0.52369,0.0758 -0.52369,0.0758 -0.33867,-0.009 -0.33867,-0.009 z m -30.987999,-0.18456 -0.254,-0.0959 -0.311601,-0.19569 -0.311601,-0.1957 -0.255628,-0.37154 -0.255628,-0.37154 -0.100157,-0.39776 -0.100156,-0.39776 0.0423,-0.52702 0.0423,-0.52701 0.175594,-0.3442 0.175594,-0.34419 0.318187,-0.27937 0.318186,-0.27937 0.384865,-0.17025 0.384865,-0.17024 0.423771,-0.11882 0.423769,-0.11882 1.121833,-0.0494 1.121833,-0.0494 v -0.45638 -0.45638 l -0.123952,-0.29666 -0.123953,-0.29666 -0.320547,-0.13452 -0.320548,-0.13453 -0.846666,0.0472 -0.846667,0.0472 -0.508,0.14343 -0.508,0.14343 -0.159547,0.0104 -0.159547,0.0104 -0.238194,-0.75937 -0.238195,-0.75937 0.01674,-0.0155 0.01674,-0.0155 0.550334,-0.18156 0.550333,-0.18156 0.846667,-0.13108 0.846666,-0.13108 0.889,0.0435 0.889,0.0435 0.392295,0.13847 0.392296,0.13846 0.336527,0.28806 0.336527,0.28805 0.202511,0.44819 0.202511,0.44818 -0.0244,2.63726 -0.0244,2.63726 0.08037,0.49541 0.08037,0.4954 0.05904,0.23284 0.05904,0.23283 h -0.880619 -0.880618 l -0.09626,-0.35983 -0.09626,-0.35984 -0.09234,-0.24282 -0.09234,-0.24282 -0.328041,0.37268 -0.328041,0.37267 -0.453424,0.24848 -0.453424,0.24848 -0.846667,0.0218 -0.846667,0.0218 z m 2.560651,-1.82314 0.274652,-0.12764 0.254515,-0.28988 0.254515,-0.28987 v -0.60203 -0.60204 l -0.845644,0.0466 -0.845646,0.0466 -0.388484,0.18806 -0.388486,0.18806 -0.131726,0.27624 -0.131726,0.27623 0.05482,0.29221 0.05482,0.29221 0.199305,0.18724 0.199304,0.18724 0.2439,0.0749 0.243899,0.0749 0.338667,-0.0457 0.338666,-0.0457 z m -18.012317,-4.04583 v -5.88434 h 3.513667 3.513666 v 1.016 1.016 h -2.372665 -2.372667 l 0.02317,1.4605 0.02317,1.4605 2.137833,0.0226 2.137833,0.0226 v 1.01455 1.01455 h -2.159 -2.159 v 2.37066 2.37067 h -1.143 -1.143 z m 8.551333,1.69333 v -4.191 h 0.833194 0.833193 l 0.107773,0.48683 0.107773,0.48684 0.03835,0.0645 0.03835,0.0645 0.277803,-0.40312 0.277801,-0.40312 0.457386,-0.24098 0.457384,-0.24098 0.659279,0.0366 0.659278,0.0366 0.0662,0.0773 0.0662,0.0773 -0.124012,0.94751 -0.124013,0.9475 -0.688609,-0.0486 -0.68861,-0.0486 -0.353706,0.18045 -0.353706,0.18045 -0.215319,0.36741 -0.215319,0.36742 v 2.72306 2.72306 h -1.058333 -1.058334 z m 14.224,0 v -4.191 h 0.845053 0.845054 l 0.05244,0.23283 0.05244,0.23284 0.08153,0.32527 0.08154,0.32528 0.50023,-0.47714 0.50022,-0.47713 0.40458,-0.18429 0.40458,-0.18428 0.762,2.3e-4 0.762,2.3e-4 0.34668,0.18276 0.34669,0.18276 0.26715,0.30426 0.26715,0.30427 10e-4,0.0606 0.001,0.0606 0.0665,0.10474 0.0665,0.10474 0.54795,-0.53463 0.54794,-0.53463 0.56844,-0.15388 0.56845,-0.15387 0.60682,0.0564 0.60682,0.0564 0.3468,0.15652 0.3468,0.15653 0.23378,0.24946 0.23378,0.24945 0.17545,0.4992 0.17545,0.4992 0.0761,0.72285 0.0761,0.72285 0.002,2.64583 0.002,2.64584 h -1.10066 -1.10067 v -2.65544 -2.65545 l -0.0843,-0.45605 -0.0843,-0.45606 -0.25574,-0.23283 -0.25574,-0.23284 h -0.49415 -0.49414 l -0.28138,0.1905 -0.28138,0.1905 -0.19681,0.37315 -0.19681,0.37315 v 2.78069 2.78068 h -1.04993 -1.04993 l -0.0369,-2.8575 -0.0369,-2.8575 -0.10748,-0.29633 -0.10748,-0.29634 -0.20742,-0.1905 -0.20743,-0.1905 h -0.46515 -0.46515 l -0.25146,0.13004 -0.25147,0.13004 -0.25233,0.34833 -0.25233,0.34833 v 2.86597 2.86596 h -1.100646 -1.100666 z"
         style="fill:#5d5e60;stroke-width:0.08466666" />
      <path
         id="path3758"
         d="m 113.82529,251.52843 -0.381,-0.10602 -0.36335,-0.18626 -0.36335,-0.18626 -0.32194,-0.32194 -0.32195,-0.32195 -0.26222,-0.52475 -0.26222,-0.52475 -0.14269,-0.64139 -0.1427,-0.64139 0.046,-1.1119 0.046,-1.1119 0.13155,-0.40724 0.13156,-0.40724 0.22941,-0.42152 0.22942,-0.42151 0.37173,-0.34265 0.37174,-0.34265 0.52587,-0.24609 0.52587,-0.24608 0.68969,-0.0928 0.6897,-0.0928 0.61997,0.0938 0.61998,0.0938 0.52192,0.25406 0.52192,0.25406 0.27385,0.3119 0.27385,0.3119 0.22023,0.46953 0.22023,0.46953 v 1.22766 1.22767 l -0.0608,0.14817 -0.0608,0.14816 h -2.50994 -2.50993 l 0.0589,0.40217 0.0589,0.40217 0.15084,0.33866 0.15084,0.33867 0.20315,0.18646 0.20316,0.18646 0.29518,0.12164 0.29517,0.12165 0.42481,0.057 0.4248,0.057 0.62002,-0.12928 0.62002,-0.12928 0.37495,-0.20956 0.37494,-0.20956 0.33707,0.67039 0.33706,0.67039 v 0.043 0.043 l -0.51701,0.26099 -0.51702,0.26099 -0.63953,0.16356 -0.63953,0.16356 -0.89662,-0.008 -0.89662,-0.008 z m 2.794,-5.39352 v -0.35001 l -0.0993,-0.33139 -0.0993,-0.33139 -0.27486,-0.24134 -0.27487,-0.24133 -0.34796,-0.0588 -0.34797,-0.0588 -0.42828,0.10274 -0.42828,0.10274 -0.27832,0.27833 -0.27832,0.27832 -0.13762,0.40387 -0.13761,0.40388 v 0.19658 0.19659 h 1.56633 1.56634 z m 4.69491,5.43209 -0.34275,-0.0721 -0.63091,-0.24437 -0.63092,-0.24438 0.0263,-0.15019 0.0263,-0.15019 0.25561,-0.66937 0.25561,-0.66938 0.31329,0.15983 0.3133,0.15983 0.46312,0.12911 0.46312,0.12911 0.42333,0.051 0.42333,0.051 0.381,-0.11068 0.381,-0.11068 0.14857,-0.30185 0.14856,-0.30184 -0.0939,-0.26939 -0.0939,-0.26938 -0.35099,-0.20008 -0.35098,-0.20008 -0.83544,-0.3189 -0.83543,-0.3189 -0.3499,-0.26604 -0.3499,-0.26603 -0.26736,-0.44539 -0.26736,-0.44539 -0.054,-0.48248 -0.054,-0.48248 0.0891,-0.45927 0.0891,-0.45926 0.21574,-0.36813 0.21574,-0.36813 0.31282,-0.20648 0.31282,-0.20648 0.381,-0.1436 0.381,-0.14361 1.016,0.004 1.016,0.004 0.762,0.22558 0.762,0.22558 0.10169,0.10103 0.10169,0.10104 -0.21893,0.72812 -0.21893,0.72812 -0.61446,-0.18958 -0.61446,-0.18958 -0.50403,-0.0585 -0.50403,-0.0585 -0.35121,0.0946 -0.3512,0.0946 -0.13446,0.26001 -0.13445,0.26 0.0502,0.20021 0.0503,0.2002 0.18357,0.17102 0.18356,0.17101 0.81024,0.31029 0.81025,0.31029 0.39934,0.19837 0.39933,0.19836 0.30994,0.30994 0.30994,0.30994 0.17312,0.38857 0.17312,0.38857 0.001,0.65447 10e-4,0.65448 -0.29077,0.56631 -0.29076,0.5663 -0.40796,0.27967 -0.40795,0.27967 -0.31171,0.0985 -0.31171,0.0985 -1.05834,0.0256 -1.05833,0.0256 -0.34275,-0.0721 z m -30.566423,-0.15107 -0.429178,-0.15329 -0.240117,-0.18887 -0.240117,-0.18888 -0.201224,-0.27274 -0.201225,-0.27275 -0.124314,-0.41861 -0.124314,-0.41861 v -0.35217 -0.35218 l 0.117996,-0.39207 0.117995,-0.39207 0.268677,-0.33923 0.268675,-0.33923 0.608162,-0.297 0.608162,-0.29699 0.751923,-0.12816 0.751924,-0.12816 h 0.71783 0.717831 l -0.03205,-0.63471 -0.03205,-0.63471 -0.233287,-0.23312 -0.233288,-0.23313 -1.035082,0.001 -1.035082,0.001 -0.508,0.14047 -0.508,0.14048 -0.142329,0.0555 -0.142329,0.0555 -0.217504,-0.68853 -0.217504,-0.68852 v -0.11923 -0.11922 l 0.542719,-0.16763 0.542719,-0.16763 0.536781,-0.10225 0.536781,-0.10224 1.100666,-0.008 1.100667,-0.008 0.343676,0.10376 0.343677,0.10376 0.395113,0.26171 0.395113,0.26172 0.27721,0.56414 0.277211,0.56414 -0.02675,2.7524 -0.02675,2.7524 0.09336,0.42333 0.09336,0.42334 0.0459,0.1512 0.0459,0.1512 -0.870036,-0.0242 -0.870037,-0.0242 -0.161118,-0.55034 -0.161117,-0.55033 -0.02967,-0.0311 -0.02967,-0.0311 -0.426001,0.43736 -0.426001,0.43736 -0.403677,0.18071 -0.403677,0.18071 -0.719667,0.029 -0.719666,0.029 -0.429178,-0.15329 z m 2.279542,-1.63591 0.326365,-0.0906 0.372135,-0.34302 0.372135,-0.34302 v -0.62422 -0.62421 h -0.661966 -0.661966 l -0.45263,0.13441 -0.45263,0.13442 -0.24007,0.24007 -0.240071,0.24007 v 0.30705 0.30705 l 0.132479,0.25619 0.13248,0.25619 0.269687,0.11729 0.269688,0.1173 0.254,0.003 0.254,0.003 0.326364,-0.0906 z m -17.640697,-4.1841 v -5.88434 h 3.429 3.429 v 1.016 1.016 h -2.328334 -2.328333 v 1.48167 1.48167 h 2.159 2.159 v 0.97221 0.97221 l -2.137833,0.0226 -2.137833,0.0226 -0.02249,2.39184 -0.02249,2.39183 H 76.48597 75.386622 Z m 8.466666,1.69333 v -4.191 h 0.831134 0.831134 l 0.109389,0.55033 0.109388,0.55034 h 0.0733 0.0733 l 0.123693,-0.2392 0.123693,-0.2392 0.339349,-0.30658 0.339349,-0.30658 0.364633,-0.0986 0.364631,-0.0986 0.504293,0.0523 0.504294,0.0523 0.07758,0.0776 0.07758,0.0776 -0.10809,0.84817 -0.108091,0.84817 -0.05761,0.0932 -0.05761,0.0932 -0.403456,-0.0904 -0.403456,-0.0904 -0.309052,0.0559 -0.309053,0.0559 -0.228456,0.11559 -0.228457,0.1156 -0.23721,0.31086 -0.23721,0.31086 -0.02441,2.82189 -0.02441,2.8219 H 84.908368 83.85328 Z m 14.224,0 v -4.191 h 0.842406 0.842405 l 0.100349,0.51006 0.100348,0.51006 0.05977,0.0369 0.0598,0.0369 0.45797,-0.44301 0.45797,-0.44301 0.31125,-0.14733 0.31125,-0.14734 0.45075,-0.0871 0.45075,-0.0871 0.42333,0.0541 0.42333,0.0541 0.35398,0.15363 0.35398,0.15364 0.25688,0.35461 0.25687,0.35461 0.0535,0.16848 0.0535,0.16849 0.41734,-0.46824 0.41734,-0.46825 0.47649,-0.23312 0.47648,-0.23312 0.68551,-0.003 0.68552,-0.003 0.4135,0.11825 0.41351,0.11826 0.31527,0.30332 0.31527,0.30332 0.20113,0.508 0.20113,0.508 0.0279,3.3655 0.0279,3.3655 h -1.05866 -1.05867 l -0.0261,-2.9845 -0.0261,-2.9845 -0.17367,-0.29633 -0.17366,-0.29634 -0.33256,-0.11 -0.33256,-0.11 -0.3173,0.0536 -0.31731,0.0536 -0.27585,0.1859 -0.27585,0.18589 -0.19039,0.33616 -0.1904,0.33617 -0.001,2.81516 -0.001,2.81517 h -1.05833 -1.05833 l -5.1e-4,-2.56117 -5.1e-4,-2.56116 -0.0831,-0.50755 -0.0831,-0.50754 -0.15732,-0.21213 -0.15732,-0.21212 -0.32814,-0.10978 -0.32815,-0.10979 -0.40176,0.0964 -0.40177,0.0964 -0.30295,0.33533 -0.30294,0.33533 -0.0809,0.21275 -0.0809,0.21275 v 2.74615 2.74616 H 99.136523 98.07819 Z"
         style="fill:#393b3e;stroke-width:0.08466666" />
    </g>
  </g>
</svg>
